<svg width="800" height="505" viewBox="0 0 800 505" fill="none" xmlns="http://www.w3.org/2000/svg">
<g id="collaboration 1" clip-path="url(#clip0_251_76)">
<path id="Vector" d="M686.79 408.245H86.4733C82.3753 408.24 78.4466 406.605 75.5489 403.699C72.6512 400.793 71.0212 396.853 71.0166 392.743V21.5083C71.0199 18.4974 72.214 15.6108 74.3368 13.4818C76.4597 11.3527 79.3379 10.1551 82.3401 10.1516H690.728C693.782 10.1551 696.71 11.3734 698.869 13.5393C701.029 15.7051 702.244 18.6417 702.247 21.7046V392.743C702.242 396.853 700.612 400.793 697.715 403.699C694.817 406.605 690.888 408.24 686.79 408.245Z" fill="#F2F2F2"/>
<path id="Vector_2" d="M664.892 389.111H105.412C97.2103 389.111 90.5381 382.844 90.5381 375.142V51.8661C90.5381 46.1541 95.4824 41.5067 101.56 41.5067H668.561C674.739 41.5067 679.765 46.2307 679.765 52.0368V375.142C679.765 382.844 673.093 389.111 664.892 389.111Z" fill="white"/>
<path id="Vector_3" d="M702.032 23.44H70.7998V15.548C70.8057 11.4246 72.4424 7.4719 75.3506 4.55709C78.2588 1.64229 82.2011 0.00340416 86.3127 0H686.519C690.631 0.00338431 694.573 1.64225 697.481 4.55707C700.389 7.47188 702.026 11.4246 702.032 15.548V23.44Z" fill="#0D0C0C"/>
<path id="Vector_4" d="M98.9921 15.7675C101.208 15.7675 103.005 13.9659 103.005 11.7434C103.005 9.52091 101.208 7.71924 98.9921 7.71924C96.776 7.71924 94.9795 9.52091 94.9795 11.7434C94.9795 13.9659 96.776 15.7675 98.9921 15.7675Z" fill="white"/>
<path id="Vector_5" d="M114.224 15.7675C116.44 15.7675 118.236 13.9659 118.236 11.7434C118.236 9.52091 116.44 7.71924 114.224 7.71924C112.007 7.71924 110.211 9.52091 110.211 11.7434C110.211 13.9659 112.007 15.7675 114.224 15.7675Z" fill="white"/>
<path id="Vector_6" d="M129.454 15.7675C131.67 15.7675 133.467 13.9659 133.467 11.7434C133.467 9.52091 131.67 7.71924 129.454 7.71924C127.238 7.71924 125.441 9.52091 125.441 11.7434C125.441 13.9659 127.238 15.7675 129.454 15.7675Z" fill="white"/>
<path id="Vector_7" d="M368.602 347.4H173.905C169.559 347.395 165.392 345.661 162.319 342.579C159.245 339.497 157.517 335.318 157.512 330.959V95.0073C157.515 91.7474 158.808 88.622 161.107 86.3169C163.405 84.0117 166.521 82.715 169.772 82.7112H372.539C375.841 82.715 379.007 84.0324 381.343 86.3744C383.678 88.7163 384.991 91.8916 384.995 95.2037V330.959C384.99 335.318 383.261 339.497 380.188 342.579C377.115 345.661 372.948 347.395 368.602 347.4ZM169.772 84.5901C167.018 84.5933 164.378 85.6918 162.431 87.6448C160.484 89.5977 159.388 92.2455 159.385 95.0073V330.959C159.39 334.82 160.921 338.521 163.643 341.251C166.365 343.981 170.056 345.516 173.905 345.521H368.602C372.451 345.516 376.142 343.981 378.864 341.251C381.586 338.521 383.117 334.82 383.122 330.959V95.2037C383.118 92.3898 382.002 89.6921 380.019 87.7023C378.035 85.7126 375.345 84.5933 372.539 84.5901H169.772Z" fill="#CCCCCC"/>
<path id="Vector_8" d="M188.894 330.959H353.613C357.589 330.959 361.401 329.375 364.212 326.556C367.023 323.737 368.602 319.914 368.602 315.927V114.366C368.602 110.379 367.023 106.556 364.212 103.737C361.401 100.918 357.589 99.3345 353.613 99.3345H188.894C184.918 99.3345 181.106 100.918 178.295 103.737C175.484 106.556 173.905 110.379 173.905 114.366V315.927C173.905 319.914 175.484 323.737 178.295 326.556C181.106 329.375 184.918 330.959 188.894 330.959Z" fill="#E6E6E6"/>
<path id="Vector_9" d="M316.687 140.459H225.82C224.206 140.459 222.657 139.815 221.515 138.67C220.373 137.525 219.731 135.972 219.731 134.352C219.731 132.733 220.373 131.18 221.515 130.034C222.657 128.889 224.206 128.246 225.82 128.246H316.687C318.302 128.246 319.851 128.889 320.993 130.034C322.134 131.18 322.776 132.733 322.776 134.352C322.776 135.972 322.134 137.525 320.993 138.67C319.851 139.815 318.302 140.459 316.687 140.459Z" fill="white"/>
<path id="Vector_10" d="M316.687 272.924H225.82C224.206 272.924 222.657 272.281 221.515 271.135C220.373 269.99 219.731 268.437 219.731 266.817C219.731 265.198 220.373 263.645 221.515 262.5C222.657 261.354 224.206 260.711 225.82 260.711H316.687C318.302 260.711 319.851 261.354 320.993 262.5C322.134 263.645 322.776 265.198 322.776 266.817C322.776 268.437 322.134 269.99 320.993 271.135C319.851 272.281 318.302 272.924 316.687 272.924Z" fill="white"/>
<path id="Vector_11" d="M316.687 302.048H225.82C224.206 302.048 222.657 301.404 221.515 300.259C220.373 299.114 219.731 297.561 219.731 295.941C219.731 294.321 220.373 292.768 221.515 291.623C222.657 290.478 224.206 289.834 225.82 289.834H316.687C318.302 289.834 319.851 290.478 320.993 291.623C322.134 292.768 322.776 294.321 322.776 295.941C322.776 297.561 322.134 299.114 320.993 300.259C319.851 301.404 318.302 302.048 316.687 302.048Z" fill="white"/>
<path id="Vector_12" d="M271.721 230.178C291.899 230.178 308.255 213.774 308.255 193.539C308.255 173.304 291.899 156.9 271.721 156.9C251.544 156.9 235.188 173.304 235.188 193.539C235.188 213.774 251.544 230.178 271.721 230.178Z" fill="white"/>
<path id="Vector_13" d="M506.742 159.965L490.783 163.341C490.642 163.37 490.511 163.432 490.398 163.521C490.285 163.61 490.193 163.724 490.131 163.854C490.069 163.984 490.038 164.127 490.039 164.271C490.041 164.415 490.076 164.557 490.141 164.685L491.628 167.623L419.455 204.363C419.345 204.419 419.248 204.496 419.168 204.59C419.088 204.684 419.027 204.792 418.989 204.909C418.95 205.027 418.936 205.15 418.945 205.273C418.955 205.396 418.988 205.516 419.044 205.626C419.1 205.736 419.176 205.834 419.27 205.914C419.363 205.995 419.471 206.056 419.588 206.094C419.705 206.132 419.829 206.147 419.951 206.138C420.074 206.128 420.193 206.094 420.303 206.039L492.476 169.299L493.963 172.237C494.028 172.365 494.122 172.477 494.237 172.564C494.352 172.65 494.485 172.709 494.626 172.735C494.767 172.762 494.913 172.755 495.051 172.716C495.189 172.677 495.317 172.607 495.424 172.511L507.562 161.583C507.715 161.445 507.819 161.26 507.857 161.057C507.895 160.853 507.864 160.643 507.771 160.459C507.678 160.274 507.526 160.126 507.34 160.037C507.154 159.947 506.944 159.922 506.742 159.965Z" fill="#E6E6E6"/>
<path id="Vector_14" d="M506.742 251.287L490.783 247.912C490.642 247.882 490.511 247.82 490.398 247.731C490.285 247.642 490.193 247.528 490.131 247.398C490.069 247.268 490.038 247.126 490.039 246.982C490.041 246.838 490.076 246.696 490.141 246.567L491.628 243.629L419.455 206.889C419.345 206.833 419.248 206.756 419.168 206.663C419.088 206.569 419.027 206.46 418.989 206.343C418.95 206.226 418.936 206.102 418.945 205.979C418.955 205.856 418.988 205.736 419.044 205.626C419.1 205.516 419.176 205.418 419.27 205.338C419.363 205.258 419.471 205.197 419.588 205.158C419.705 205.12 419.829 205.105 419.951 205.115C420.074 205.124 420.193 205.158 420.303 205.214L492.476 241.954L493.963 239.016C494.028 238.887 494.122 238.775 494.237 238.689C494.352 238.602 494.485 238.544 494.626 238.517C494.767 238.491 494.913 238.497 495.051 238.536C495.189 238.575 495.317 238.645 495.424 238.742L507.562 249.669C507.715 249.807 507.819 249.992 507.857 250.196C507.894 250.399 507.864 250.609 507.771 250.794C507.678 250.978 507.526 251.126 507.34 251.216C507.154 251.305 506.944 251.33 506.742 251.287Z" fill="#E6E6E6"/>
<path id="Vector_15" d="M559.346 180.872C555.27 180.872 551.286 179.66 547.897 177.389C544.507 175.118 541.866 171.89 540.306 168.113C538.746 164.336 538.338 160.181 539.133 156.171C539.929 152.162 541.891 148.479 544.774 145.589C547.656 142.698 551.328 140.73 555.326 139.932C559.323 139.135 563.467 139.544 567.233 141.109C570.999 142.673 574.217 145.322 576.482 148.721C578.746 152.12 579.955 156.116 579.955 160.204C579.949 165.683 577.776 170.937 573.912 174.812C570.048 178.686 564.81 180.866 559.346 180.872ZM559.346 141.414C555.641 141.414 552.018 142.516 548.937 144.581C545.856 146.645 543.455 149.58 542.037 153.013C540.619 156.447 540.248 160.224 540.971 163.869C541.694 167.514 543.478 170.862 546.098 173.49C548.718 176.117 552.057 177.907 555.691 178.632C559.325 179.357 563.092 178.985 566.516 177.563C569.939 176.141 572.865 173.732 574.924 170.642C576.983 167.553 578.082 163.92 578.082 160.204C578.076 155.222 576.1 150.446 572.588 146.924C569.076 143.401 564.313 141.42 559.346 141.414Z" fill="#E6E6E6"/>
<path id="Vector_16" d="M559.346 272C555.27 272 551.286 270.788 547.897 268.517C544.507 266.246 541.866 263.018 540.306 259.242C538.746 255.465 538.338 251.309 539.133 247.3C539.929 243.291 541.891 239.608 544.774 236.717C547.656 233.827 551.328 231.858 555.326 231.061C559.323 230.263 563.467 230.673 567.233 232.237C570.999 233.801 574.217 236.451 576.482 239.849C578.746 243.248 579.955 247.244 579.955 251.332C579.949 256.812 577.776 262.065 573.912 265.94C570.048 269.815 564.81 271.994 559.346 272ZM559.346 232.543C555.641 232.543 552.018 233.645 548.937 235.709C545.856 237.774 543.455 240.708 542.037 244.142C540.619 247.575 540.248 251.353 540.971 254.998C541.694 258.643 543.478 261.991 546.098 264.618C548.718 267.246 552.057 269.036 555.691 269.761C559.325 270.486 563.092 270.113 566.516 268.691C569.939 267.269 572.865 264.861 574.924 261.771C576.983 258.681 578.082 255.048 578.082 251.332C578.076 246.351 576.1 241.575 572.588 238.052C569.076 234.53 564.313 232.548 559.346 232.543Z" fill="#E6E6E6"/>
<path id="Path 395" d="M557.713 170.388C557.118 170.389 556.538 170.196 556.062 169.838L556.032 169.816L549.812 165.044C549.524 164.822 549.282 164.546 549.1 164.231C548.919 163.916 548.801 163.568 548.753 163.207C548.706 162.846 548.73 162.479 548.823 162.127C548.917 161.776 549.079 161.446 549.3 161.157C549.521 160.868 549.796 160.626 550.111 160.443C550.425 160.261 550.772 160.143 551.132 160.095C551.492 160.048 551.857 160.072 552.208 160.166C552.559 160.26 552.887 160.422 553.175 160.644L557.204 163.742L566.725 151.286C566.946 150.997 567.221 150.754 567.535 150.572C567.85 150.39 568.196 150.272 568.556 150.224C568.916 150.177 569.281 150.201 569.632 150.295C569.982 150.389 570.311 150.551 570.599 150.772L570.6 150.773L570.541 150.855L570.601 150.773C571.182 151.221 571.562 151.881 571.658 152.61C571.754 153.338 571.558 154.075 571.113 154.659L559.914 169.304C559.655 169.641 559.322 169.914 558.941 170.102C558.559 170.289 558.14 170.386 557.716 170.385L557.713 170.388Z" fill="#E6E6E6"/>
<path id="Vector_17" d="M550.404 260.3C550.273 260.169 550.17 260.014 550.099 259.843C550.029 259.672 549.992 259.489 549.992 259.304C549.992 259.119 550.029 258.936 550.099 258.765C550.17 258.594 550.273 258.438 550.404 258.307L566.301 242.364C566.565 242.1 566.922 241.952 567.295 241.952C567.667 241.952 568.024 242.1 568.288 242.365C568.551 242.629 568.699 242.987 568.699 243.361C568.7 243.734 568.552 244.093 568.288 244.357L552.391 260.3C552.26 260.431 552.106 260.535 551.935 260.606C551.765 260.677 551.582 260.713 551.397 260.713C551.213 260.713 551.03 260.677 550.86 260.606C550.689 260.535 550.534 260.431 550.404 260.3Z" fill="#E6E6E6"/>
<path id="Vector_18" d="M567.352 260.3C567.483 260.169 567.586 260.014 567.657 259.843C567.728 259.672 567.764 259.489 567.764 259.304C567.764 259.119 567.728 258.936 567.657 258.765C567.586 258.594 567.483 258.438 567.352 258.307L551.455 242.364C551.191 242.1 550.834 241.952 550.461 241.952C550.089 241.952 549.732 242.1 549.468 242.365C549.205 242.629 549.057 242.987 549.057 243.361C549.057 243.734 549.204 244.093 549.468 244.357L565.365 260.3C565.496 260.431 565.651 260.535 565.821 260.606C565.991 260.677 566.174 260.713 566.359 260.713C566.543 260.713 566.726 260.677 566.896 260.606C567.067 260.535 567.222 260.431 567.352 260.3Z" fill="#E6E6E6"/>
<path id="Vector_19" d="M594.932 206.382C594.872 206.382 594.811 206.377 594.75 206.368C594.588 206.345 594.433 206.29 594.292 206.206C594.152 206.122 594.029 206.011 593.932 205.879L586.274 195.581C586.241 195.537 586.198 195.503 586.148 195.481C586.098 195.46 586.044 195.452 585.99 195.458C585.936 195.464 585.885 195.485 585.841 195.517C585.798 195.55 585.764 195.593 585.742 195.643L581.816 204.856C581.714 205.096 581.539 205.298 581.317 205.433C581.095 205.569 580.836 205.631 580.577 205.611C580.317 205.591 580.071 205.491 579.871 205.323C579.672 205.156 579.53 204.93 579.465 204.678L571.629 174.263C571.568 174.022 571.578 173.769 571.661 173.535C571.743 173.301 571.893 173.097 572.091 172.949C572.289 172.801 572.527 172.715 572.774 172.703C573.021 172.691 573.266 172.752 573.478 172.881L600.307 189.091C600.53 189.226 600.705 189.427 600.808 189.666C600.911 189.905 600.937 190.171 600.882 190.426C600.827 190.681 600.693 190.912 600.501 191.087C600.308 191.262 600.065 191.372 599.807 191.402L589.885 192.546C589.832 192.552 589.78 192.573 589.737 192.605C589.693 192.638 589.659 192.681 589.637 192.731C589.616 192.781 589.608 192.836 589.614 192.89C589.62 192.944 589.641 192.995 589.673 193.039L597.331 203.337C597.528 203.602 597.612 203.936 597.564 204.263C597.517 204.591 597.341 204.887 597.077 205.085L595.674 206.134C595.46 206.295 595.2 206.382 594.932 206.382Z" fill="#0D0C0C"/>
<path id="Vector_20" d="M638.503 228.785H604.78C602.295 228.785 599.913 227.795 598.156 226.033C596.399 224.271 595.412 221.882 595.412 219.39C595.412 216.899 596.399 214.509 598.156 212.747C599.913 210.985 602.295 209.996 604.78 209.996H638.503C640.988 209.996 643.371 210.985 645.127 212.747C646.884 214.509 647.871 216.899 647.871 219.39C647.871 221.882 646.884 224.271 645.127 226.033C643.371 227.795 640.988 228.785 638.503 228.785Z" fill="#0D0C0C"/>
<path id="Vector_21" d="M229.81 163.857L228.408 162.809C228.143 162.61 227.968 162.315 227.92 161.987C227.873 161.66 227.957 161.326 228.154 161.06L235.811 150.763C235.844 150.719 235.864 150.668 235.87 150.613C235.877 150.559 235.869 150.505 235.847 150.455C235.826 150.405 235.791 150.361 235.748 150.329C235.704 150.296 235.653 150.276 235.599 150.27L225.677 149.125C225.419 149.096 225.177 148.986 224.984 148.811C224.791 148.636 224.658 148.404 224.603 148.15C224.547 147.895 224.573 147.629 224.676 147.39C224.779 147.15 224.954 146.949 225.177 146.815L252.006 130.604C252.218 130.476 252.463 130.414 252.71 130.427C252.957 130.439 253.195 130.524 253.394 130.673C253.592 130.821 253.742 131.025 253.824 131.259C253.906 131.493 253.917 131.746 253.855 131.986L246.02 162.402C245.955 162.654 245.812 162.88 245.613 163.047C245.414 163.215 245.167 163.315 244.908 163.335C244.648 163.355 244.39 163.292 244.167 163.157C243.945 163.022 243.771 162.82 243.669 162.58L239.742 153.367C239.721 153.317 239.686 153.274 239.643 153.241C239.599 153.209 239.548 153.188 239.494 153.182C239.441 153.175 239.386 153.183 239.336 153.205C239.286 153.226 239.243 153.261 239.211 153.304L231.553 163.603C231.455 163.735 231.333 163.846 231.192 163.93C231.052 164.014 230.896 164.069 230.734 164.092C230.674 164.101 230.613 164.105 230.552 164.106C230.284 164.105 230.024 164.018 229.81 163.857Z" fill="#3F3D56"/>
<path id="Vector_22" d="M177.613 177.114C177.616 174.623 178.604 172.235 180.36 170.474C182.116 168.713 184.497 167.722 186.981 167.719H220.705C223.189 167.719 225.572 168.709 227.329 170.471C229.085 172.233 230.072 174.622 230.072 177.114C230.072 179.606 229.085 181.995 227.329 183.757C225.572 185.519 223.189 186.509 220.705 186.509H186.981C184.497 186.506 182.116 185.515 180.36 183.754C178.604 181.993 177.616 179.605 177.613 177.114Z" fill="#3F3D56"/>
<path id="Vector_23" d="M677.612 347.412C678.627 346.479 679.426 345.334 679.952 344.057C680.478 342.781 680.718 341.404 680.656 340.025C680.594 338.645 680.232 337.296 679.594 336.072C678.955 334.848 678.058 333.779 676.963 332.941L687.436 301.054L670.647 305.62L663.275 335.2C661.993 337.137 661.464 339.479 661.788 341.782C662.113 344.084 663.268 346.187 665.035 347.692C666.802 349.198 669.059 350.001 671.377 349.949C673.695 349.897 675.913 348.995 677.612 347.412Z" fill="#A0616A"/>
<path id="Vector_24" d="M778.317 345.533C777.302 344.6 776.504 343.455 775.978 342.178C775.452 340.902 775.211 339.526 775.273 338.146C775.335 336.766 775.697 335.417 776.336 334.193C776.974 332.969 777.872 331.9 778.966 331.062L768.493 299.176L785.282 303.741L792.654 333.321C793.936 335.259 794.465 337.6 794.141 339.903C793.816 342.205 792.661 344.308 790.894 345.813C789.127 347.319 786.871 348.122 784.553 348.07C782.235 348.018 780.016 347.116 778.317 345.533Z" fill="#A0616A"/>
<path id="Vector_25" d="M729.108 186.249C741.815 186.249 752.116 175.919 752.116 163.175C752.116 150.431 741.815 140.101 729.108 140.101C716.401 140.101 706.1 150.431 706.1 163.175C706.1 175.919 716.401 186.249 729.108 186.249Z" fill="#A0616A"/>
<path id="Vector_26" d="M707.389 493.559H695.906L690.441 449.133H707.392L707.389 493.559Z" fill="#A0616A"/>
<path id="Vector_27" d="M710.318 504.724L673.287 504.722V504.253C673.287 502.354 673.66 500.475 674.384 498.721C675.109 496.967 676.17 495.374 677.509 494.031C678.847 492.689 680.436 491.624 682.185 490.898C683.934 490.172 685.808 489.798 687.701 489.798L710.319 489.799L710.318 504.724Z" fill="#2F2E41"/>
<path id="Vector_28" d="M746.733 493.559H735.249L729.785 449.133H746.736L746.733 493.559Z" fill="#A0616A"/>
<path id="Vector_29" d="M749.663 504.724L712.632 504.722V504.253C712.632 502.354 713.005 500.475 713.729 498.721C714.453 496.967 715.515 495.374 716.853 494.031C718.192 492.689 719.781 491.624 721.53 490.898C723.278 490.172 725.153 489.798 727.045 489.798L749.663 489.799L749.663 504.724Z" fill="#2F2E41"/>
<path id="Vector_30" d="M707.202 480.574L693.712 480.536C693.134 480.61 692.547 480.562 691.988 480.393C691.43 480.225 690.913 479.941 690.472 479.559C690.02 479.173 689.655 478.695 689.401 478.158C689.146 477.62 689.007 477.035 688.993 476.44L690.547 326.711L752.801 326.087L749.19 475.336C749.17 476.442 748.716 477.494 747.927 478.267C747.138 479.039 746.078 479.468 744.976 479.462H731.065C729.974 479.465 728.924 479.043 728.137 478.283C727.351 477.524 726.89 476.487 726.852 475.393L723.486 385.815C723.487 385.755 723.475 385.695 723.452 385.639C723.429 385.583 723.395 385.532 723.352 385.49C723.309 385.447 723.258 385.414 723.201 385.393C723.145 385.371 723.085 385.361 723.025 385.363C722.904 385.359 722.787 385.403 722.698 385.485C722.61 385.567 722.557 385.681 722.551 385.801L710.836 476.699C710.764 477.664 710.363 478.575 709.702 479.281C709.041 479.986 708.159 480.442 707.202 480.574Z" fill="#2F2E41"/>
<path id="Vector_31" d="M718.816 336.911C709.618 336.911 699.897 335.263 691.123 330.445C690.467 330.085 689.916 329.558 689.528 328.917C689.139 328.276 688.926 327.544 688.91 326.794L687.684 258.458L685.957 243.836C684.921 235.138 686.466 226.327 690.398 218.505C694.33 210.683 700.475 204.198 708.063 199.86L708.861 199.404L711.107 194.146C711.29 193.711 711.6 193.343 711.996 193.089C712.393 192.835 712.856 192.707 713.326 192.724L743.53 193.589C744.01 193.604 744.474 193.766 744.859 194.053C745.244 194.34 745.532 194.738 745.685 195.194L747.088 199.416C754.84 203.878 761.061 210.592 764.931 218.673C768.8 226.753 770.137 235.82 768.764 244.678L756.383 326.852C756.272 327.592 755.967 328.288 755.5 328.871C755.032 329.454 754.419 329.902 753.723 330.169C748.244 332.256 734.271 336.911 718.816 336.911Z" fill="#3F3D56"/>
<path id="Vector_32" d="M777.84 327.645C777.367 327.644 776.905 327.501 776.515 327.233C776.124 326.965 775.823 326.585 775.651 326.143L760.315 286.334L747.772 224.313C747.298 221.973 747.518 219.545 748.405 217.329C749.291 215.113 750.805 213.206 752.76 211.843C754.449 210.665 756.408 209.934 758.454 209.719C760.5 209.504 762.567 209.811 764.462 210.613C766.358 211.414 768.021 212.683 769.296 214.302C770.571 215.922 771.417 217.838 771.755 219.873L775.265 240.993L792.671 321.841C792.798 322.442 792.686 323.069 792.358 323.589C792.031 324.108 791.514 324.479 790.918 324.622L778.372 327.583C778.198 327.624 778.019 327.645 777.84 327.645Z" fill="#3F3D56"/>
<path id="Vector_33" d="M679.026 327.645C678.846 327.645 678.667 327.624 678.493 327.583L665.947 324.622C665.351 324.479 664.835 324.108 664.507 323.589C664.18 323.069 664.068 322.442 664.194 321.841L681.605 240.971L685.111 219.873C685.449 217.838 686.295 215.922 687.57 214.303C688.845 212.683 690.508 211.414 692.403 210.613C694.299 209.811 696.366 209.504 698.412 209.719C700.458 209.934 702.417 210.665 704.105 211.843C706.06 213.206 707.575 215.113 708.461 217.329C709.348 219.545 709.567 221.973 709.093 224.313L696.573 286.258L681.214 326.144C681.042 326.586 680.741 326.965 680.351 327.233C679.96 327.501 679.499 327.644 679.026 327.645Z" fill="#3F3D56"/>
<path id="Vector_34" d="M747.016 185.187C744.886 186.417 736.466 187.232 735.866 184.841L735.853 184.789C735.435 183.038 735.782 181.209 735.902 179.412C736.022 177.615 735.847 175.642 734.626 174.321C732.352 171.858 728.306 173.164 725.017 172.541C723.09 172.11 721.386 170.989 720.224 169.389C719.062 167.789 718.521 165.819 718.703 163.848C718.75 163.475 718.823 163.101 718.905 162.727C719.111 161.781 719.095 160.799 718.859 159.86C718.623 158.92 718.173 158.048 717.544 157.313C716.915 156.577 716.125 155.998 715.235 155.62C714.346 155.242 713.381 155.076 712.417 155.135C709.093 155.326 705.505 156.336 702.755 153.867C700.629 151.958 700.11 146.988 701.044 144.283C702.614 139.737 712.673 137.358 717.065 136.05C722.496 134.476 728.209 134.136 733.788 135.054C739.368 135.972 744.673 138.125 749.318 141.357C752.092 143.318 754.682 145.782 755.865 148.972C757.047 152.163 756.477 156.188 753.811 158.294C755.877 160.488 757.332 163.189 758.031 166.125C758.729 169.061 758.645 172.129 757.788 175.022C756.472 179.278 750.187 183.357 747.016 185.187Z" fill="#2F2E41"/>
<path id="Vector_35" d="M106.388 312.946C105.017 312.808 103.694 312.37 102.511 311.664C101.328 310.957 100.313 309.999 99.5392 308.856C98.7651 307.714 98.2502 306.416 98.0308 305.052C97.8113 303.689 97.8926 302.294 98.2689 300.965L70.8457 281.712L87.0193 275.289L110.581 294.557C112.765 295.339 114.586 296.897 115.701 298.936C116.816 300.975 117.146 303.353 116.629 305.619C116.112 307.886 114.784 309.884 112.896 311.234C111.009 312.585 108.693 313.194 106.388 312.946Z" fill="#FFB8B8"/>
<path id="Vector_36" d="M91.496 298.311L66.6613 283.866C64.1661 282.451 61.9917 280.532 60.2762 278.229C58.5607 275.926 57.3417 273.291 56.6967 270.49C56.1143 267.84 56.0794 265.099 56.5944 262.435C57.1094 259.771 58.1632 257.241 59.6909 255.002L80.2495 224.59C81.7037 222.438 83.9149 220.917 86.44 220.332C88.9652 219.746 91.6177 220.139 93.8662 221.432C96.1147 222.725 97.793 224.822 98.5649 227.303C99.3367 229.784 99.1451 232.467 98.0284 234.812L81.975 268.544L98.2377 282.905C98.8 283.402 99.2201 284.041 99.4547 284.755C99.6894 285.469 99.7301 286.233 99.5728 286.968L97.7317 295.543C97.5952 296.196 97.3047 296.807 96.8846 297.325C96.4644 297.843 95.9268 298.252 95.3167 298.519C94.7094 298.793 94.0457 298.916 93.3811 298.88C92.7164 298.844 92.0701 298.649 91.496 298.311Z" fill="#3F3D56"/>
<path id="Vector_37" d="M204.023 230.734C203.606 232.05 202.907 233.259 201.974 234.275C201.041 235.291 199.897 236.089 198.624 236.614C197.35 237.139 195.977 237.377 194.601 237.312C193.225 237.247 191.881 236.88 190.662 236.238L166.234 259.192L163.293 241.998L186.941 222.836C188.153 220.854 190.048 219.386 192.267 218.712C194.485 218.037 196.874 218.202 198.98 219.176C201.085 220.149 202.762 221.863 203.691 223.994C204.621 226.124 204.739 228.522 204.023 230.734Z" fill="#FFB8B8"/>
<path id="Vector_38" d="M103.974 200.6C116.681 200.6 126.982 190.27 126.982 177.526C126.982 164.782 116.681 154.452 103.974 154.452C91.2668 154.452 80.9658 164.782 80.9658 177.526C80.9658 190.27 91.2668 200.6 103.974 200.6Z" fill="#FFB8B8"/>
<path id="Vector_39" d="M171.717 493.185L182.725 489.901L175.33 445.757L159.084 450.605L171.717 493.185Z" fill="#FFB8B8"/>
<path id="Vector_40" d="M167.84 490.419L189.518 483.95C191.332 483.409 193.236 483.231 195.118 483.427C197.001 483.623 198.827 484.189 200.491 485.093C202.156 485.997 203.626 487.22 204.819 488.694C206.012 490.168 206.904 491.863 207.444 493.683L207.577 494.133L172.084 504.724L167.84 490.419Z" fill="#2F2E41"/>
<path id="Vector_41" d="M51.1191 492.62H62.603L68.0672 448.194H56.7379L51.1191 492.62Z" fill="#FFB8B8"/>
<path id="Vector_42" d="M48.1895 488.859L70.8066 488.858H70.8075C72.7003 488.858 74.5746 489.232 76.3234 489.959C78.0721 490.685 79.6611 491.75 80.9995 493.092C82.3379 494.434 83.3996 496.028 84.124 497.781C84.8483 499.535 85.2211 501.415 85.2211 503.313V503.783L48.1902 503.784L48.1895 488.859Z" fill="#2F2E41"/>
<path id="Vector_43" d="M163.5 477.285L120.422 352.967C120.331 352.694 120.158 352.456 119.926 352.286C119.693 352.116 119.414 352.024 119.127 352.021C118.839 352.005 118.553 352.083 118.313 352.242C118.072 352.402 117.889 352.635 117.79 352.907L68.1518 477.356C67.8284 478.175 67.2571 478.871 66.5182 479.347C65.7793 479.823 64.9102 480.054 64.0333 480.008L51.0773 479.378C50.4534 479.348 49.8441 479.179 49.2933 478.883C48.7425 478.588 48.2641 478.173 47.8927 477.67C47.5213 477.166 47.2661 476.586 47.1456 475.971C47.0251 475.357 47.0423 474.723 47.196 474.116L94.1496 288.529L141.257 284.674L141.565 285.119C141.819 285.488 167.024 322.7 167.009 386.948L183.159 475.132C183.271 475.742 183.248 476.369 183.091 476.968C182.934 477.568 182.648 478.126 182.252 478.602C181.857 479.078 181.361 479.461 180.802 479.725C180.242 479.988 179.632 480.124 179.013 480.124H167.482C166.607 480.124 165.753 479.85 165.04 479.341C164.326 478.832 163.788 478.114 163.5 477.285Z" fill="#2F2E41"/>
<path id="Vector_44" d="M77.3589 246.435C75.7015 241.675 75.2924 236.569 76.1708 231.605C77.0492 226.642 79.1856 221.988 82.3748 218.092C85.4898 214.217 89.5458 211.211 94.1531 209.362C98.7605 207.513 103.765 206.883 108.685 207.532C109.075 207.584 109.463 207.637 109.849 207.691C116.112 208.539 121.933 211.395 126.445 215.834C130.956 220.272 133.915 226.055 134.881 232.319L143.678 288.433L93.5231 292.229L93.1632 292.256L77.3589 246.435Z" fill="#3F3D56"/>
<path id="Vector_45" d="M150.548 269.204C147.803 269.11 145.108 268.444 142.634 267.249C140.16 266.054 137.961 264.356 136.176 262.262L112.451 234.68C110.61 232.612 109.647 229.905 109.767 227.136C109.841 225.688 110.222 224.273 110.884 222.985C111.546 221.696 112.474 220.564 113.607 219.663C115.477 218.166 117.808 217.37 120.2 217.41C122.592 217.451 124.895 218.326 126.713 219.885L155.008 244.204L172.415 232.06C173.039 231.624 173.77 231.366 174.529 231.313C175.288 231.26 176.047 231.414 176.726 231.759L185.057 235.989C185.652 236.291 186.168 236.731 186.561 237.272C186.953 237.813 187.212 238.44 187.317 239.101C187.421 239.762 187.367 240.439 187.159 241.075C186.952 241.711 186.597 242.289 186.123 242.76L165.408 263.393C163.562 265.244 161.37 266.712 158.957 267.712C156.543 268.711 153.957 269.223 151.346 269.219C151.081 269.219 150.815 269.214 150.548 269.204Z" fill="#3F3D56"/>
<path id="Vector_46" d="M121.469 171.763C124.334 172.878 127.353 173.544 130.419 173.738C133.504 173.777 136.783 172.706 138.471 170.35C139.118 169.32 139.537 168.163 139.696 166.957C139.856 165.75 139.754 164.524 139.397 163.361C138.758 161.003 137.608 158.816 136.029 156.955C134.45 155.094 132.48 153.606 130.262 152.597C127.93 151.536 125.413 150.948 122.854 150.865C120.295 150.783 117.745 151.208 115.351 152.116C113.619 146.838 107.099 143.966 101.064 143.803C88.7368 143.471 77.7142 151.901 72.3582 162.038C67.0021 172.175 66.2196 183.761 65.8866 195.011C65.8054 197.754 65.7714 200.615 67.0672 203.091C68.9968 206.779 73.3816 208.766 77.5145 210.341C88.3524 214.464 99.5334 217.616 110.926 219.76C105.456 216.253 103.721 208.706 107.186 203.489C108.881 200.936 111.665 198.812 112.115 195.855C112.655 192.311 109.64 189.211 108.524 185.78C107.96 183.923 107.935 181.943 108.451 180.072C108.966 178.2 110.002 176.515 111.437 175.211C112.998 173.851 114.866 172.89 116.878 172.411C118.891 171.933 120.99 171.95 122.994 172.463" fill="#2F2E41"/>
<path id="Vector_47" d="M233.255 504.989H0.936768C0.688322 504.989 0.45005 504.89 0.274372 504.714C0.0986942 504.538 0 504.299 0 504.05C0 503.8 0.0986942 503.561 0.274372 503.385C0.45005 503.209 0.688322 503.11 0.936768 503.11H233.255C233.504 503.11 233.742 503.209 233.918 503.385C234.093 503.561 234.192 503.8 234.192 504.05C234.192 504.299 234.093 504.538 233.918 504.714C233.742 504.89 233.504 504.989 233.255 504.989Z" fill="#CCCCCC"/>
<path id="Vector_48" d="M799.063 504.989H634.192C633.943 504.989 633.705 504.89 633.529 504.714C633.354 504.538 633.255 504.299 633.255 504.05C633.255 503.8 633.354 503.561 633.529 503.385C633.705 503.209 633.943 503.11 634.192 503.11H799.063C799.311 503.11 799.55 503.209 799.725 503.385C799.901 503.561 800 503.8 800 504.05C800 504.299 799.901 504.538 799.725 504.714C799.55 504.89 799.311 504.989 799.063 504.989Z" fill="#CCCCCC"/>
</g>
<defs>
<clipPath id="clip0_251_76">
<rect width="800" height="504.989" fill="white"/>
</clipPath>
</defs>
</svg>
