<svg width="800" height="583" viewBox="0 0 800 583" fill="none" xmlns="http://www.w3.org/2000/svg">
<g id="developing 1" clip-path="url(#clip0_251_126)">
<path id="Vector" d="M465.999 141.856C480.992 141.856 493.147 129.69 493.147 114.684C493.147 99.6773 480.992 87.5121 465.999 87.5121C451.005 87.5121 438.851 99.6773 438.851 114.684C438.851 129.69 451.005 141.856 465.999 141.856Z" fill="#F2F2F2"/>
<path id="Vector_2" d="M676.594 544.221C716.947 513.459 736.22 461.767 724.154 412.455C723.854 411.23 723.538 410.007 723.205 408.788C715.206 379.517 695.415 351.697 666.572 342.344C642.353 334.491 615.918 340.53 590.652 337.407C541.053 331.277 502.6 291.111 475.544 249.056C448.488 207.002 427.694 159.928 391.742 125.185C332.481 67.9169 235.811 55.587 162.336 92.8643C88.8606 130.142 42.0576 212.845 44.0536 295.268C46.0497 377.692 94.9382 456.495 165.937 498.305C192.018 513.664 222.185 524.545 252.206 520.738C278.255 517.434 301.924 503.425 327.851 499.266C368.614 492.727 409.117 511.173 444.373 532.669C479.63 554.164 513.685 579.643 553.75 589.608C592.652 599.284 640.848 571.472 676.594 544.221Z" fill="#F2F2F2"/>
<path id="Vector_3" d="M618.618 96.0741C617.733 95.4839 616.838 94.9242 615.954 94.3543C590.383 77.9863 562.976 64.6891 534.298 54.7375L527.649 146.549H485.494V41.3352C482.841 40.7857 480.167 40.2667 477.493 39.7782V146.549H427.397C399.819 146.549 373.371 135.584 353.87 116.067C334.37 96.5489 323.414 70.0772 323.414 42.4751C320.73 43.0551 318.066 43.6758 315.402 44.3373V146.549H274.6L268.266 59.0015C238.795 70.3139 210.816 85.1902 184.953 103.299C184.506 103.605 184.058 103.92 183.621 104.225C181.374 105.803 179.158 107.411 176.951 109.039V459.301H297.202L295.077 429.84L283.385 268.086H518.854L507.161 429.84L505.036 459.301H623.956V99.6155C622.186 98.4147 620.407 97.2343 618.618 96.0741ZM315.402 241.373H281.453L275.18 154.568H315.402V241.373ZM477.493 241.373H420.473V239.653C420.473 238.826 420.31 238.008 419.994 237.244C419.678 236.48 419.214 235.787 418.629 235.202C418.045 234.618 417.351 234.155 416.587 233.84C415.824 233.524 415.006 233.363 414.18 233.364H389.391C388.566 233.364 387.749 233.526 386.986 233.842C386.224 234.158 385.531 234.621 384.947 235.205C384.364 235.789 383.901 236.483 383.585 237.246C383.27 238.009 383.107 238.827 383.108 239.653V241.373H323.414V154.568H477.493V241.373ZM485.494 241.373V154.568H527.069L520.796 241.373H485.494Z" fill="#3F3D56"/>
<path id="Vector_4" d="M0 480.521C8.83277 490.996 18.3864 500.84 28.5911 509.981L771.409 510.999C781.614 501.858 791.167 492.013 800 481.538L0 480.521Z" fill="#3F3D56"/>
<path id="Vector_5" d="M503.729 386.058V473.274C503.73 474.385 504.172 475.451 504.957 476.237C505.742 477.023 506.807 477.465 507.918 477.466H637.049C638.16 477.465 639.225 477.023 640.01 476.237C640.795 475.451 641.237 474.385 641.238 473.274V386.058C641.235 384.947 640.793 383.883 640.008 383.098C639.223 382.314 638.159 381.872 637.049 381.871H507.918C506.808 381.872 505.744 382.314 504.959 383.099C504.174 383.883 503.732 384.947 503.729 386.058Z" fill="#3F3D56"/>
<path id="Vector_6" d="M506.758 387.298V472.353C506.759 472.947 506.995 473.516 507.415 473.936C507.834 474.356 508.403 474.592 508.996 474.593H635.974C636.567 474.592 637.136 474.356 637.555 473.936C637.975 473.516 638.211 472.947 638.212 472.353V387.298C638.212 386.703 637.976 386.133 637.556 385.712C637.137 385.291 636.568 385.054 635.974 385.053H508.996C508.402 385.054 507.833 385.291 507.413 385.712C506.994 386.133 506.758 386.703 506.758 387.298Z" fill="#0D0C0C"/>
<path id="Vector_7" d="M501.028 490.094C501.265 490.391 501.565 490.631 501.908 490.795C502.25 490.958 502.625 491.043 503.004 491.041H641.274C641.652 491.04 642.026 490.955 642.367 490.792C642.708 490.629 643.009 490.392 643.247 490.098C643.485 489.804 643.655 489.461 643.744 489.093C643.833 488.725 643.839 488.342 643.761 487.972L641.615 477.768C641.526 477.352 641.334 476.964 641.058 476.641C640.781 476.318 640.428 476.069 640.031 475.918C639.743 475.805 639.437 475.747 639.128 475.747H505.142C504.833 475.747 504.527 475.805 504.239 475.918C503.842 476.069 503.489 476.318 503.212 476.641C502.935 476.964 502.744 477.352 502.655 477.768L500.509 487.972C500.432 488.342 500.439 488.725 500.529 489.092C500.619 489.459 500.789 489.801 501.028 490.094Z" fill="#2F2E41"/>
<path id="Vector_8" d="M634.383 480.521H637.649C637.923 480.521 638.146 480.298 638.146 480.024V478.46C638.146 478.186 637.923 477.963 637.649 477.963H634.383C634.109 477.963 633.887 478.186 633.887 478.46V480.024C633.887 480.298 634.109 480.521 634.383 480.521Z" fill="#3F3D56"/>
<path id="Vector_9" d="M625.867 480.521H629.133C629.407 480.521 629.629 480.298 629.629 480.024V478.46C629.629 478.186 629.407 477.963 629.133 477.963H625.867C625.592 477.963 625.37 478.186 625.37 478.46V480.024C625.37 480.298 625.592 480.521 625.867 480.521Z" fill="#3F3D56"/>
<path id="Vector_10" d="M617.349 480.521H620.615C620.889 480.521 621.111 480.298 621.111 480.024V478.46C621.111 478.186 620.889 477.963 620.615 477.963H617.349C617.075 477.963 616.853 478.186 616.853 478.46V480.024C616.853 480.298 617.075 480.521 617.349 480.521Z" fill="#3F3D56"/>
<path id="Vector_11" d="M608.831 480.521H612.097C612.371 480.521 612.594 480.298 612.594 480.024V478.46C612.594 478.186 612.371 477.963 612.097 477.963H608.831C608.557 477.963 608.335 478.186 608.335 478.46V480.024C608.335 480.298 608.557 480.521 608.831 480.521Z" fill="#3F3D56"/>
<path id="Vector_12" d="M600.314 480.521H603.58C603.854 480.521 604.076 480.298 604.076 480.024V478.46C604.076 478.186 603.854 477.963 603.58 477.963H600.314C600.04 477.963 599.818 478.186 599.818 478.46V480.024C599.818 480.298 600.04 480.521 600.314 480.521Z" fill="#3F3D56"/>
<path id="Vector_13" d="M591.797 480.521H595.063C595.337 480.521 595.56 480.298 595.56 480.024V478.46C595.56 478.186 595.337 477.963 595.063 477.963H591.797C591.523 477.963 591.301 478.186 591.301 478.46V480.024C591.301 480.298 591.523 480.521 591.797 480.521Z" fill="#3F3D56"/>
<path id="Vector_14" d="M583.28 480.521H586.546C586.82 480.521 587.042 480.298 587.042 480.024V478.46C587.042 478.186 586.82 477.963 586.546 477.963H583.28C583.006 477.963 582.783 478.186 582.783 478.46V480.024C582.783 480.298 583.006 480.521 583.28 480.521Z" fill="#3F3D56"/>
<path id="Vector_15" d="M574.763 480.521H578.029C578.303 480.521 578.525 480.298 578.525 480.024V478.46C578.525 478.186 578.303 477.963 578.029 477.963H574.763C574.489 477.963 574.267 478.186 574.267 478.46V480.024C574.267 480.298 574.489 480.521 574.763 480.521Z" fill="#3F3D56"/>
<path id="Vector_16" d="M566.245 480.521H569.51C569.785 480.521 570.007 480.298 570.007 480.024V478.46C570.007 478.186 569.785 477.963 569.51 477.963H566.245C565.97 477.963 565.748 478.186 565.748 478.46V480.024C565.748 480.298 565.97 480.521 566.245 480.521Z" fill="#3F3D56"/>
<path id="Vector_17" d="M557.727 480.521H560.993C561.267 480.521 561.489 480.298 561.489 480.024V478.46C561.489 478.186 561.267 477.963 560.993 477.963H557.727C557.453 477.963 557.231 478.186 557.231 478.46V480.024C557.231 480.298 557.453 480.521 557.727 480.521Z" fill="#3F3D56"/>
<path id="Vector_18" d="M549.21 480.521H552.476C552.75 480.521 552.973 480.298 552.973 480.024V478.46C552.973 478.186 552.75 477.963 552.476 477.963H549.21C548.936 477.963 548.714 478.186 548.714 478.46V480.024C548.714 480.298 548.936 480.521 549.21 480.521Z" fill="#3F3D56"/>
<path id="Vector_19" d="M540.693 480.521H543.959C544.233 480.521 544.455 480.298 544.455 480.024V478.46C544.455 478.186 544.233 477.963 543.959 477.963H540.693C540.419 477.963 540.196 478.186 540.196 478.46V480.024C540.196 480.298 540.419 480.521 540.693 480.521Z" fill="#3F3D56"/>
<path id="Vector_20" d="M532.176 480.521H535.442C535.716 480.521 535.938 480.298 535.938 480.024V478.46C535.938 478.186 535.716 477.963 535.442 477.963H532.176C531.902 477.963 531.68 478.186 531.68 478.46V480.024C531.68 480.298 531.902 480.521 532.176 480.521Z" fill="#3F3D56"/>
<path id="Vector_21" d="M523.659 480.521H526.925C527.199 480.521 527.421 480.298 527.421 480.024V478.46C527.421 478.186 527.199 477.963 526.925 477.963H523.659C523.384 477.963 523.162 478.186 523.162 478.46V480.024C523.162 480.298 523.384 480.521 523.659 480.521Z" fill="#3F3D56"/>
<path id="Vector_22" d="M515.141 480.521H518.407C518.681 480.521 518.903 480.298 518.903 480.024V478.46C518.903 478.186 518.681 477.963 518.407 477.963H515.141C514.867 477.963 514.645 478.186 514.645 478.46V480.024C514.645 480.298 514.867 480.521 515.141 480.521Z" fill="#3F3D56"/>
<path id="Vector_23" d="M506.624 480.521H509.889C510.164 480.521 510.386 480.298 510.386 480.024V478.46C510.386 478.186 510.164 477.963 509.889 477.963H506.624C506.349 477.963 506.127 478.186 506.127 478.46V480.024C506.127 480.298 506.349 480.521 506.624 480.521Z" fill="#3F3D56"/>
<path id="Vector_24" d="M634.484 485.294H637.75C638.024 485.294 638.246 485.072 638.246 484.797V483.234C638.246 482.959 638.024 482.737 637.75 482.737H634.484C634.21 482.737 633.987 482.959 633.987 483.234V484.797C633.987 485.072 634.21 485.294 634.484 485.294Z" fill="#3F3D56"/>
<path id="Vector_25" d="M625.967 485.294H629.233C629.507 485.294 629.729 485.072 629.729 484.797V483.234C629.729 482.959 629.507 482.737 629.233 482.737H625.967C625.693 482.737 625.471 482.959 625.471 483.234V484.797C625.471 485.072 625.693 485.294 625.967 485.294Z" fill="#3F3D56"/>
<path id="Vector_26" d="M617.45 485.294H620.716C620.99 485.294 621.212 485.072 621.212 484.797V483.234C621.212 482.959 620.99 482.737 620.716 482.737H617.45C617.175 482.737 616.953 482.959 616.953 483.234V484.797C616.953 485.072 617.175 485.294 617.45 485.294Z" fill="#3F3D56"/>
<path id="Vector_27" d="M608.932 485.294H612.198C612.472 485.294 612.694 485.072 612.694 484.797V483.234C612.694 482.959 612.472 482.737 612.198 482.737H608.932C608.658 482.737 608.436 482.959 608.436 483.234V484.797C608.436 485.072 608.658 485.294 608.932 485.294Z" fill="#3F3D56"/>
<path id="Vector_28" d="M600.415 485.294H603.681C603.956 485.294 604.178 485.072 604.178 484.797V483.234C604.178 482.959 603.956 482.737 603.681 482.737H600.415C600.141 482.737 599.919 482.959 599.919 483.234V484.797C599.919 485.072 600.141 485.294 600.415 485.294Z" fill="#3F3D56"/>
<path id="Vector_29" d="M591.898 485.294H595.164C595.438 485.294 595.66 485.072 595.66 484.797V483.234C595.66 482.959 595.438 482.737 595.164 482.737H591.898C591.624 482.737 591.402 482.959 591.402 483.234V484.797C591.402 485.072 591.624 485.294 591.898 485.294Z" fill="#3F3D56"/>
<path id="Vector_30" d="M583.38 485.294H586.646C586.92 485.294 587.143 485.072 587.143 484.797V483.234C587.143 482.959 586.92 482.737 586.646 482.737H583.38C583.106 482.737 582.884 482.959 582.884 483.234V484.797C582.884 485.072 583.106 485.294 583.38 485.294Z" fill="#3F3D56"/>
<path id="Vector_31" d="M574.863 485.294H578.129C578.403 485.294 578.625 485.072 578.625 484.797V483.234C578.625 482.959 578.403 482.737 578.129 482.737H574.863C574.589 482.737 574.366 482.959 574.366 483.234V484.797C574.366 485.072 574.589 485.294 574.863 485.294Z" fill="#3F3D56"/>
<path id="Vector_32" d="M566.346 485.294H569.612C569.886 485.294 570.108 485.072 570.108 484.797V483.234C570.108 482.959 569.886 482.737 569.612 482.737H566.346C566.072 482.737 565.85 482.959 565.85 483.234V484.797C565.85 485.072 566.072 485.294 566.346 485.294Z" fill="#3F3D56"/>
<path id="Vector_33" d="M557.829 485.294H561.094C561.369 485.294 561.591 485.072 561.591 484.797V483.234C561.591 482.959 561.369 482.737 561.094 482.737H557.829C557.554 482.737 557.332 482.959 557.332 483.234V484.797C557.332 485.072 557.554 485.294 557.829 485.294Z" fill="#3F3D56"/>
<path id="Vector_34" d="M549.311 485.294H552.577C552.851 485.294 553.073 485.072 553.073 484.797V483.234C553.073 482.959 552.851 482.737 552.577 482.737H549.311C549.037 482.737 548.815 482.959 548.815 483.234V484.797C548.815 485.072 549.037 485.294 549.311 485.294Z" fill="#3F3D56"/>
<path id="Vector_35" d="M540.793 485.294H544.059C544.333 485.294 544.556 485.072 544.556 484.797V483.234C544.556 482.959 544.333 482.737 544.059 482.737H540.793C540.519 482.737 540.297 482.959 540.297 483.234V484.797C540.297 485.072 540.519 485.294 540.793 485.294Z" fill="#3F3D56"/>
<path id="Vector_36" d="M532.276 485.294H535.542C535.816 485.294 536.038 485.072 536.038 484.797V483.234C536.038 482.959 535.816 482.737 535.542 482.737H532.276C532.002 482.737 531.779 482.959 531.779 483.234V484.797C531.779 485.072 532.002 485.294 532.276 485.294Z" fill="#3F3D56"/>
<path id="Vector_37" d="M523.759 485.294H527.025C527.299 485.294 527.521 485.072 527.521 484.797V483.234C527.521 482.959 527.299 482.737 527.025 482.737H523.759C523.485 482.737 523.263 482.959 523.263 483.234V484.797C523.263 485.072 523.485 485.294 523.759 485.294Z" fill="#3F3D56"/>
<path id="Vector_38" d="M515.242 485.294H518.508C518.782 485.294 519.004 485.072 519.004 484.797V483.234C519.004 482.959 518.782 482.737 518.508 482.737H515.242C514.967 482.737 514.745 482.959 514.745 483.234V484.797C514.745 485.072 514.967 485.294 515.242 485.294Z" fill="#3F3D56"/>
<path id="Vector_39" d="M506.725 485.294H509.991C510.265 485.294 510.487 485.072 510.487 484.797V483.234C510.487 482.959 510.265 482.737 509.991 482.737H506.725C506.451 482.737 506.229 482.959 506.229 483.234V484.797C506.229 485.072 506.451 485.294 506.725 485.294Z" fill="#3F3D56"/>
<path id="Vector_40" d="M563.79 490.067H596.867C597.141 490.067 597.363 489.845 597.363 489.571V488.007C597.363 487.732 597.141 487.51 596.867 487.51H563.79C563.516 487.51 563.294 487.732 563.294 488.007V489.571C563.294 489.845 563.516 490.067 563.79 490.067Z" fill="#3F3D56"/>
<path id="Vector_41" d="M528.747 404.147H525.856C524.979 404.147 524.269 404.858 524.269 405.735C524.269 406.613 524.979 407.324 525.856 407.324H528.747C529.624 407.324 530.334 406.613 530.334 405.735C530.334 404.858 529.624 404.147 528.747 404.147Z" fill="white"/>
<path id="Vector_42" d="M561.815 404.147H558.924C558.048 404.147 557.337 404.858 557.337 405.735C557.337 406.613 558.048 407.324 558.924 407.324H561.815C562.692 407.324 563.403 406.613 563.403 405.735C563.403 404.858 562.692 404.147 561.815 404.147Z" fill="white"/>
<path id="Vector_43" d="M571.184 404.147H568.292C567.416 404.147 566.705 404.858 566.705 405.735C566.705 406.613 567.416 407.324 568.292 407.324H571.184C572.06 407.324 572.771 406.613 572.771 405.735C572.771 404.858 572.06 404.147 571.184 404.147Z" fill="white"/>
<path id="Vector_44" d="M552.82 404.147H534.85C533.973 404.147 533.263 404.858 533.263 405.735C533.263 406.613 533.973 407.324 534.85 407.324H552.82C553.697 407.324 554.407 406.613 554.407 405.735C554.407 404.858 553.697 404.147 552.82 404.147Z" fill="white"/>
<path id="Vector_45" d="M596.911 404.147H578.941C578.064 404.147 577.354 404.858 577.354 405.735C577.354 406.613 578.064 407.324 578.941 407.324H596.911C597.787 407.324 598.498 406.613 598.498 405.735C598.498 404.858 597.787 404.147 596.911 404.147Z" fill="white"/>
<path id="Vector_46" d="M537.565 410.511H534.674C533.798 410.511 533.087 411.222 533.087 412.1C533.087 412.977 533.798 413.688 534.674 413.688H537.565C538.442 413.688 539.153 412.977 539.153 412.1C539.153 411.222 538.442 410.511 537.565 410.511Z" fill="white"/>
<path id="Vector_47" d="M570.633 410.511H567.742C566.865 410.511 566.154 411.222 566.154 412.1C566.154 412.977 566.865 413.688 567.742 413.688H570.633C571.509 413.688 572.22 412.977 572.22 412.1C572.22 411.222 571.509 410.511 570.633 410.511Z" fill="white"/>
<path id="Vector_48" d="M580.002 410.511H577.111C576.234 410.511 575.523 411.222 575.523 412.1C575.523 412.977 576.234 413.688 577.111 413.688H580.002C580.879 413.688 581.589 412.977 581.589 412.1C581.589 411.222 580.879 410.511 580.002 410.511Z" fill="white"/>
<path id="Vector_49" d="M561.638 410.511H543.668C542.792 410.511 542.081 411.222 542.081 412.1C542.081 412.977 542.792 413.688 543.668 413.688H561.638C562.515 413.688 563.226 412.977 563.226 412.1C563.226 411.222 562.515 410.511 561.638 410.511Z" fill="white"/>
<path id="Vector_50" d="M605.728 410.511H587.758C586.882 410.511 586.171 411.222 586.171 412.1C586.171 412.977 586.882 413.688 587.758 413.688H605.728C606.605 413.688 607.315 412.977 607.315 412.1C607.315 411.222 606.605 410.511 605.728 410.511Z" fill="white"/>
<path id="Vector_51" d="M546.384 418.467H543.492C542.616 418.467 541.905 419.178 541.905 420.055C541.905 420.933 542.616 421.644 543.492 421.644H546.384C547.26 421.644 547.971 420.933 547.971 420.055C547.971 419.178 547.26 418.467 546.384 418.467Z" fill="white"/>
<path id="Vector_52" d="M579.45 418.467H576.559C575.682 418.467 574.972 419.178 574.972 420.055C574.972 420.933 575.682 421.644 576.559 421.644H579.45C580.327 421.644 581.037 420.933 581.037 420.055C581.037 419.178 580.327 418.467 579.45 418.467Z" fill="white"/>
<path id="Vector_53" d="M588.82 418.467H585.929C585.052 418.467 584.342 419.178 584.342 420.055C584.342 420.933 585.052 421.644 585.929 421.644H588.82C589.697 421.644 590.408 420.933 590.408 420.055C590.408 419.178 589.697 418.467 588.82 418.467Z" fill="white"/>
<path id="Vector_54" d="M570.457 418.467H552.487C551.61 418.467 550.899 419.178 550.899 420.055C550.899 420.933 551.61 421.644 552.487 421.644H570.457C571.333 421.644 572.044 420.933 572.044 420.055C572.044 419.178 571.333 418.467 570.457 418.467Z" fill="white"/>
<path id="Vector_55" d="M614.547 418.467H596.577C595.7 418.467 594.989 419.178 594.989 420.055C594.989 420.933 595.7 421.644 596.577 421.644H614.547C615.423 421.644 616.134 420.933 616.134 420.055C616.134 419.178 615.423 418.467 614.547 418.467Z" fill="white"/>
<path id="Vector_56" d="M555.201 424.831H552.31C551.433 424.831 550.723 425.543 550.723 426.42C550.723 427.297 551.433 428.009 552.31 428.009H555.201C556.078 428.009 556.788 427.297 556.788 426.42C556.788 425.543 556.078 424.831 555.201 424.831Z" fill="white"/>
<path id="Vector_57" d="M588.269 424.831H585.377C584.501 424.831 583.79 425.543 583.79 426.42C583.79 427.297 584.501 428.009 585.377 428.009H588.269C589.145 428.009 589.856 427.297 589.856 426.42C589.856 425.543 589.145 424.831 588.269 424.831Z" fill="white"/>
<path id="Vector_58" d="M597.639 424.831H594.747C593.871 424.831 593.16 425.543 593.16 426.42C593.16 427.297 593.871 428.009 594.747 428.009H597.639C598.515 428.009 599.226 427.297 599.226 426.42C599.226 425.543 598.515 424.831 597.639 424.831Z" fill="white"/>
<path id="Vector_59" d="M579.275 424.831H561.305C560.428 424.831 559.718 425.543 559.718 426.42C559.718 427.297 560.428 428.009 561.305 428.009H579.275C580.152 428.009 580.862 427.297 580.862 426.42C580.862 425.543 580.152 424.831 579.275 424.831Z" fill="white"/>
<path id="Vector_60" d="M561.815 453.472H558.924C558.048 453.472 557.337 454.183 557.337 455.06C557.337 455.938 558.048 456.649 558.924 456.649H561.815C562.692 456.649 563.403 455.938 563.403 455.06C563.403 454.183 562.692 453.472 561.815 453.472Z" fill="white"/>
<path id="Vector_61" d="M571.184 453.471H568.292C567.416 453.471 566.705 454.183 566.705 455.06C566.705 455.937 567.416 456.649 568.292 456.649H571.184C572.06 456.649 572.771 455.937 572.771 455.06C572.771 454.183 572.06 453.471 571.184 453.471Z" fill="white"/>
<path id="Vector_62" d="M596.911 455.063H578.941C578.064 455.063 577.354 455.774 577.354 456.651C577.354 457.529 578.064 458.24 578.941 458.24H596.911C597.787 458.24 598.498 457.529 598.498 456.651C598.498 455.774 597.787 455.063 596.911 455.063Z" fill="white"/>
<path id="Vector_63" d="M528.747 453.471H525.856C524.979 453.471 524.269 454.183 524.269 455.06C524.269 455.937 524.979 456.649 525.856 456.649H528.747C529.624 456.649 530.334 455.937 530.334 455.06C530.334 454.183 529.624 453.471 528.747 453.471Z" fill="white"/>
<path id="Vector_64" d="M552.82 455.063H534.85C533.973 455.063 533.263 455.774 533.263 456.651C533.263 457.529 533.973 458.24 534.85 458.24H552.82C553.697 458.24 554.407 457.529 554.407 456.651C554.407 455.774 553.697 455.063 552.82 455.063Z" fill="white"/>
<path id="Vector_65" d="M537.565 447.107H534.674C533.798 447.107 533.087 447.818 533.087 448.696C533.087 449.573 533.798 450.284 534.674 450.284H537.565C538.442 450.284 539.153 449.573 539.153 448.696C539.153 447.818 538.442 447.107 537.565 447.107Z" fill="white"/>
<path id="Vector_66" d="M570.633 447.107H567.742C566.865 447.107 566.154 447.818 566.154 448.696C566.154 449.573 566.865 450.284 567.742 450.284H570.633C571.509 450.284 572.22 449.573 572.22 448.696C572.22 447.818 571.509 447.107 570.633 447.107Z" fill="white"/>
<path id="Vector_67" d="M580.002 447.107H577.111C576.234 447.107 575.523 447.818 575.523 448.696C575.523 449.573 576.234 450.284 577.111 450.284H580.002C580.879 450.284 581.589 449.573 581.589 448.696C581.589 447.818 580.879 447.107 580.002 447.107Z" fill="white"/>
<path id="Vector_68" d="M561.638 447.107H543.668C542.792 447.107 542.081 447.818 542.081 448.696C542.081 449.573 542.792 450.284 543.668 450.284H561.638C562.515 450.284 563.226 449.573 563.226 448.696C563.226 447.818 562.515 447.107 561.638 447.107Z" fill="white"/>
<path id="Vector_69" d="M546.384 439.151H543.492C542.616 439.151 541.905 439.863 541.905 440.74C541.905 441.617 542.616 442.329 543.492 442.329H546.384C547.26 442.329 547.971 441.617 547.971 440.74C547.971 439.863 547.26 439.151 546.384 439.151Z" fill="white"/>
<path id="Vector_70" d="M579.45 439.151H576.559C575.682 439.151 574.972 439.863 574.972 440.74C574.972 441.617 575.682 442.329 576.559 442.329H579.45C580.327 442.329 581.037 441.617 581.037 440.74C581.037 439.863 580.327 439.151 579.45 439.151Z" fill="white"/>
<path id="Vector_71" d="M588.82 439.151H585.929C585.052 439.151 584.342 439.863 584.342 440.74C584.342 441.617 585.052 442.329 585.929 442.329H588.82C589.697 442.329 590.408 441.617 590.408 440.74C590.408 439.863 589.697 439.151 588.82 439.151Z" fill="white"/>
<path id="Vector_72" d="M570.457 440.742H552.487C551.61 440.742 550.899 441.454 550.899 442.331C550.899 443.208 551.61 443.92 552.487 443.92H570.457C571.333 443.92 572.044 443.208 572.044 442.331C572.044 441.454 571.333 440.742 570.457 440.742Z" fill="white"/>
<path id="Vector_73" d="M555.201 432.787H552.31C551.433 432.787 550.723 433.498 550.723 434.376C550.723 435.253 551.433 435.964 552.31 435.964H555.201C556.078 435.964 556.788 435.253 556.788 434.376C556.788 433.498 556.078 432.787 555.201 432.787Z" fill="white"/>
<path id="Vector_74" d="M588.269 432.787H585.377C584.501 432.787 583.79 433.498 583.79 434.376C583.79 435.253 584.501 435.964 585.377 435.964H588.269C589.145 435.964 589.856 435.253 589.856 434.376C589.856 433.498 589.145 432.787 588.269 432.787Z" fill="white"/>
<path id="Vector_75" d="M597.639 432.787H594.747C593.871 432.787 593.16 433.498 593.16 434.376C593.16 435.253 593.871 435.964 594.747 435.964H597.639C598.515 435.964 599.226 435.253 599.226 434.376C599.226 433.498 598.515 432.787 597.639 432.787Z" fill="white"/>
<path id="Vector_76" d="M579.275 432.787H561.305C560.428 432.787 559.718 433.498 559.718 434.376C559.718 435.253 560.428 435.964 561.305 435.964H579.275C580.152 435.964 580.862 435.253 580.862 434.376C580.862 433.498 580.152 432.787 579.275 432.787Z" fill="white"/>
<path id="Vector_77" d="M513.375 538.053L499.802 516.579L542.406 482.587L559.991 463.088C562.275 460.554 565.184 458.666 568.427 457.61C571.669 456.554 575.132 456.369 578.468 457.072C581.805 457.776 584.898 459.343 587.44 461.618C589.981 463.893 591.882 466.796 592.952 470.036C594.537 474.838 594.196 480.068 592.001 484.624C589.806 489.179 585.929 492.702 581.188 494.45L553.381 504.703L513.375 538.053Z" fill="#FFB6B6"/>
<path id="Vector_78" d="M194.901 382.21V486.579H267.955V382.21C267.956 381.459 267.717 380.728 267.272 380.123C266.827 379.519 266.201 379.073 265.484 378.851C265.147 378.74 264.793 378.685 264.437 378.689H198.429C197.967 378.688 197.508 378.778 197.081 378.955C196.653 379.131 196.264 379.39 195.936 379.717C195.609 380.044 195.349 380.433 195.171 380.86C194.993 381.288 194.902 381.747 194.901 382.21ZM223.411 418.071C223.43 416.014 224.26 414.047 225.721 412.599C227.181 411.151 229.154 410.338 231.21 410.338C233.265 410.338 235.238 411.151 236.698 412.599C238.159 414.047 238.989 416.014 239.008 418.071V430.181C238.998 432.244 238.171 434.22 236.71 435.675C235.249 437.13 233.271 437.947 231.21 437.947C229.148 437.947 227.171 437.13 225.709 435.675C224.248 434.22 223.422 432.244 223.411 430.181V418.071Z" fill="#2F2E41"/>
<path id="Vector_79" d="M194.678 483.703V493.768C194.679 494.289 194.886 494.789 195.254 495.158C195.621 495.528 196.119 495.737 196.64 495.742H266.216C266.738 495.739 267.237 495.53 267.605 495.16C267.972 494.79 268.179 494.289 268.179 493.768V483.703H194.678Z" fill="#3F3D56"/>
<path id="Vector_80" d="M79.9775 225.542V416.105C79.9795 418.534 80.9442 420.862 82.6599 422.58C84.3755 424.297 86.702 425.262 89.1283 425.264H371.277C373.703 425.262 376.029 424.297 377.745 422.58C379.461 420.862 380.426 418.534 380.427 416.105V225.542C380.422 223.116 379.455 220.791 377.74 219.076C376.025 217.361 373.701 216.397 371.277 216.393H89.1283C86.7041 216.397 84.3799 217.361 82.6647 219.076C80.9496 220.791 79.9833 223.116 79.9775 225.542Z" fill="#3F3D56"/>
<path id="Vector_81" d="M86.5967 227.663V413.505C86.5989 414.802 87.1149 416.046 88.0315 416.963C88.9482 417.881 90.1909 418.397 91.4872 418.399H368.928C370.224 418.397 371.467 417.881 372.384 416.963C373.3 416.046 373.816 414.802 373.819 413.505V227.663C373.819 226.364 373.304 225.118 372.387 224.198C371.47 223.279 370.226 222.761 368.928 222.758H91.4872C90.1893 222.761 88.9455 223.279 88.0286 224.198C87.1118 225.118 86.5968 226.364 86.5967 227.663Z" fill="white"/>
<path id="Vector_82" d="M138.085 494.465C138.368 494.82 138.727 495.105 139.135 495.301C139.544 495.497 139.991 495.597 140.444 495.595H305.503C305.955 495.594 306.4 495.493 306.808 495.298C307.215 495.104 307.574 494.821 307.859 494.47C308.143 494.119 308.346 493.709 308.452 493.27C308.558 492.831 308.565 492.374 308.472 491.931L305.91 479.75C305.804 479.253 305.575 478.791 305.245 478.405C304.915 478.02 304.493 477.723 304.019 477.542C303.676 477.407 303.31 477.338 302.941 477.338H142.996C142.627 477.338 142.262 477.407 141.918 477.542C141.444 477.723 141.023 478.02 140.692 478.405C140.362 478.791 140.133 479.253 140.027 479.75L137.465 491.931C137.374 492.373 137.382 492.83 137.49 493.268C137.597 493.707 137.8 494.116 138.085 494.465Z" fill="#2F2E41"/>
<path id="Vector_83" d="M359.924 248.691H100.324C100.054 248.685 99.7975 248.574 99.6088 248.381C99.4201 248.188 99.3145 247.928 99.3145 247.658C99.3145 247.388 99.4201 247.129 99.6088 246.935C99.7975 246.742 100.054 246.631 100.324 246.625H359.924C360.194 246.631 360.451 246.742 360.64 246.935C360.828 247.129 360.934 247.388 360.934 247.658C360.934 247.928 360.828 248.188 360.64 248.381C360.451 248.574 360.194 248.685 359.924 248.691Z" fill="#3F3D56"/>
<path id="Vector_84" d="M117.995 241.503C121.337 241.503 124.046 238.732 124.046 235.313C124.046 231.894 121.337 229.122 117.995 229.122C114.654 229.122 111.945 231.894 111.945 235.313C111.945 238.732 114.654 241.503 117.995 241.503Z" fill="#3F3D56"/>
<path id="Vector_85" d="M138.896 241.503C142.237 241.503 144.946 238.732 144.946 235.313C144.946 231.894 142.237 229.122 138.896 229.122C135.554 229.122 132.846 231.894 132.846 235.313C132.846 238.732 135.554 241.503 138.896 241.503Z" fill="#3F3D56"/>
<path id="Vector_86" d="M159.796 241.503C163.138 241.503 165.846 238.732 165.846 235.313C165.846 231.894 163.138 229.123 159.796 229.123C156.455 229.123 153.746 231.894 153.746 235.313C153.746 238.732 156.455 241.503 159.796 241.503Z" fill="#3F3D56"/>
<path id="Vector_87" d="M347.34 230.714H332.495C332.202 230.72 331.923 230.842 331.717 231.052C331.512 231.262 331.397 231.544 331.397 231.838C331.397 232.132 331.512 232.414 331.717 232.624C331.923 232.834 332.202 232.956 332.495 232.962H347.34C347.635 232.958 347.917 232.838 348.124 232.628C348.331 232.417 348.447 232.133 348.447 231.838C348.447 231.542 348.331 231.259 348.124 231.048C347.917 230.838 347.635 230.718 347.34 230.714Z" fill="#3F3D56"/>
<path id="Vector_88" d="M347.339 233.896H332.494C332.201 233.902 331.921 234.024 331.716 234.234C331.511 234.444 331.396 234.726 331.396 235.02C331.396 235.314 331.511 235.597 331.716 235.807C331.921 236.017 332.201 236.138 332.494 236.145H347.339C347.635 236.141 347.917 236.021 348.125 235.811C348.333 235.6 348.449 235.316 348.449 235.02C348.449 234.724 348.333 234.44 348.125 234.23C347.917 234.019 347.635 233.899 347.339 233.896Z" fill="#3F3D56"/>
<path id="Vector_89" d="M347.34 238.669H332.495C332.202 238.676 331.923 238.798 331.717 239.008C331.512 239.218 331.397 239.5 331.397 239.794C331.397 240.088 331.512 240.37 331.717 240.58C331.923 240.79 332.202 240.911 332.495 240.918H347.34C347.635 240.914 347.917 240.794 348.124 240.583C348.331 240.373 348.447 240.089 348.447 239.794C348.447 239.498 348.331 239.215 348.124 239.004C347.917 238.794 347.635 238.673 347.34 238.669Z" fill="#3F3D56"/>
<path id="Vector_90" d="M705.214 487.379C705.662 488.684 706.512 489.814 707.641 490.606C708.771 491.398 710.122 491.811 711.501 491.787L738.436 491.093C739.825 491.066 741.168 490.589 742.264 489.735C743.36 488.881 744.151 487.695 744.517 486.354L748.329 445.559C749.681 446.172 751.154 446.475 752.638 446.445C753.928 446.413 755.198 446.127 756.377 445.603C757.556 445.079 758.621 444.328 759.51 443.392C760.399 442.457 761.095 441.355 761.558 440.15C762.022 438.945 762.244 437.661 762.212 436.37C762.179 435.079 761.893 433.807 761.37 432.627C760.846 431.447 760.096 430.382 759.161 429.492C758.226 428.602 757.126 427.906 755.922 427.442C754.718 426.978 753.435 426.756 752.145 426.788C751.552 426.786 750.96 426.848 750.38 426.972C749.749 426.289 748.982 425.745 748.128 425.376C747.275 425.008 746.354 424.822 745.424 424.832L703.991 425.903C703.647 425.915 703.305 425.958 702.969 426.03C702.06 426.199 701.198 426.561 700.442 427.092C699.685 427.623 699.05 428.31 698.581 429.107C698.111 429.904 697.818 430.792 697.72 431.712C697.622 432.632 697.722 433.562 698.014 434.44L705.214 487.379ZM749.111 442.789L751.823 433.068C752.132 431.945 752.139 430.761 751.844 429.634C751.975 429.634 752.092 429.571 752.223 429.571C754.083 429.532 755.882 430.234 757.226 431.521C758.57 432.808 759.349 434.576 759.393 436.437C759.436 438.298 758.741 440.101 757.458 441.45C756.176 442.798 754.412 443.583 752.552 443.632C751.35 443.669 750.16 443.378 749.111 442.789Z" fill="#2F2E41"/>
<path id="Vector_91" d="M702.969 426.031C703.851 431.082 713.776 434.634 725.709 434.016C736.683 433.51 745.655 429.654 747.299 425.083C746.691 424.903 746.058 424.819 745.424 424.833L703.991 425.904C703.647 425.916 703.305 425.959 702.969 426.031Z" fill="#3F3D56"/>
<path id="Vector_92" d="M727.896 465.475C727.951 465.461 728.003 465.438 728.05 465.407L733.899 461.575C733.97 461.529 734.028 461.466 734.068 461.392C734.109 461.317 734.13 461.234 734.13 461.15C734.13 461.065 734.109 460.982 734.069 460.908C734.028 460.833 733.97 460.77 733.9 460.724L727.82 456.738C727.764 456.701 727.701 456.676 727.636 456.663C727.57 456.65 727.502 456.651 727.437 456.664C727.371 456.678 727.309 456.704 727.254 456.742C727.198 456.779 727.151 456.828 727.114 456.884C727.078 456.94 727.052 457.002 727.04 457.068C727.028 457.134 727.028 457.201 727.042 457.267C727.056 457.333 727.082 457.395 727.12 457.45C727.158 457.505 727.206 457.552 727.263 457.589L732.693 461.149L727.493 464.556C727.393 464.622 727.319 464.721 727.284 464.837C727.25 464.952 727.258 465.076 727.306 465.186C727.354 465.296 727.44 465.386 727.548 465.439C727.656 465.491 727.78 465.504 727.896 465.475Z" fill="#0D0C0C"/>
<path id="Vector_93" d="M718.657 465.473C718.756 465.449 718.844 465.395 718.912 465.319C718.979 465.244 719.023 465.15 719.036 465.049C719.05 464.949 719.034 464.847 718.989 464.756C718.944 464.665 718.873 464.589 718.786 464.539L713.394 461.445L718.605 457.57C718.659 457.531 718.704 457.481 718.738 457.423C718.772 457.366 718.795 457.302 718.805 457.236C718.815 457.17 718.811 457.103 718.795 457.038C718.779 456.974 718.75 456.913 718.71 456.859C718.67 456.805 718.62 456.76 718.563 456.726C718.506 456.692 718.442 456.669 718.376 456.659C718.31 456.649 718.243 456.653 718.178 456.669C718.114 456.685 718.053 456.714 717.999 456.754L712.164 461.092C712.097 461.142 712.042 461.209 712.007 461.285C711.971 461.362 711.955 461.446 711.96 461.53C711.965 461.615 711.991 461.696 712.035 461.768C712.08 461.84 712.141 461.9 712.214 461.941L718.28 465.421C718.394 465.487 718.53 465.506 718.657 465.473Z" fill="#0D0C0C"/>
<path id="Vector_94" d="M727.315 468.118C727.364 468.106 727.411 468.086 727.454 468.059C727.511 468.024 727.561 467.979 727.6 467.925C727.64 467.871 727.668 467.81 727.684 467.745C727.7 467.68 727.703 467.613 727.692 467.546C727.682 467.48 727.659 467.417 727.624 467.36L719.332 453.715C719.262 453.6 719.149 453.518 719.018 453.486C718.887 453.454 718.749 453.476 718.634 453.546C718.519 453.616 718.436 453.729 718.404 453.86C718.372 453.991 718.394 454.129 718.463 454.245L726.756 467.89C726.812 467.982 726.897 468.055 726.998 468.096C727.098 468.137 727.209 468.145 727.315 468.118Z" fill="#0D0C0C"/>
<path id="Vector_95" d="M261.143 303.906H216.211C214.378 303.906 212.893 305.393 212.893 307.227V311.621C212.893 313.455 214.378 314.943 216.211 314.943H261.143C262.975 314.943 264.461 313.455 264.461 311.621V307.227C264.461 305.393 262.975 303.906 261.143 303.906Z" fill="#0D0C0C"/>
<path id="Vector_96" d="M287.331 326.181H190.02C188.187 326.181 186.701 327.668 186.701 329.503V333.897C186.701 335.731 188.187 337.218 190.02 337.218H287.331C289.164 337.218 290.65 335.731 290.65 333.897V329.503C290.65 327.668 289.164 326.181 287.331 326.181Z" fill="#E6E6E6"/>
<path id="Vector_97" d="M287.331 348.457H190.02C188.187 348.457 186.701 349.944 186.701 351.779V356.172C186.701 358.007 188.187 359.494 190.02 359.494H287.331C289.164 359.494 290.65 358.007 290.65 356.172V351.779C290.65 349.944 289.164 348.457 287.331 348.457Z" fill="#E6E6E6"/>
<path id="Vector_98" d="M295.581 422.495L295.801 423.191L295.813 423.215L302.447 443.403L310.08 466.667L324.439 510.386L324.578 517.177V517.201L325.645 571.832L322.687 579.239L326.016 591.381C326.016 591.381 324.485 573.026 316.273 583.567C311.622 589.557 306.182 595.687 301.717 601.433C308.224 604.069 314.835 606.452 321.551 608.584C323.001 609.049 324.462 609.49 325.923 609.931C326.237 610.024 326.55 610.117 326.863 610.21C349.124 616.799 372.139 620.501 395.342 621.226C396.548 621.261 397.731 621.284 398.88 621.308C399.286 621.319 399.68 621.331 400.074 621.331C401.373 621.343 402.661 621.354 403.96 621.354C406.581 621.354 409.191 621.315 411.789 621.238C431.019 620.696 450.137 618.108 468.82 613.518C468.693 605.798 468.345 596.778 467.846 587.143C467.614 582.418 462.406 577.298 462.093 572.353C461.872 568.638 466.547 565.144 466.303 561.371C464.726 538.141 462.754 547.059 461.293 530.609C461.142 528.995 461.003 527.451 460.875 525.977C459.935 515.413 459.286 508.807 459.286 508.807L465.526 469.441L475.327 407.636L474.573 406.393L473.726 405.976L422.031 380.366L419.224 373.169C418.406 371.095 416.987 369.314 415.149 368.054C413.312 366.794 411.14 366.113 408.913 366.099L374.859 365.96C373.091 365.952 371.348 366.366 369.772 367.167C368.197 367.969 366.835 369.135 365.8 370.568L356.579 383.35L295.581 422.495Z" fill="#3F3D56"/>
<path id="Vector_99" d="M332.291 500.826L324.578 517.346L319.312 528.63L310.253 576.099L305.718 580.916L301.833 563.861L261.165 572.899C259.831 565.481 260.808 573.15 259.984 565.012C260.216 564.78 260.46 564.548 260.703 564.315C261.353 563.712 261.898 563.143 261.887 562.597C261.423 534.527 262.814 486.756 274.436 457.815C276.257 453.09 278.657 448.609 281.581 444.477C281.813 444.163 282.034 443.85 282.254 443.536C287.613 436.025 290.999 428.631 295.801 423.372V423.36C295.831 423.336 295.858 423.309 295.883 423.279C295.9 423.27 295.916 423.258 295.929 423.244L328.916 405.738L330.331 445.533L331.34 474.138L332.291 500.826Z" fill="#3F3D56"/>
<path id="Vector_100" d="M451.235 505.113L460.87 525.745L464.233 532.931L473.289 580.395L477.809 585.201L481.704 568.15L483.534 567.775L516.536 560.934L526.155 591.51C528.323 587.895 529.177 583.641 528.573 579.468C527.969 575.295 525.943 571.458 522.839 568.607C522.182 568.013 521.635 567.433 521.65 566.885C522.198 533.87 520.18 473.584 501.959 448.772C496.171 440.898 492.699 433.055 487.647 427.576C487.632 427.56 487.632 427.545 487.616 427.545L475.322 407.397L474.571 406.16L473.727 405.738L451.235 505.113Z" fill="#3F3D56"/>
<path id="Ellipse 5" d="M392.869 356.407C417.89 356.407 438.174 336.106 438.174 311.063C438.174 286.02 417.89 265.718 392.869 265.718C367.848 265.718 347.564 286.02 347.564 311.063C347.564 336.106 367.848 356.407 392.869 356.407Z" fill="#FFB6B6"/>
<path id="Vector_101" d="M454.104 278.653C453.753 278.277 453.329 277.976 452.859 277.768C452.389 277.56 451.882 277.449 451.369 277.442L452.05 275.549C452.272 274.953 452.332 274.308 452.224 273.681C452.115 273.054 451.842 272.467 451.432 271.98C451.023 271.494 450.491 271.125 449.892 270.911C449.293 270.698 448.648 270.648 448.024 270.766L445.543 271.244L445.776 269.585C445.866 268.968 445.794 268.337 445.566 267.756C445.338 267.175 444.963 266.663 444.478 266.27C443.993 265.878 443.414 265.619 442.799 265.519C442.183 265.418 441.552 265.48 440.967 265.698C440.436 265.907 439.864 265.995 439.294 265.955C438.724 265.914 438.17 265.746 437.673 265.464C437.174 265.19 436.741 264.81 436.404 264.352C436.067 263.893 435.834 263.366 435.721 262.808L434.857 258.636L434.765 258.412C430.556 251.39 422.462 246.281 412.559 244.409C403.744 242.73 394.705 243.585 385.992 244.389C382.535 244.714 378.63 245.081 375.377 247.075C372.611 248.785 370.273 252.204 370.75 255.654C362.159 253.018 352.947 258.279 348.382 264.914C342.973 272.811 342.088 282.703 341.946 290.437C341.56 308.734 345.332 323.703 353.13 334.938C353.7 335.752 353.842 337.452 354.97 338.022L354.737 337.645C355.997 338.276 357.278 339.294 356.801 340.383C355.428 343.517 364.548 350.447 370.974 352.737C382.697 356.919 398.284 356.563 409.245 355.057L409.631 352.462C413.586 351.923 416.372 350.895 417.155 349.287C418.538 348.106 419.717 347.048 420.744 346.071L420.754 346.061C420.775 346.041 420.815 346.01 420.836 345.99C425.787 341.237 426.936 338.531 427.455 334.409C427.953 330.369 427.068 326.268 426.163 322.574C445.217 325.525 418.66 302.262 436.412 297.764C436.616 297.701 436.823 297.65 437.032 297.611C437.551 297.489 438.069 297.367 438.568 297.224C440.969 296.572 443.269 295.589 445.4 294.304C450.362 291.281 451.999 287.272 454.561 282.754C454.931 282.11 455.086 281.366 455.004 280.628C454.921 279.89 454.606 279.198 454.104 278.653Z" fill="#2F2E41"/>
<path id="Vector_102" d="M553.105 509.334C553.095 511.115 553.075 513.608 552.993 516.692C552.983 517.119 552.973 517.557 552.963 518.004C552.831 523.673 552.698 528.425 552.485 533.707C552.475 534.073 552.465 534.429 552.444 534.796C552.16 542.163 551.712 550.742 550.939 564.327C549.506 589.423 547.005 567.777 544.493 576.58C544.371 577.017 544.239 577.537 544.117 578.147C543.737 580.362 543.095 582.525 542.206 584.589C540.874 585.382 539.501 586.146 538.149 586.909C534.295 589.056 530.381 591.122 526.436 593.086C524.219 594.185 521.993 595.264 519.756 596.302C519.4 596.465 519.054 596.627 518.708 596.78C507.254 602.083 495.449 606.592 483.376 610.274C481.018 610.986 478.669 611.678 476.29 612.319C473.809 613.011 471.328 613.663 468.817 614.273C450.134 618.864 431.017 621.453 411.787 621.997C409.194 622.079 406.581 622.109 403.958 622.109C402.657 622.109 401.375 622.099 400.074 622.089C399.677 622.089 399.281 622.079 398.884 622.068C397.735 622.038 396.546 622.018 395.346 621.987C372.143 621.263 349.128 617.559 326.868 610.966L325.922 610.691C324.458 610.243 323.004 609.806 321.55 609.338C314.84 607.211 308.227 604.83 301.713 602.194C296.742 600.189 291.827 598.039 286.971 595.742C286.926 595.73 286.885 595.709 286.849 595.681C285.832 595.213 284.805 594.724 283.788 594.226C283.656 594.155 283.514 594.083 283.371 594.012C279.579 592.16 275.827 590.22 272.116 588.191C268.994 581.017 264.602 579.643 261.877 573.334C261.084 571.459 260.511 569.499 260.169 567.492C260.169 567.472 260.159 567.452 260.159 567.421C260.444 571.207 258.949 560.705 260.149 567.38C260.139 567.258 260.128 567.126 260.118 566.973C260.088 566.607 260.047 566.159 259.986 565.6C256.499 531.519 256.722 492.543 255.207 460.426C255.106 458.35 255.001 456.363 254.892 454.463C254.862 453.832 254.821 453.211 254.78 452.601C254.851 452.418 254.933 452.224 255.024 452.041C255.044 451.988 255.068 451.937 255.095 451.888C255.125 451.825 255.159 451.764 255.197 451.705C255.217 451.675 255.248 451.634 255.268 451.603C255.283 451.568 255.3 451.534 255.319 451.502C255.411 451.359 255.512 451.207 255.624 451.064C255.675 451.003 255.716 450.952 255.767 450.901C255.802 450.849 255.843 450.801 255.889 450.759C255.92 450.71 255.957 450.665 256 450.626C256.041 450.586 256.082 450.535 256.133 450.484C256.154 450.452 256.182 450.424 256.214 450.403C256.294 450.31 256.383 450.225 256.478 450.148C256.841 449.814 257.228 449.508 257.637 449.232C257.78 449.141 257.932 449.049 258.075 448.947C259.099 448.334 260.178 447.816 261.298 447.401C261.684 447.258 262.07 447.126 262.487 446.983C262.64 446.943 262.782 446.892 262.935 446.841C263.158 446.77 263.382 446.698 263.616 446.648C264.775 446.302 266.026 446.006 267.378 445.732C267.54 445.701 267.713 445.671 267.886 445.63C268.13 445.579 268.384 445.538 268.639 445.498C268.984 445.437 269.34 445.375 269.696 445.314C272.716 444.836 276.142 444.48 279.925 444.246C280.28 444.226 280.636 444.205 280.992 444.185C281.409 444.165 281.826 444.144 282.253 444.124C282.609 444.103 282.975 444.093 283.341 444.083C283.697 444.063 284.063 444.053 284.439 444.042C285.466 444.012 286.523 443.981 287.601 443.961C290.672 443.9 293.905 443.92 297.301 443.992C298.877 444.032 300.483 444.073 302.13 444.144C302.242 444.144 302.344 444.154 302.446 444.154C303.879 444.205 305.323 444.266 306.807 444.348C307.844 444.399 308.892 444.449 309.939 444.511C310.925 444.572 311.922 444.633 312.928 444.704C313.711 444.745 314.494 444.806 315.287 444.856C315.958 444.907 316.629 444.958 317.3 444.999L318.215 445.06C318.714 445.101 319.212 445.131 319.72 445.182C320.839 445.274 321.957 445.365 323.096 445.457C324.224 445.559 325.373 445.66 326.522 445.762C327.671 445.864 328.83 445.976 329.989 446.088C330.111 446.098 330.223 446.108 330.335 446.118C331.392 446.23 332.45 446.332 333.517 446.444C333.761 446.464 334.016 446.485 334.26 446.515C335.278 446.618 336.315 446.737 337.342 446.847C337.658 446.881 337.971 446.914 338.287 446.948C339.092 447.036 339.885 447.112 340.696 447.207C341.763 447.329 342.851 447.441 343.909 447.584C344.732 447.675 345.556 447.767 346.379 447.869C347.671 448.021 348.982 448.184 350.294 448.357C350.792 448.418 351.29 448.479 351.788 448.551C355.53 449.019 359.312 449.538 363.156 450.077C368.982 450.901 374.899 451.797 380.857 452.764C386.826 453.73 392.828 454.751 398.864 455.827C400.389 456.101 401.914 456.376 403.449 456.661C404.141 456.793 404.832 456.926 405.524 457.058C406.703 457.272 407.882 457.496 409.062 457.719C410.241 457.943 411.421 458.167 412.6 458.401C414.003 458.676 415.417 458.951 416.82 459.226C426.062 461.057 435.253 463.011 444.221 465.057C445.695 465.392 447.17 465.738 448.634 466.074C451.562 466.756 454.463 467.448 457.337 468.15C458.13 468.333 458.913 468.527 459.696 468.72C461.648 469.209 463.6 469.697 465.522 470.196L465.858 470.287C467.271 470.633 468.654 470.989 470.037 471.356C473.3 472.211 476.51 473.076 479.665 473.951C481.76 474.531 483.83 475.118 485.878 475.711C488.938 476.597 491.937 477.492 494.855 478.398C495.577 478.622 496.299 478.846 497.011 479.059C499.146 479.721 501.251 480.392 503.294 481.064C504.921 481.593 506.507 482.133 508.073 482.672C509.639 483.211 511.174 483.751 512.679 484.29C513.645 484.636 514.601 485.002 515.556 485.348C516.929 485.857 518.281 486.366 519.603 486.875C520.01 487.027 520.406 487.19 520.803 487.343C521.057 487.455 521.301 487.546 521.545 487.648C522.023 487.842 522.511 488.025 522.979 488.218C523.457 488.401 523.924 488.595 524.392 488.798C524.85 488.981 525.317 489.175 525.765 489.368C526.222 489.551 526.67 489.745 527.117 489.948C527.493 490.101 527.859 490.264 528.215 490.426C528.937 490.742 529.659 491.057 530.36 491.383C530.706 491.546 531.052 491.698 531.397 491.861L532.191 492.228C532.302 492.289 532.414 492.34 532.526 492.39C532.78 492.513 533.045 492.645 533.299 492.767C533.888 493.042 534.468 493.337 535.037 493.612C535.8 493.998 536.542 494.385 537.254 494.762C537.976 495.148 538.677 495.535 539.348 495.911C539.46 495.973 539.562 496.034 539.674 496.095C539.826 496.176 539.979 496.268 540.131 496.349C540.65 496.644 541.148 496.95 541.646 497.245C542.622 497.845 543.548 498.435 544.412 499.025C544.605 499.158 544.788 499.29 544.981 499.412C545.622 499.87 546.232 500.318 546.801 500.776C546.801 500.786 546.801 500.786 546.811 500.786C547.005 500.928 547.188 501.081 547.371 501.224C547.523 501.366 547.686 501.488 547.838 501.631C548.367 502.089 548.855 502.526 549.302 502.974C549.452 503.112 549.595 503.258 549.729 503.411C549.789 503.461 549.843 503.515 549.892 503.574C550.095 503.778 550.278 503.981 550.451 504.185C550.478 504.213 550.502 504.244 550.522 504.276C550.767 504.561 550.99 504.846 551.204 505.131C551.305 505.274 551.417 505.416 551.509 505.559C551.631 505.732 551.753 505.915 551.854 506.088C551.946 506.23 552.027 506.383 552.109 506.525C552.324 506.892 552.508 507.277 552.658 507.675C552.772 507.946 552.864 508.225 552.932 508.51C553.009 508.78 553.067 509.056 553.105 509.334Z" fill="#2F2E41"/>
<path id="Vector_103" opacity="0.2" d="M553.105 509.326C553.094 511.107 553.074 513.6 552.993 516.684C552.983 517.111 552.962 517.549 552.952 517.997C552.85 522.322 552.698 527.664 552.484 533.699C552.474 534.065 552.464 534.421 552.444 534.788C552.159 542.155 551.712 550.734 550.939 564.32C549.505 589.415 547.004 567.769 544.493 576.572C537.518 572.278 529.872 567.78 521.697 563.16C520.223 562.325 518.735 561.487 517.234 560.646C500.884 551.518 482.623 541.952 463.559 532.478C462.807 532.101 462.044 531.725 461.292 531.358C417.623 509.754 369.957 488.74 331.341 474.716C323.888 472.009 316.771 469.567 310.081 467.42C295.989 462.912 283.808 459.757 274.433 458.393C264.673 456.969 257.932 457.478 255.207 460.419C255.105 458.343 255 456.355 254.892 454.455C254.851 453.824 254.81 453.203 254.77 452.593C254.832 452.425 254.914 452.265 254.993 452.104C255.004 452.081 255.012 452.056 255.024 452.033C255.043 451.98 255.067 451.929 255.095 451.88C255.125 451.817 255.159 451.756 255.197 451.697C255.23 451.625 255.271 451.557 255.319 451.494C255.41 451.351 255.512 451.199 255.624 451.056C255.706 450.949 255.794 450.848 255.888 450.751C255.919 450.702 255.957 450.657 256 450.619C256.04 450.578 256.081 450.527 256.132 450.476C256.154 450.444 256.181 450.417 256.213 450.395C256.294 450.302 256.382 450.217 256.478 450.14C256.84 449.806 257.228 449.5 257.637 449.224C257.779 449.133 257.932 449.041 258.074 448.939C259.099 448.326 260.178 447.808 261.297 447.393C261.683 447.25 262.07 447.118 262.487 446.975C262.639 446.935 262.782 446.884 262.934 446.833C263.158 446.762 263.381 446.691 263.615 446.64C264.774 446.294 266.025 445.999 267.377 445.724C267.784 445.642 268.211 445.561 268.638 445.49C268.984 445.429 269.34 445.368 269.695 445.307C272.715 444.828 276.142 444.472 279.924 444.238C280.28 444.218 280.636 444.197 280.992 444.177C281.408 444.157 281.825 444.136 282.252 444.116C282.608 444.096 282.974 444.085 283.34 444.075C283.696 444.055 284.062 444.045 284.438 444.035C285.465 444.004 286.523 443.973 287.6 443.953C290.671 443.902 293.904 443.923 297.3 443.994C298.876 444.024 300.483 444.075 302.13 444.146C302.231 444.146 302.343 444.157 302.445 444.157C303.879 444.197 305.333 444.269 306.807 444.34C307.844 444.391 308.891 444.442 309.938 444.503C310.925 444.564 311.921 444.625 312.928 444.696C313.711 444.737 314.493 444.798 315.286 444.849C315.958 444.899 316.629 444.95 317.3 444.991C318.103 445.052 318.906 445.113 319.72 445.174C320.838 445.266 321.956 445.357 323.095 445.449C324.224 445.551 325.373 445.652 326.522 445.754C327.671 445.856 328.83 445.968 329.989 446.08C330.111 446.09 330.223 446.1 330.334 446.11C331.392 446.222 332.449 446.324 333.517 446.436C339.434 447.037 345.525 447.739 351.788 448.543C355.53 449.021 359.319 449.533 363.155 450.079C368.981 450.904 374.899 451.799 380.857 452.756C386.825 453.722 392.827 454.743 398.863 455.819C400.389 456.094 401.914 456.368 403.449 456.653C405.32 456.999 407.191 457.352 409.061 457.712C410.241 457.935 411.42 458.159 412.6 458.393C414.003 458.668 415.416 458.943 416.819 459.218C426.062 461.049 435.253 463.003 444.221 465.049C445.695 465.385 447.169 465.731 448.633 466.066C451.562 466.748 454.463 467.44 457.337 468.142C458.13 468.336 458.913 468.529 459.696 468.722C461.658 469.211 463.6 469.699 465.522 470.188V470.198C465.633 470.218 465.745 470.249 465.857 470.279C467.26 470.636 468.653 470.992 470.036 471.358C473.3 472.213 476.509 473.075 479.665 473.943C481.759 474.533 483.833 475.113 485.877 475.703C488.937 476.599 491.937 477.494 494.855 478.39C495.577 478.614 496.299 478.838 497.01 479.052C499.146 479.723 501.24 480.391 503.294 481.056C504.921 481.585 506.507 482.125 508.073 482.664C509.638 483.203 511.174 483.743 512.679 484.282C513.655 484.628 514.61 484.984 515.556 485.33C516.939 485.839 518.281 486.348 519.603 486.867C520.009 487.02 520.406 487.182 520.802 487.335C521.545 487.62 522.267 487.915 522.978 488.21C523.456 488.393 523.924 488.587 524.392 488.79C524.849 488.974 525.317 489.167 525.764 489.36C526.222 489.543 526.669 489.737 527.116 489.94C527.493 490.093 527.859 490.256 528.215 490.419C528.936 490.734 529.658 491.049 530.36 491.375C530.706 491.538 531.051 491.691 531.397 491.853L532.19 492.22C532.302 492.281 532.414 492.332 532.526 492.383C533.39 492.79 534.223 493.197 535.037 493.604C535.799 493.99 536.542 494.377 537.253 494.754C538.097 495.201 538.901 495.639 539.673 496.087C539.826 496.168 539.978 496.26 540.131 496.341C540.649 496.636 541.148 496.942 541.646 497.237C542.622 497.837 543.547 498.427 544.411 499.018C545.265 499.608 546.058 500.188 546.801 500.768C546.801 500.778 546.801 500.778 546.811 500.778C547.167 501.063 547.512 501.348 547.838 501.623C548.367 502.081 548.855 502.518 549.302 502.966C549.452 503.104 549.594 503.25 549.729 503.404C549.788 503.453 549.843 503.507 549.892 503.566C550.105 503.801 550.319 504.035 550.522 504.269C550.766 504.554 550.99 504.838 551.203 505.123C551.305 505.266 551.417 505.408 551.508 505.551C551.63 505.724 551.752 505.907 551.854 506.08C551.946 506.222 552.027 506.375 552.108 506.518C552.324 506.884 552.508 507.269 552.657 507.668C552.768 507.939 552.86 508.218 552.932 508.502C553.009 508.772 553.067 509.048 553.105 509.326Z" fill="black"/>
</g>
<defs>
<clipPath id="clip0_251_126">
<rect width="800" height="582.353" fill="white"/>
</clipPath>
</defs>
</svg>
