<svg width="800" height="481" viewBox="0 0 800 481" fill="none" xmlns="http://www.w3.org/2000/svg">
<g id="undraw_work_chat_re_qes4 1" clip-path="url(#clip0_251_9)">
<path id="Vector" d="M498.81 232.063L348.038 357.279C346.141 358.851 343.699 359.604 341.248 359.375C338.798 359.145 336.538 357.95 334.965 356.053L271.407 279.21C269.839 277.309 269.086 274.862 269.316 272.406C269.545 269.951 270.738 267.686 272.631 266.11L423.403 140.894C425.3 139.322 427.742 138.569 430.193 138.799C432.644 139.028 434.904 140.223 436.477 142.12L500.034 218.963C501.603 220.864 502.355 223.311 502.125 225.767C501.896 228.222 500.704 230.487 498.81 232.063Z" fill="#CCCCCC"/>
<path id="Vector_2" d="M492.768 228.293L345.462 350.63C344.485 351.44 343.227 351.828 341.964 351.71C340.702 351.591 339.538 350.976 338.727 349.998L278.043 276.629C277.234 275.65 276.847 274.389 276.965 273.124C277.083 271.859 277.698 270.692 278.673 269.88L425.979 147.543C426.956 146.733 428.214 146.345 429.477 146.463C430.739 146.582 431.904 147.197 432.714 148.175L493.399 221.544C494.207 222.523 494.594 223.784 494.476 225.049C494.358 226.314 493.744 227.481 492.768 228.293Z" fill="white"/>
<path id="Vector_3" d="M499.559 253.902L469.262 251.06L490.946 233.958L502.628 248.082C503.083 248.621 503.366 249.285 503.438 249.987C503.51 250.69 503.37 251.398 503.034 252.019C502.814 252.44 502.512 252.814 502.147 253.119C501.789 253.415 501.376 253.636 500.932 253.77C500.487 253.905 500.021 253.949 499.559 253.902Z" fill="#CCCCCC"/>
<path id="Vector_4" d="M438.717 199.523L364.198 261.411C363.742 261.789 363.217 262.074 362.653 262.249C362.088 262.423 361.494 262.485 360.905 262.43C360.317 262.374 359.745 262.203 359.222 261.927C358.699 261.65 358.236 261.273 357.859 260.817C357.482 260.361 357.198 259.835 357.023 259.269C356.849 258.703 356.788 258.108 356.843 257.518C356.898 256.928 357.068 256.355 357.345 255.831C357.621 255.307 357.997 254.843 358.452 254.465L432.972 192.577C433.427 192.199 433.952 191.914 434.517 191.74C435.082 191.565 435.675 191.504 436.264 191.559C436.853 191.614 437.425 191.785 437.947 192.061C438.47 192.338 438.933 192.715 439.31 193.171C439.688 193.628 439.972 194.154 440.146 194.72C440.32 195.286 440.382 195.881 440.327 196.47C440.271 197.06 440.101 197.633 439.825 198.157C439.549 198.681 439.172 199.145 438.717 199.523Z" fill="#CCCCCC"/>
<path id="Vector_5" d="M402.246 204.912L351.989 246.651C351.069 247.414 349.885 247.78 348.696 247.669C347.508 247.557 346.412 246.977 345.65 246.056C344.888 245.135 344.523 243.948 344.634 242.757C344.745 241.566 345.324 240.468 346.243 239.704L396.501 197.966C397.42 197.202 398.604 196.836 399.793 196.948C400.982 197.059 402.077 197.639 402.839 198.56C403.601 199.481 403.967 200.668 403.855 201.859C403.744 203.05 403.165 204.149 402.246 204.912Z" fill="#CCCCCC"/>
<path id="Vector_6" d="M324.373 290.273C332.142 290.273 338.44 283.962 338.44 276.177C338.44 268.392 332.142 262.08 324.373 262.08C316.603 262.08 310.305 268.392 310.305 276.177C310.305 283.962 316.603 290.273 324.373 290.273Z" fill="#0D0C0C"/>
<path id="Vector_7" d="M436.276 247.92C438.762 247.92 440.778 245.901 440.778 243.409C440.778 240.918 438.762 238.898 436.276 238.898C433.79 238.898 431.774 240.918 431.774 243.409C431.774 245.901 433.79 247.92 436.276 247.92Z" fill="#E6E6E6"/>
<path id="Vector_8" d="M448.407 237.845C450.893 237.845 452.909 235.826 452.909 233.335C452.909 230.843 450.893 228.824 448.407 228.824C445.921 228.824 443.905 230.843 443.905 233.335C443.905 235.826 445.921 237.845 448.407 237.845Z" fill="#E6E6E6"/>
<path id="Vector_9" d="M460.538 227.771C463.024 227.771 465.04 225.751 465.04 223.26C465.04 220.768 463.024 218.749 460.538 218.749C458.052 218.749 456.036 220.768 456.036 223.26C456.036 225.751 458.052 227.771 460.538 227.771Z" fill="#E6E6E6"/>
<path id="Vector_10" d="M388.787 469.842L399.122 469.841L404.038 429.896L388.785 429.897L388.787 469.842Z" fill="#FFB8B8"/>
<path id="Vector_11" d="M386.15 466.461L406.503 466.46H406.504C408.208 466.46 409.894 466.796 411.468 467.449C413.042 468.103 414.472 469.06 415.676 470.267C416.88 471.474 417.836 472.907 418.488 474.483C419.14 476.06 419.475 477.75 419.475 479.457V479.88L386.151 479.881L386.15 466.461Z" fill="#2F2E41"/>
<path id="Vector_12" d="M351.695 469.842L362.03 469.841L366.946 429.896L351.693 429.897L351.695 469.842Z" fill="#FFB8B8"/>
<path id="Vector_13" d="M349.059 466.461L369.412 466.46H369.413C371.116 466.46 372.802 466.796 374.376 467.449C375.95 468.103 377.38 469.06 378.584 470.267C379.789 471.474 380.744 472.907 381.396 474.483C382.048 476.06 382.383 477.75 382.383 479.457V479.88L349.059 479.881L349.059 466.461Z" fill="#2F2E41"/>
<path id="Vector_14" d="M362.066 457.62H362.065L353.276 457.618C352.293 457.621 351.347 457.24 350.639 456.556C349.932 455.872 349.518 454.938 349.487 453.953L349.21 446.249C346.988 384.635 344.691 320.923 358.919 292.287L359.031 292.062L406.137 290.353L415.594 377.284C415.998 380.992 415.85 384.739 415.156 388.404L402.654 454.417C402.485 455.312 402.001 456.116 401.289 456.683C400.578 457.251 399.687 457.543 398.779 457.507L388.907 457.186C388.39 457.166 387.883 457.039 387.416 456.815C386.95 456.591 386.534 456.274 386.194 455.883C385.854 455.492 385.598 455.035 385.441 454.541C385.284 454.047 385.229 453.526 385.281 453.01L393.035 391.955C393.299 389.32 393.061 386.658 392.332 384.113L382.687 350.329C382.608 350.049 382.434 349.806 382.197 349.639C381.959 349.473 381.672 349.393 381.383 349.413C381.093 349.434 380.82 349.553 380.608 349.751C380.396 349.95 380.259 350.215 380.219 350.503L365.823 454.342C365.694 455.249 365.244 456.08 364.554 456.682C363.864 457.284 362.981 457.617 362.066 457.62Z" fill="#2F2E41"/>
<path id="Vector_15" d="M367.7 203.443C379.135 203.443 388.405 194.154 388.405 182.695C388.405 171.237 379.135 161.948 367.7 161.948C356.265 161.948 346.995 171.237 346.995 182.695C346.995 194.154 356.265 203.443 367.7 203.443Z" fill="#FFB8B8"/>
<path id="Vector_16" d="M403.929 296.77H361.085C360.541 296.77 360.003 296.653 359.508 296.426C359.012 296.199 358.572 295.868 358.216 295.455C357.86 295.042 357.596 294.558 357.444 294.034C357.291 293.51 357.253 292.96 357.332 292.42L359.448 277.894L347.019 243.637C345.736 240.101 345.259 236.322 345.624 232.576C345.988 228.831 347.185 225.215 349.126 221.994C351.067 218.773 353.703 216.028 356.84 213.96C359.978 211.893 363.538 210.555 367.258 210.046C372.56 209.305 377.958 210.284 382.664 212.84C387.369 215.396 391.135 219.395 393.409 224.25L396.139 230.071L407.659 292.276C407.76 292.825 407.74 293.389 407.6 293.929C407.459 294.469 407.202 294.971 406.846 295.4C406.49 295.829 406.044 296.174 405.54 296.411C405.036 296.648 404.486 296.77 403.929 296.77Z" fill="#0D0C0C"/>
<path id="Vector_17" d="M313.487 333.208C314.776 332.908 315.985 332.328 317.027 331.509C318.068 330.691 318.918 329.653 319.517 328.47C320.115 327.286 320.447 325.986 320.49 324.66C320.532 323.334 320.284 322.015 319.763 320.795L353.147 245.217L334.049 240.397L307.239 316.204C305.252 317.217 303.706 318.925 302.893 321.005C302.079 323.085 302.055 325.391 302.825 327.487C303.596 329.583 305.106 331.323 307.071 332.377C309.036 333.432 311.319 333.727 313.487 333.208Z" fill="#FFB8B8"/>
<path id="Vector_18" d="M348.628 258.734L330.054 250.022C329.525 249.774 329.056 249.415 328.679 248.969C328.301 248.523 328.024 248.001 327.866 247.438C327.708 246.875 327.673 246.285 327.764 245.707C327.854 245.129 328.068 244.578 328.39 244.09L339.678 227.008C340.96 224.308 343.258 222.227 346.068 221.221C348.879 220.215 351.973 220.367 354.672 221.642C357.371 222.918 359.455 225.214 360.469 228.027C361.482 230.84 361.341 233.94 360.076 236.649L354.239 256.215C354.072 256.775 353.786 257.293 353.401 257.732C353.017 258.172 352.542 258.523 352.009 258.762C351.477 259.001 350.899 259.122 350.315 259.117C349.732 259.112 349.156 258.982 348.628 258.734Z" fill="#0D0C0C"/>
<path id="Vector_19" d="M452.75 138.722C453.153 139.986 453.275 141.323 453.107 142.639C452.939 143.954 452.485 145.217 451.777 146.338C451.069 147.459 450.124 148.411 449.009 149.127C447.894 149.842 446.636 150.304 445.324 150.48L397.637 217.918L383.726 203.949L434.975 142.053C434.826 139.824 435.499 137.618 436.865 135.853C438.231 134.088 440.195 132.887 442.386 132.476C444.577 132.066 446.842 132.475 448.753 133.626C450.663 134.777 452.085 136.59 452.75 138.722Z" fill="#FFB8B8"/>
<path id="Vector_20" d="M408.665 210.002C408.733 210.583 408.675 211.171 408.496 211.728C408.316 212.284 408.019 212.795 407.624 213.225L393.842 228.269C392.168 230.746 389.582 232.457 386.651 233.027C383.72 233.597 380.683 232.979 378.207 231.308C375.73 229.638 374.015 227.051 373.439 224.116C372.862 221.181 373.471 218.136 375.131 215.65L383.993 197.186C384.246 196.659 384.609 196.193 385.058 195.82C385.507 195.446 386.031 195.174 386.595 195.022C387.158 194.869 387.747 194.841 388.323 194.937C388.898 195.034 389.446 195.253 389.93 195.581L406.909 207.106C407.392 207.434 407.8 207.862 408.103 208.362C408.406 208.862 408.597 209.421 408.665 210.002Z" fill="#0D0C0C"/>
<path id="Vector_21" d="M394.904 174.011C394.891 172.134 394.63 170.266 394.129 168.456C390.794 156.105 378.479 148.691 366.121 150.552C363.717 149.861 361.229 149.512 358.729 149.514C352.368 149.515 346.218 151.794 341.387 155.94C336.557 160.086 333.365 165.827 332.389 172.125L322.406 236.52H376.358L385.069 180.325C385.393 178.237 385.469 176.117 385.296 174.011H394.904Z" fill="#2F2E41"/>
<path id="Vector_22" d="M461.96 480.349H284.088C283.865 480.349 283.65 480.26 283.492 480.102C283.334 479.944 283.245 479.729 283.245 479.505C283.245 479.281 283.334 479.066 283.492 478.907C283.65 478.749 283.865 478.66 284.088 478.66H461.96C462.183 478.66 462.398 478.749 462.556 478.907C462.714 479.066 462.803 479.281 462.803 479.505C462.803 479.729 462.714 479.944 462.556 480.102C462.398 480.26 462.183 480.349 461.96 480.349Z" fill="#CCCCCC"/>
<path id="Vector_23" d="M641.155 65.6069C642.389 65.488 643.633 65.6415 644.801 66.0567C645.969 66.4718 647.032 67.1386 647.915 68.0099C648.798 68.8813 649.48 69.936 649.912 71.0998C650.344 72.2637 650.516 73.5083 650.416 74.7461L677.988 86.9058L664.836 95.4127L640.67 82.5615C638.606 82.2557 636.725 81.2019 635.385 79.5996C634.045 77.9974 633.337 75.9582 633.397 73.8683C633.457 71.7784 634.28 69.7831 635.71 68.2605C637.139 66.7379 639.077 65.7937 641.155 65.6069Z" fill="#A0616A"/>
<path id="Vector_24" d="M752.373 50.4385C763.808 50.4385 773.078 41.1497 773.078 29.6914C773.078 18.2331 763.808 8.94436 752.373 8.94436C740.938 8.94436 731.668 18.2331 731.668 29.6914C731.668 41.1497 740.938 50.4385 752.373 50.4385Z" fill="#A0616A"/>
<path id="Vector_25" d="M714.9 325.523L704.565 325.522L699.648 285.577L714.902 285.578L714.9 325.523Z" fill="#A0616A"/>
<path id="Vector_26" d="M717.536 335.561L684.212 335.56V335.137C684.212 333.431 684.547 331.741 685.199 330.164C685.851 328.587 686.806 327.154 688.011 325.947C689.215 324.74 690.645 323.783 692.219 323.13C693.793 322.477 695.479 322.14 697.183 322.14L717.536 322.141L717.536 335.561Z" fill="#2F2E41"/>
<path id="Vector_27" d="M757.892 325.523L747.557 325.522L742.641 285.577L757.894 285.578L757.892 325.523Z" fill="#A0616A"/>
<path id="Vector_28" d="M760.528 335.561L727.204 335.56V335.137C727.204 333.431 727.54 331.741 728.191 330.164C728.843 328.587 729.799 327.154 731.003 325.947C732.208 324.74 733.637 323.783 735.211 323.13C736.785 322.477 738.471 322.14 740.175 322.14L760.529 322.141L760.528 335.561Z" fill="#2F2E41"/>
<path id="Vector_29" d="M757.402 317.015C757.248 317.014 757.093 317.005 756.94 316.986L741.812 315.12C740.925 315.012 740.106 314.594 739.498 313.939C738.889 313.284 738.531 312.435 738.487 311.542L734.078 212.065C734.063 211.783 733.954 211.514 733.769 211.301C733.584 211.088 733.333 210.943 733.056 210.889C732.779 210.835 732.492 210.876 732.241 211.004C731.99 211.133 731.788 211.342 731.669 211.598L720.344 249.428L718.012 310.193C717.992 310.717 717.864 311.232 717.636 311.704C717.408 312.175 717.085 312.595 716.687 312.936C716.29 313.277 715.826 313.531 715.325 313.684C714.824 313.836 714.298 313.883 713.778 313.821L700.677 312.276C699.741 312.169 698.878 311.714 698.258 311.002C697.639 310.29 697.307 309.372 697.328 308.427L698.44 251.228L707.316 161.442L707.713 161.457L761.683 163.541L761.196 313.226C761.193 314.232 760.792 315.195 760.08 315.906C759.369 316.616 758.406 317.014 757.402 317.015Z" fill="#2F2E41"/>
<path id="Vector_30" d="M759.638 171.746C759.605 171.746 759.572 171.746 759.539 171.745L705.183 170.318C704.651 170.304 704.127 170.178 703.646 169.947C703.165 169.717 702.738 169.388 702.393 168.981C702.048 168.574 701.792 168.099 701.642 167.586C701.492 167.074 701.452 166.535 701.524 166.006L711.969 88.9755C712.621 83.7743 714.36 78.7693 717.074 74.2874C719.787 69.8055 723.414 65.9475 727.716 62.9651C731.5 60.3545 735.799 58.5857 740.322 57.7776C744.845 56.9694 749.488 57.1405 753.94 58.2795C772.912 63.0971 784.294 83.5113 779.312 103.786L763.322 168.854C763.115 169.677 762.641 170.409 761.974 170.932C761.307 171.456 760.485 171.742 759.638 171.746Z" fill="#3F3D56"/>
<path id="Vector_31" d="M688.329 110.577C684.747 110.581 681.242 109.538 678.243 107.574L646.545 86.7351C646.081 86.4301 645.689 86.0268 645.398 85.5537C645.106 85.0806 644.922 84.5492 644.858 83.9969C644.793 83.4445 644.851 82.8849 645.026 82.3573C645.201 81.8296 645.49 81.347 645.871 80.9433L650.647 75.8915C651.167 75.3377 651.842 74.954 652.584 74.7902C653.325 74.6264 654.099 74.6903 654.804 74.9734L690.211 89.1017L723.011 65.6304C724.544 64.533 726.289 63.7665 728.133 63.3794C729.978 62.9924 731.883 62.9932 733.727 63.3818C735.571 63.7705 737.315 64.5384 738.848 65.6372C740.381 66.7359 741.669 68.1415 742.632 69.765C743.595 71.3885 744.21 73.1945 744.441 75.0688C744.671 76.9431 744.51 78.8449 743.969 80.6539C743.428 82.4628 742.518 84.1395 741.297 85.5779C740.076 87.0163 738.57 88.185 736.875 89.0102L696.337 108.741C693.841 109.952 691.102 110.58 688.329 110.577Z" fill="#3F3D56"/>
<path id="Vector_32" d="M759.547 49.5321C763.079 50.3679 767.34 51.0092 769.865 48.3961C770.312 47.9028 770.711 47.3683 771.058 46.7996L774.359 41.7504C776.887 37.8825 779.46 33.9137 780.53 29.416C781.145 26.8315 781.241 24.1504 780.813 21.5284C780.385 18.9064 779.442 16.3957 778.037 14.1421C776.633 11.8886 774.795 9.93724 772.632 8.40128C770.468 6.86533 768.022 5.77545 765.434 5.19496C760.507 4.08938 755.684 2.18713 750.647 2.53412C745.609 2.88111 739.701 2.76719 735.473 -2.67029e-05C735.736 1.23365 737.161 6.68454 737.161 6.68454C737.161 6.68454 730.803 12.5288 729.528 13.9861C731.197 13.2447 733.014 12.8966 734.838 12.9686C736.662 13.0405 738.445 13.5305 740.051 14.4011C741.657 15.2716 743.042 16.4994 744.1 17.9901C745.158 19.4808 745.861 21.1948 746.155 23.0002C746.516 25.2183 746.304 27.6783 747.619 29.4988C748.87 31.2303 751.113 31.837 752.998 32.8367C755.717 34.3883 757.792 36.8621 758.85 39.8119C759.909 42.7617 759.88 45.9934 758.77 48.9241L759.547 49.5321Z" fill="#2F2E41"/>
<path id="Vector_33" d="M734.688 179.177H563.063C560.906 179.174 558.837 178.314 557.312 176.786C555.786 175.257 554.928 173.184 554.926 171.022V83.5525C554.928 81.3906 555.786 79.318 557.312 77.7894C558.837 76.2607 560.906 75.4009 563.063 75.3984H734.688C736.845 75.4009 738.913 76.2607 740.439 77.7894C741.964 79.318 742.823 81.3906 742.825 83.5525V171.023C742.823 173.184 741.964 175.257 740.439 176.786C738.913 178.314 736.845 179.174 734.688 179.177Z" fill="#CCCCCC"/>
<path id="Vector_34" d="M732.715 173.246H565.036C563.924 173.245 562.859 172.802 562.073 172.015C561.287 171.227 560.845 170.159 560.844 169.046V85.5292C560.845 84.4155 561.287 83.3478 562.073 82.5603C562.859 81.7728 563.924 81.3299 565.036 81.3286H732.715C733.826 81.3299 734.892 81.7728 735.678 82.5603C736.463 83.3478 736.906 84.4155 736.907 85.5292V169.046C736.906 170.159 736.463 171.227 735.678 172.015C734.892 172.802 733.826 173.245 732.715 173.246Z" fill="white"/>
<path id="Vector_35" d="M723.005 194.332L704.146 175.436L728.324 176.048V192.125C728.33 192.744 728.15 193.35 727.807 193.865C727.464 194.38 726.973 194.778 726.4 195.009C726.016 195.17 725.604 195.254 725.188 195.255C724.781 195.253 724.379 195.171 724.004 195.013C723.629 194.855 723.29 194.623 723.005 194.332Z" fill="#CCCCCC"/>
<path id="Vector_36" d="M712.299 123.542H627.473C626.426 123.542 625.423 123.126 624.683 122.384C623.943 121.643 623.527 120.637 623.527 119.589C623.527 118.54 623.943 117.535 624.683 116.793C625.423 116.052 626.426 115.635 627.473 115.635H712.299C713.345 115.635 714.349 116.052 715.088 116.793C715.828 117.535 716.244 118.54 716.244 119.589C716.244 120.637 715.828 121.643 715.088 122.384C714.349 123.126 713.345 123.542 712.299 123.542Z" fill="#CCCCCC"/>
<path id="Vector_37" d="M684.681 106.74H627.473C626.954 106.741 626.44 106.639 625.961 106.441C625.482 106.242 625.046 105.951 624.679 105.584C624.312 105.217 624.021 104.781 623.822 104.301C623.624 103.821 623.521 103.306 623.521 102.787C623.521 102.267 623.624 101.752 623.822 101.272C624.021 100.792 624.312 100.356 624.679 99.9891C625.046 99.6219 625.482 99.3308 625.961 99.1325C626.44 98.9341 626.954 98.8324 627.473 98.8332H684.681C685.727 98.8332 686.731 99.2497 687.471 99.9911C688.21 100.733 688.626 101.738 688.626 102.787C688.626 103.835 688.21 104.841 687.471 105.582C686.731 106.324 685.727 106.74 684.681 106.74Z" fill="#CCCCCC"/>
<path id="Vector_38" d="M592.359 123.542C599.168 123.542 604.688 118.011 604.688 111.188C604.688 104.365 599.168 98.8332 592.359 98.8332C585.549 98.8332 580.029 104.365 580.029 111.188C580.029 118.011 585.549 123.542 592.359 123.542Z" fill="#0D0C0C"/>
<path id="Vector_39" d="M686.158 155.742C688.337 155.742 690.104 153.972 690.104 151.788C690.104 149.605 688.337 147.835 686.158 147.835C683.979 147.835 682.213 149.605 682.213 151.788C682.213 153.972 683.979 155.742 686.158 155.742Z" fill="#E6E6E6"/>
<path id="Vector_40" d="M699.967 155.742C702.146 155.742 703.912 153.972 703.912 151.788C703.912 149.605 702.146 147.835 699.967 147.835C697.788 147.835 696.021 149.605 696.021 151.788C696.021 153.972 697.788 155.742 699.967 155.742Z" fill="#E6E6E6"/>
<path id="Vector_41" d="M713.775 155.742C715.954 155.742 717.721 153.972 717.721 151.788C717.721 149.605 715.954 147.835 713.775 147.835C711.597 147.835 709.83 149.605 709.83 151.788C709.83 153.972 711.597 155.742 713.775 155.742Z" fill="#E6E6E6"/>
<path id="Vector_42" d="M732.03 168.774C732.166 167.54 732.571 166.351 733.215 165.29C733.86 164.23 734.729 163.323 735.76 162.636C736.792 161.948 737.962 161.495 739.187 161.309C740.413 161.124 741.664 161.209 742.852 161.561L760.373 137.005L765.991 151.646L748.492 172.72C747.771 174.682 746.357 176.31 744.518 177.297C742.678 178.284 740.541 178.561 738.512 178.074C736.483 177.588 734.702 176.373 733.507 174.659C732.313 172.945 731.787 170.851 732.03 168.774Z" fill="#A0616A"/>
<path id="Vector_43" d="M752.099 167.449C751.823 167.472 751.546 167.465 751.272 167.429C750.722 167.355 750.195 167.161 749.728 166.86C749.261 166.559 748.866 166.159 748.57 165.688L744.867 159.802C744.46 159.16 744.256 158.409 744.281 157.648C744.307 156.887 744.56 156.152 745.009 155.538L767.435 124.661L752.859 87.0067C751.557 83.6937 751.606 80.0007 752.996 76.7237C754.385 73.4467 757.004 70.848 760.288 69.4878C762.144 68.708 764.149 68.3499 766.159 68.4393C768.169 68.5287 770.135 69.0634 771.914 70.0048C773.693 70.9463 775.242 72.2712 776.45 73.8842C777.657 75.4972 778.492 77.3583 778.896 79.3335L787.939 123.574C788.568 126.694 788.383 129.924 787.401 132.951C786.419 135.978 784.673 138.7 782.333 140.852L754.337 166.469C753.72 167.035 752.933 167.38 752.099 167.449Z" fill="#3F3D56"/>
<path id="Vector_44" d="M799.157 337.593H621.285C621.062 337.593 620.847 337.504 620.689 337.345C620.531 337.187 620.442 336.972 620.442 336.748C620.442 336.524 620.531 336.309 620.689 336.151C620.847 335.992 621.062 335.903 621.285 335.903H799.157C799.38 335.903 799.595 335.992 799.753 336.151C799.911 336.309 800 336.524 800 336.748C800 336.972 799.911 337.187 799.753 337.345C799.595 337.504 799.38 337.593 799.157 337.593Z" fill="#CCCCCC"/>
<path id="Vector_45" d="M216.326 127.363H44.7019C42.5444 127.36 40.4761 126.501 38.9505 124.972C37.425 123.443 36.5669 121.371 36.5645 119.209V31.7389C36.5669 29.577 37.425 27.5044 38.9505 25.9758C40.4761 24.4471 42.5444 23.5873 44.7019 23.5848H216.326C218.484 23.5873 220.552 24.4472 222.078 25.9758C223.603 27.5045 224.461 29.577 224.464 31.7389V119.209C224.461 121.371 223.603 123.443 222.078 124.972C220.552 126.501 218.484 127.36 216.326 127.363Z" fill="#CCCCCC"/>
<path id="Vector_46" d="M214.354 121.433H46.6754C45.564 121.432 44.4984 120.989 43.7126 120.201C42.9267 119.414 42.4846 118.346 42.4834 117.232V33.7156C42.4846 32.6019 42.9267 31.5342 43.7126 30.7467C44.4984 29.9592 45.564 29.5163 46.6754 29.5151H214.354C215.466 29.5163 216.531 29.9592 217.317 30.7467C218.103 31.5342 218.545 32.6019 218.546 33.7156V117.232C218.545 118.346 218.103 119.414 217.317 120.201C216.531 120.989 215.466 121.432 214.354 121.433Z" fill="white"/>
<path id="Vector_47" d="M204.643 142.519L185.785 123.622L209.962 124.235V140.311C209.969 140.93 209.789 141.537 209.445 142.051C209.102 142.566 208.612 142.965 208.039 143.196C207.655 143.357 207.243 143.44 206.827 143.441C206.42 143.44 206.017 143.358 205.643 143.199C205.268 143.041 204.928 142.81 204.643 142.519Z" fill="#CCCCCC"/>
<path id="Vector_48" d="M193.938 71.7287H109.112C108.066 71.7287 107.062 71.3121 106.323 70.5707C105.583 69.8293 105.167 68.8237 105.167 67.7752C105.167 66.7267 105.583 65.7211 106.323 64.9797C107.062 64.2383 108.066 63.8217 109.112 63.8217H193.938C194.985 63.8217 195.988 64.2383 196.728 64.9797C197.468 65.7211 197.884 66.7267 197.884 67.7752C197.884 68.8237 197.468 69.8293 196.728 70.5707C195.988 71.3121 194.985 71.7287 193.938 71.7287Z" fill="#CCCCCC"/>
<path id="Vector_49" d="M166.321 54.9265H109.112C108.066 54.9265 107.062 54.51 106.323 53.7686C105.583 53.0271 105.167 52.0216 105.167 50.973C105.167 49.9245 105.583 48.9189 106.323 48.1775C107.062 47.4361 108.066 47.0196 109.112 47.0196H166.321C167.367 47.0196 168.37 47.4361 169.11 48.1775C169.85 48.9189 170.266 49.9245 170.266 50.973C170.266 52.0216 169.85 53.0271 169.11 53.7686C168.37 54.51 167.367 54.9265 166.321 54.9265Z" fill="#CCCCCC"/>
<path id="Vector_50" d="M73.9983 71.7286C80.8076 71.7286 86.3276 66.1973 86.3276 59.3741C86.3276 52.5509 80.8076 47.0196 73.9983 47.0196C67.189 47.0196 61.6689 52.5509 61.6689 59.3741C61.6689 66.1973 67.189 71.7286 73.9983 71.7286Z" fill="#0D0C0C"/>
<path id="Vector_51" d="M167.797 103.928C169.976 103.928 171.742 102.158 171.742 99.9747C171.742 97.7913 169.976 96.0213 167.797 96.0213C165.618 96.0213 163.852 97.7913 163.852 99.9747C163.852 102.158 165.618 103.928 167.797 103.928Z" fill="#E6E6E6"/>
<path id="Vector_52" d="M181.607 103.928C183.786 103.928 185.552 102.158 185.552 99.9747C185.552 97.7913 183.786 96.0213 181.607 96.0213C179.428 96.0213 177.661 97.7913 177.661 99.9747C177.661 102.158 179.428 103.928 181.607 103.928Z" fill="#E6E6E6"/>
<path id="Vector_53" d="M195.415 103.928C197.594 103.928 199.361 102.158 199.361 99.9747C199.361 97.7913 197.594 96.0213 195.415 96.0213C193.236 96.0213 191.47 97.7913 191.47 99.9747C191.47 102.158 193.236 103.928 195.415 103.928Z" fill="#E6E6E6"/>
<path id="Vector_54" d="M209.209 15.1807C208.043 15.6013 206.983 16.273 206.104 17.1485C205.225 18.0239 204.548 19.0818 204.122 20.2477C203.695 21.4135 203.528 22.6589 203.634 23.8962C203.739 25.1335 204.114 26.3326 204.732 27.4089L184.989 50.2079L200.508 52.268L216.877 30.3019C218.613 29.1416 219.863 27.3837 220.392 25.3612C220.921 23.3387 220.691 21.1922 219.745 19.3283C218.8 17.4645 217.206 16.0128 215.264 15.2483C213.322 14.4839 211.167 14.4599 209.209 15.1807Z" fill="#FFB8B8"/>
<path id="Vector_55" d="M77.3851 24.3083C77.8062 25.4762 77.9667 26.7225 77.8551 27.9592C77.7436 29.196 77.3628 30.3932 76.7396 31.4665C76.1163 32.5399 75.2658 33.4632 74.2479 34.1716C73.23 34.8799 72.0695 35.356 70.8482 35.5663L65.9352 65.3479L54.4473 54.6922L60.874 28.0448C60.6574 25.9653 61.2096 23.8785 62.4259 22.1798C63.6422 20.481 65.4381 19.2884 67.4733 18.8278C69.5085 18.3672 71.6416 18.6708 73.4684 19.6808C75.2952 20.6909 76.6888 22.3374 77.3851 24.3083Z" fill="#FFB8B8"/>
<path id="Vector_56" d="M108.239 325.523L118.574 325.522L123.49 285.577L108.237 285.578L108.239 325.523Z" fill="#FFB8B8"/>
<path id="Vector_57" d="M105.604 322.141L125.957 322.14H125.957C127.661 322.14 129.347 322.477 130.921 323.13C132.495 323.783 133.925 324.74 135.129 325.947C136.334 327.154 137.289 328.587 137.941 330.164C138.593 331.741 138.928 333.431 138.928 335.137V335.56L105.604 335.561L105.604 322.141Z" fill="#2F2E41"/>
<path id="Vector_58" d="M55.1306 325.523L65.4657 325.522L70.382 285.577L55.1289 285.578L55.1306 325.523Z" fill="#FFB8B8"/>
<path id="Vector_59" d="M52.4941 322.141L72.8472 322.14H72.848C74.5514 322.14 76.238 322.477 77.8117 323.13C79.3854 323.783 80.8153 324.74 82.0197 325.947C83.2242 327.154 84.1796 328.587 84.8314 330.164C85.4832 331.741 85.8187 333.431 85.8187 335.137V335.56L52.4948 335.561L52.4941 322.141Z" fill="#2F2E41"/>
<path id="Vector_60" d="M106.082 52.8015C117.517 52.8015 126.786 43.5128 126.786 32.0545C126.786 20.5962 117.517 11.3074 106.082 11.3074C94.6468 11.3074 85.377 20.5962 85.377 32.0545C85.377 43.5128 94.6468 52.8015 106.082 52.8015Z" fill="#FFB8B8"/>
<path id="Vector_61" d="M103.6 312.253L101.888 202.941C101.884 202.632 101.767 202.336 101.559 202.107C101.352 201.878 101.068 201.733 100.762 201.7C100.455 201.666 100.147 201.746 99.8949 201.924C99.6429 202.102 99.4647 202.367 99.3936 202.667L71.3296 309.588C71.1184 310.444 70.6205 311.201 69.9191 311.733C69.2177 312.264 68.3553 312.539 67.4762 312.51L52.0579 311.849C51.5337 311.827 51.0199 311.695 50.549 311.464C50.078 311.232 49.6601 310.905 49.3217 310.503C48.9833 310.102 48.7317 309.634 48.5828 309.13C48.4339 308.626 48.3909 308.096 48.4566 307.575L72.2702 170.175L72.3189 169.787L138.647 172.932L139.08 172.951L124.857 312.481C124.782 313.436 124.352 314.329 123.651 314.98C122.95 315.632 122.03 315.996 121.074 316H107.393C106.398 315.996 105.443 315.602 104.734 314.901C104.025 314.201 103.618 313.25 103.6 312.253Z" fill="#2F2E41"/>
<path id="Vector_62" d="M155.988 182.191L59.737 174.276C59.156 174.229 58.5939 174.047 58.0942 173.747C57.5944 173.446 57.1706 173.034 56.8556 172.542C56.5405 172.051 56.3428 171.493 56.2776 170.913C56.2125 170.333 56.2818 169.745 56.4801 169.196L71.6377 127.203L72.5099 77.3626C72.5415 75.5533 72.9314 73.7683 73.6568 72.1112C74.3822 70.4541 75.4288 68.9578 76.7358 67.7091C78.0428 66.4604 79.5843 65.4842 81.2707 64.8371C82.9571 64.19 84.755 63.8849 86.5601 63.9395L92.9609 58.1255H116.413L118.455 60.8081L134.773 63.3208C137.679 63.7806 140.361 65.1647 142.422 67.2687C144.484 69.3728 145.815 72.0853 146.221 75.0058L160.058 177.896C160.13 178.433 160.086 178.979 159.931 179.497C159.775 180.016 159.511 180.495 159.155 180.903C158.8 181.311 158.361 181.638 157.87 181.863C157.378 182.087 156.844 182.204 156.303 182.204C156.199 182.204 156.093 182.2 155.988 182.191Z" fill="#2F2E41"/>
<path id="Vector_63" d="M137.234 68.1524L178.274 56.1036L196.848 31.6003C197.359 30.9254 198.081 30.4411 198.898 30.2244C199.716 30.0076 200.582 30.0709 201.36 30.4042L212.956 35.371C213.451 35.5827 213.894 35.8973 214.258 36.294C214.622 36.6907 214.898 37.1603 215.067 37.6718C215.235 38.1833 215.294 38.7249 215.238 39.2608C215.182 39.7966 215.013 40.3145 214.743 40.7799L200.862 64.6481C198.602 68.5524 195.162 71.6357 191.038 73.4524L142.767 94.8343L137.234 68.1524Z" fill="#2F2E41"/>
<path id="Vector_64" d="M58.4982 86.176C56.0456 84.4055 54.0898 82.0316 52.8193 79.2832C51.5489 76.5348 51.0068 73.5047 51.2453 70.4852L53.0463 46.5734C53.1206 45.6183 53.5511 44.7263 54.2521 44.0749C54.9531 43.4236 55.8732 43.0606 56.8293 43.0584H56.8628L70.4618 43.1797C71.0189 43.1848 71.5681 43.3127 72.0702 43.5545C72.5724 43.7962 73.0153 44.1458 73.3674 44.5784C73.7196 45.0111 73.9723 45.5161 74.1077 46.0576C74.2431 46.5991 74.2578 47.1639 74.1508 47.7118L71.6275 60.6118L89.634 68.2357L74.471 97.7949L58.4982 86.176Z" fill="#2F2E41"/>
<path id="Vector_65" d="M118.127 7.17677C118.127 7.17677 96.4745 -4.50581 84.6726 9.28214C72.8707 23.0701 89.169 44.6314 89.169 44.6314L112.392 47.5663C112.392 47.5663 113.235 31.7478 118.764 32.0549C124.293 32.3619 141.465 12.4013 118.127 7.17677Z" fill="#2F2E41"/>
<path id="Vector_66" d="M178.714 336.748H0.842993C0.619417 336.748 0.404998 336.659 0.246906 336.5C0.0888144 336.342 0 336.127 0 335.903C0 335.679 0.0888144 335.464 0.246906 335.306C0.404998 335.147 0.619417 335.058 0.842993 335.058H178.714C178.938 335.058 179.152 335.147 179.311 335.306C179.469 335.464 179.557 335.679 179.557 335.903C179.557 336.127 179.469 336.342 179.311 336.5C179.152 336.659 178.938 336.748 178.714 336.748Z" fill="#CCCCCC"/>
</g>
<defs>
<clipPath id="clip0_251_9">
<rect width="800" height="480.349" fill="white"/>
</clipPath>
</defs>
</svg>
