<svg width="100" height="100" viewBox="0 0 100 100" fill="none" xmlns="http://www.w3.org/2000/svg">
<g id="bxl-tailwind-css.svg">
<path id="Vector" d="M77.0835 39.625C73.9587 38.5488 71.2005 36.6137 69.1252 34.0416C66.8379 31.1759 63.9254 28.8714 60.6106 27.3042C57.2958 25.7371 53.6664 24.9489 50.0002 25C45.0684 24.6507 40.1859 26.1718 36.3252 29.2604C32.4644 32.349 29.9087 36.7784 29.1668 41.6666C30.628 39.2218 32.8271 37.3036 35.4476 36.188C38.0682 35.0723 40.9752 34.8169 43.7502 35.4583C46.8697 36.5658 49.6234 38.5122 51.7085 41.0833C54.0083 43.9261 56.9263 46.2069 60.2405 47.752C63.5546 49.2972 67.1775 50.066 70.8335 50C75.7653 50.3492 80.6477 48.8281 84.5085 45.7395C88.3692 42.6509 90.925 38.2215 91.6668 33.3333C90.2322 35.8074 88.0401 37.7546 85.4142 38.8875C82.7883 40.0204 79.8676 40.2789 77.0835 39.625ZM22.9168 60.375C26.0416 61.4512 28.7998 63.3863 30.8752 65.9583C33.1625 68.824 36.0749 71.1286 39.3897 72.6957C42.7046 74.2628 46.3339 75.051 50.0002 75C54.932 75.3492 59.8144 73.8281 63.6751 70.7395C67.5359 67.6509 70.0917 63.2215 70.8335 58.3333C69.3724 60.7781 67.1733 62.6964 64.5527 63.812C61.9321 64.9276 59.0252 65.1831 56.2502 64.5416C53.1306 63.4341 50.3769 61.4878 48.2918 58.9166C45.9858 56.0809 43.0666 53.8051 39.7539 52.2606C36.4413 50.7162 32.8214 49.9432 29.1668 50C24.235 49.6507 19.3526 51.1718 15.4919 54.2604C11.6311 57.349 9.07534 61.7784 8.3335 66.6666C9.76811 64.1926 11.9602 62.2454 14.5861 61.1125C17.2121 59.9796 20.1327 59.721 22.9168 60.375Z" fill="#0D0C0C"/>
</g>
</svg>
