<svg width="100" height="100" viewBox="0 0 100 100" fill="none" xmlns="http://www.w3.org/2000/svg">
<g id="bxl-figma.svg">
<path id="Vector" d="M63.8834 36.1166C67.4928 36.0083 70.9181 34.4983 73.4329 31.9069C75.9477 29.3155 77.3542 25.8464 77.3542 22.2354C77.3542 18.6243 75.9477 15.1553 73.4329 12.5638C70.9181 9.97242 67.4928 8.46245 63.8834 8.35413H36.1167C32.5073 8.46245 29.082 9.97242 26.5671 12.5638C24.0523 15.1553 22.6458 18.6243 22.6458 22.2354C22.6458 25.8464 24.0523 29.3155 26.5671 31.9069C29.082 34.4983 32.5073 36.0083 36.1167 36.1166C32.4757 36.1797 29.0052 37.6704 26.4526 40.2675C23.9 42.8647 22.4697 46.3605 22.4697 50.002C22.4697 53.6436 23.9 57.1394 26.4526 59.7366C29.0052 62.3337 32.4757 63.8244 36.1167 63.8875C32.4935 63.9762 29.0485 65.4779 26.5174 68.0719C23.9862 70.6658 22.5693 74.1465 22.5693 77.7708C22.5693 81.3951 23.9862 84.8758 26.5174 87.4697C29.0485 90.0637 32.4935 91.5654 36.1167 91.6541C39.7988 91.6519 43.3294 90.1879 45.9327 87.5839C48.536 84.9798 49.9989 81.4488 50 77.7666V36.1166H63.8834Z" fill="black"/>
<path id="Vector_2" d="M63.8833 63.8834C71.5509 63.8834 77.7667 57.6676 77.7667 50C77.7667 42.3325 71.5509 36.1167 63.8833 36.1167C56.2158 36.1167 50 42.3325 50 50C50 57.6676 56.2158 63.8834 63.8833 63.8834Z" fill="black"/>
</g>
</svg>
