<svg width="100" height="100" viewBox="0 0 100 100" fill="none" xmlns="http://www.w3.org/2000/svg">
<g id="bxl-bootstrap.svg">
<path id="Vector" d="M75.0081 12.4875H24.9956C21.6805 12.4974 18.5041 13.819 16.1604 16.1636C13.8166 18.5081 12.4961 21.685 12.4873 25V75.0084C12.4994 78.3217 13.8212 81.4958 16.1645 83.8383C18.5078 86.1808 21.6823 87.5016 24.9956 87.5126H75.0081C78.3207 87.5005 81.4942 86.1792 83.8366 83.8368C86.1789 81.4944 87.5002 78.321 87.5123 75.0084V25C87.5024 21.686 86.1821 18.5104 83.8395 16.1662C81.4969 13.8221 78.3222 12.4996 75.0081 12.4875ZM68.1748 65.1834C67.5415 66.6834 66.554 68.0167 65.2873 69.0459C63.7894 70.2092 62.0842 71.0773 60.2623 71.6042C58.2206 72.2334 55.7873 72.5584 52.9706 72.5584H32.8665V28.7875H54.129C58.0581 28.7875 61.2123 29.675 63.5748 31.4792C65.9456 33.2959 67.1331 35.9875 67.1331 39.6375C67.1331 41.8375 66.5915 43.7334 65.5123 45.2917C64.4331 46.8459 62.8873 48.0584 60.8831 48.9084V49.05C63.5581 49.6125 65.6206 50.875 66.9831 52.85C68.3456 54.8209 69.0373 57.3042 69.0373 60.3042C69.0373 61.9917 68.7123 63.5875 68.0998 65.0834L68.1831 65.1709V65.1834H68.1748ZM59.4915 54.3959C58.204 53.2209 56.4123 52.65 54.0873 52.65H40.5706V66.3H54.1248C56.4331 66.3 58.254 65.7001 59.5331 64.4875C60.8165 63.2834 61.4665 61.5667 61.4665 59.3667C61.4456 57.2084 60.8165 55.5375 59.5331 54.3959H59.4748H59.4915ZM57.6123 45.5667C58.8581 44.5209 59.4623 43.0126 59.4623 41.0501C59.4623 38.8584 58.9165 37.2917 57.8081 36.4C56.7081 35.5084 55.1165 35.0417 53.0331 35.0417H40.529V47.1167H53.0331C54.8498 47.1209 56.4081 46.5875 57.6123 45.5667Z" fill="#0D0C0C"/>
</g>
</svg>
