<svg width="100" height="100" viewBox="0 0 100 100" fill="none" xmlns="http://www.w3.org/2000/svg">
<g id="bxl-react.svg">
<path id="Vector" d="M50 54.2915C54.1076 54.2915 57.4375 50.9616 57.4375 46.854C57.4375 42.7464 54.1076 39.4165 50 39.4165C45.8924 39.4165 42.5625 42.7464 42.5625 46.854C42.5625 50.9616 45.8924 54.2915 50 54.2915Z" fill="#C1C2CA"/>
<path id="Vector_2" d="M29.175 61.6418L27.5291 61.2209C15.3041 58.1334 8.29163 52.8834 8.29163 46.8376C8.29163 40.7876 15.3083 35.5418 27.5291 32.4543L29.175 32.0376L29.6375 33.6668C30.8731 37.9322 32.4561 42.0892 34.3708 46.0959L34.725 46.8376L34.3708 47.5793C32.4541 51.5918 30.8666 55.7501 29.6375 60.0168L29.175 61.6418ZM26.7708 36.2459C17.4833 38.8626 11.7791 42.8543 11.7791 46.8376C11.7791 50.8126 17.4791 54.8084 26.7708 57.4209C27.9083 53.8043 29.2833 50.2668 30.875 46.8376C29.2718 43.4027 27.9006 39.8642 26.7708 36.2459ZM70.8208 61.6418L70.3625 60.0084C69.1236 55.7422 67.5392 51.584 65.625 47.5751L65.2708 46.8376L65.625 46.0918C67.5416 42.0876 69.1208 37.9251 70.3625 33.6584L70.8208 32.0334L72.4666 32.4501C84.6958 35.5376 91.7041 40.7834 91.7041 46.8376C91.7041 52.8876 84.6916 58.1334 72.4666 61.2209L70.8208 61.6418ZM69.1125 46.8376C70.7791 50.4459 72.1666 53.9959 73.225 57.4209C82.5166 54.8084 88.2208 50.8126 88.2208 46.8376C88.2208 42.8543 82.5208 38.8668 73.225 36.2459C72.0886 39.8631 70.7148 43.4014 69.1125 46.8376Z" fill="#C1C2CA"/>
<path id="Vector_3" d="M26.7458 36.2292L26.2875 34.6042C22.8458 22.4876 23.8875 13.8084 29.15 10.7834C34.2958 7.80424 42.575 11.3251 51.2458 20.2209L52.4292 21.4376L51.2458 22.6501C48.1662 25.8529 45.3514 29.3004 42.8292 32.9584L42.3583 33.6334L41.5417 33.7001C37.1066 34.0484 32.7073 34.7577 28.3875 35.8209L26.7458 36.2292ZM33.3375 13.1917C32.4042 13.1917 31.5792 13.3959 30.8833 13.7959C27.4333 15.7834 26.825 22.7042 29.2 32.0459C32.9125 31.2251 36.6583 30.6376 40.4333 30.3084C42.6188 27.2086 45.003 24.2538 47.5708 21.4626C42.1417 16.1834 37.0167 13.1917 33.3375 13.1917ZM66.6583 83.9584C61.7083 83.9584 55.35 80.2251 48.75 73.4501L47.5708 72.2376L48.75 71.0292C51.8302 67.8212 54.6463 64.3697 57.1708 60.7084L57.6375 60.0417L58.4458 59.9626C62.8825 59.6204 67.2834 58.9139 71.6042 57.8501L73.25 57.4334L73.7125 59.0626C77.1375 71.1709 76.1 79.8626 70.8458 82.8876C69.5701 83.6107 68.1246 83.9803 66.6583 83.9584ZM52.4292 72.2084C57.8542 77.4876 62.9833 80.4834 66.6583 80.4834C67.5958 80.4834 68.4208 80.2751 69.1125 79.8792C72.5667 77.8876 73.1792 70.9542 70.7958 61.6126C67.0875 62.4376 63.3375 63.0292 59.5542 63.3584C57.378 66.4631 54.9977 69.4196 52.4292 72.2084Z" fill="#C1C2CA"/>
<path id="Vector_4" d="M73.25 36.2292L71.6041 35.8167C67.2836 34.7502 62.8827 34.0408 58.4458 33.6959L57.6375 33.625L57.1708 32.95C54.6498 29.29 51.8334 25.8424 48.75 22.6417L47.5708 21.4292L48.75 20.2209C57.4167 11.3292 65.6917 7.80837 70.8458 10.7834C76.1042 13.8125 77.15 22.4917 73.7125 34.6042L73.25 36.2292ZM59.5542 30.3084C63.5292 30.6625 67.2958 31.2584 70.7958 32.0459C73.175 22.7042 72.5667 15.7834 69.1125 13.7917C65.6792 11.8042 59.2167 14.8459 52.4292 21.4625C54.9958 24.2542 57.3792 27.2042 59.5542 30.3084ZM33.3375 83.9584C31.8714 83.9793 30.4261 83.6097 29.15 82.8875C23.8875 79.8625 22.8458 71.175 26.2833 59.0625L26.7333 57.4334L28.3792 57.85C32.3958 58.8625 36.8208 59.575 41.5375 59.9625L42.3458 60.0417L42.8167 60.7084C45.3333 64.3667 48.15 67.8209 51.2333 71.0292L52.4167 72.2375L51.2333 73.45C44.6375 80.2292 38.2792 83.9584 33.3375 83.9584ZM29.2 61.6167C26.825 70.9584 27.4333 77.8917 30.8833 79.8834C34.3208 81.8417 40.7625 78.8209 47.5708 72.2084C45.004 69.4163 42.6198 66.4615 40.4333 63.3625C36.6545 63.0284 32.9019 62.4451 29.2 61.6167Z" fill="#C1C2CA"/>
<path id="Vector_5" d="M50 63.8041C47.1375 63.8041 44.2 63.6833 41.25 63.4375L40.4333 63.3666L39.9625 62.6916C38.299 60.2996 36.7338 57.8406 35.2708 55.3208C33.8187 52.7943 32.469 50.2102 31.225 47.575L30.875 46.8375L31.225 46.0916C32.4708 43.4583 33.8167 40.875 35.2708 38.35C36.7167 35.8666 38.2958 33.3833 39.9625 30.975L40.4333 30.3083L41.25 30.2333C47.0704 29.7458 52.9213 29.7458 58.7417 30.2333L59.55 30.3125L60.0208 30.9791C63.3533 35.7656 66.2802 40.8221 68.7708 46.0958L69.1167 46.8416L68.7708 47.5791C66.287 52.8565 63.3599 57.9135 60.0208 62.6958L59.55 63.3708L58.7417 63.4416C55.8 63.6791 52.8583 63.8041 50 63.8041ZM42.3583 60.0375C47.5042 60.425 52.4958 60.425 57.6375 60.0375C60.5079 55.8342 63.0594 51.4218 65.2708 46.8375C63.0673 42.249 60.5153 37.8361 57.6375 33.6375C52.552 33.2458 47.4439 33.2458 42.3583 33.6375C39.4781 37.8345 36.9261 42.2476 34.725 46.8375C36.9412 51.4193 39.4925 55.8313 42.3583 60.0375Z" fill="#C1C2CA"/>
</g>
</svg>
