<svg width="101" height="100" viewBox="0 0 101 100" fill="none" xmlns="http://www.w3.org/2000/svg">
<g id="github">
<path id="Vector" d="M50.8324 9.92505C3.29489 10.9209 -6.59678 74.7084 37.8699 90.0084C39.9449 90.3959 40.7199 89.0959 40.7199 88.0167V81.0167C29.0949 83.5209 26.6366 75.5292 26.6366 75.5292C25.8564 73.028 24.1973 70.8937 21.9657 69.5209C18.2074 66.9709 22.2657 67.0125 22.2657 67.0125C23.5949 67.1876 24.8651 67.6695 25.9758 68.4202C27.0866 69.1708 28.0075 70.1696 28.6657 71.3375C29.8443 73.3893 31.7812 74.8964 34.0597 75.5346C36.3382 76.1728 38.7762 75.8911 40.8491 74.75C41.0657 72.6667 41.9949 70.7292 43.4866 69.2625C34.1949 68.2209 24.4699 64.6792 24.4699 48.95C24.4123 44.8517 25.9653 40.8945 28.7949 37.9292C27.486 34.3573 27.6402 30.413 29.2241 26.9542C29.2241 26.9542 32.7241 25.8709 40.7241 31.275C47.5724 29.4166 54.7923 29.4166 61.6407 31.275C69.5907 25.9584 73.0907 26.95 73.0907 26.95C74.6116 30.4 74.7491 34.2959 73.4782 37.8417C76.3067 40.8074 77.8582 44.7647 77.799 48.8625C77.799 64.6375 68.0324 68.1375 58.7407 69.1334C63.0657 71.425 61.2491 86.1584 61.5074 87.975C61.5074 89.0542 62.2407 90.35 64.4032 89.9625C108.745 74.7959 98.3699 10.9209 50.8324 9.92505Z" fill="black"/>
</g>
</svg>
