<svg width="100" height="100" viewBox="0 0 100 100" fill="none" xmlns="http://www.w3.org/2000/svg">
<g id="illustrator">
<path id="Vector" d="M43.375 39.5C44.8333 44.25 46.3333 49 47.8333 53.8333H39C40.5 49 41.9167 44.25 43.375 39.5Z" fill="#C1C2CA"/>
<path id="Vector_2" d="M70.8334 8.3335H29.1667C23.6414 8.3335 18.3423 10.5284 14.4353 14.4354C10.5283 18.3424 8.33337 23.6415 8.33337 29.1668V70.8335C8.33337 76.3588 10.5283 81.6579 14.4353 85.5649C18.3423 89.4719 23.6414 91.6668 29.1667 91.6668H70.8334C76.3587 91.6668 81.6578 89.4719 85.5648 85.5649C89.4718 81.6579 91.6667 76.3588 91.6667 70.8335V29.1668C91.6667 23.6415 89.4718 18.3424 85.5648 14.4354C81.6578 10.5284 76.3587 8.3335 70.8334 8.3335ZM60.375 69.9168H53.875C53.6158 69.9528 53.3527 69.8857 53.1424 69.7299C52.932 69.5741 52.7912 69.342 52.75 69.0835C51.9584 66.7502 51.125 64.4168 50.3334 62.0418C50.3084 61.8929 50.2538 61.7506 50.1726 61.6232C50.0915 61.4959 49.9856 61.3862 49.8612 61.3006C49.7368 61.2151 49.5964 61.1555 49.4484 61.1253C49.3005 61.0952 49.148 61.0951 49 61.1252H37.9167C37.7628 61.0888 37.6029 61.0854 37.4476 61.115C37.2922 61.1447 37.1449 61.2067 37.0151 61.2972C36.8854 61.3876 36.7761 61.5044 36.6946 61.6398C36.613 61.7753 36.5609 61.9265 36.5417 62.0835C35.8334 64.4168 35.0417 66.6668 34.3334 69.0002C34.3136 69.1474 34.2637 69.2889 34.1868 69.4161C34.11 69.5432 34.0078 69.6532 33.8867 69.7391C33.7656 69.8251 33.628 69.8852 33.4827 69.9158C33.3373 69.9464 33.1872 69.9467 33.0417 69.9168H27.3334C26.3334 69.9168 26.25 69.9168 26.5834 68.8752L35.5834 42.9168C36.4167 40.5418 37.25 38.1668 38 35.7918C38.2122 35.0888 38.3244 34.3594 38.3334 33.6252C38.3334 32.7502 38.6667 32.5418 39.4584 32.5835H47.4167C48 32.5835 48.2917 32.5835 48.5 33.3752L58.75 62.2502C59.5417 64.5002 60.3334 66.7085 61.0834 68.9168C61.4167 69.8335 61.375 69.9168 60.375 69.9168ZM73.125 69.2085C73.125 69.9168 72.8334 70.1252 72.1667 70.1252H66.1667C65.3334 70.1252 65.125 69.7918 65.125 69.0418V42.8752C65.125 42.0418 65.375 41.7085 66.25 41.7502H72.125C72.7917 41.7502 73.125 41.7502 73.125 42.6668C73.0959 51.5002 73.0959 60.346 73.125 69.2085ZM68.9584 38.7918C68.3613 38.8297 67.7631 38.7386 67.2045 38.5247C66.6458 38.3108 66.1397 37.9791 65.7207 37.5522C65.3016 37.1252 64.9794 36.613 64.776 36.0504C64.5725 35.4878 64.4926 34.888 64.5417 34.2918C64.5476 33.6994 64.6714 33.114 64.9059 32.5699C65.1404 32.0258 65.4808 31.5338 65.9075 31.1227C66.3341 30.7115 66.8384 30.3895 67.3908 30.1753C67.9432 29.9611 68.5328 29.8591 69.125 29.8752C69.7014 29.8733 70.2719 29.9911 70.8005 30.221C71.329 30.4509 71.8041 30.788 72.1957 31.2109C72.5873 31.6339 72.8869 32.1335 73.0756 32.6781C73.2642 33.2228 73.3378 33.8006 73.2917 34.3752C73.3258 34.943 73.2433 35.5118 73.0493 36.0466C72.8552 36.5813 72.5537 37.0706 72.1633 37.4844C71.773 37.8982 71.302 38.2277 70.7795 38.4525C70.257 38.6774 69.6939 38.7929 69.125 38.7918H68.9584Z" fill="#C1C2CA"/>
<path id="Vector_3" d="M47.8333 53.8333H39C40.5 49 41.9167 44.25 43.1667 39.5C44.8333 44.25 46.3333 49 47.8333 53.8333Z" fill="#C1C2CA"/>
</g>
</svg>
