<svg width="101" height="100" viewBox="0 0 101 100" fill="none" xmlns="http://www.w3.org/2000/svg">
<g id="photoshop">
<path id="Vector" d="M44.5278 43.6667C44.5909 44.9318 44.2085 46.179 43.4473 47.1915C42.6861 48.2039 41.5941 48.9176 40.3612 49.2083C38.1856 49.8483 35.9176 50.1159 33.6528 50C33.0695 50 33.0278 49.625 33.0278 49.2083V38.5833C33.0278 38.2917 33.3195 37.7917 33.4862 37.7917C35.8697 37.5256 38.2814 37.6808 40.6112 38.25C41.7836 38.5713 42.8111 39.2835 43.5234 40.2686C44.2357 41.2537 44.5901 42.4526 44.5278 43.6667Z" fill="#0D0C0C"/>
<path id="Vector_2" d="M71.8198 8.33337H30.1532C24.6278 8.33337 19.3288 10.5283 15.4218 14.4353C11.5148 18.3423 9.31982 23.6414 9.31982 29.1667V70.8334C9.31982 76.3587 11.5148 81.6578 15.4218 85.5648C19.3288 89.4718 24.6278 91.6667 30.1532 91.6667H71.8198C77.3452 91.6667 82.6442 89.4718 86.5512 85.5648C90.4582 81.6578 92.6532 76.3587 92.6532 70.8334V29.1667C92.6532 23.6414 90.4582 18.3423 86.5512 14.4353C82.6442 10.5283 77.3452 8.33337 71.8198 8.33337ZM46.8198 54.1667C44.7186 55.5057 42.3077 56.2806 39.8198 56.4167H34.2365C33.0698 56.4167 33.0698 56.4167 33.0698 57.5417V67.2084C33.0698 68.0417 32.8198 68.2917 31.9865 68.2917H26.4865C25.6948 68.2917 25.4865 68 25.4865 67.25V32.125C25.4865 31.2917 25.4865 31.0417 26.5282 31.0417H39.5698C41.9503 31.1062 44.2744 31.7805 46.3198 33C48.0863 33.9954 49.557 35.4416 50.5818 37.1912C51.6066 38.9407 52.1489 40.9308 52.1532 42.9584C52.3942 45.1377 52.0228 47.3412 51.0806 49.3211C50.1385 51.301 48.663 52.9791 46.8198 54.1667ZM71.4865 67.9167C67.8618 69.3233 63.8961 69.5993 60.1115 68.7084C58.9782 68.4584 57.8615 68.125 56.7782 67.7084C56.6106 67.6298 56.4634 67.5138 56.3478 67.3693C56.2323 67.2248 56.1514 67.0557 56.1115 66.875V60.5834C57.4448 61.0834 58.6948 61.6667 59.9865 62.0834C62.1512 62.7752 64.4432 62.9745 66.6948 62.6667C67.1407 62.5834 67.5782 62.4459 67.9865 62.25C68.2307 62.1431 68.443 61.9747 68.6026 61.7612C68.7623 61.5477 68.8639 61.2965 68.8975 61.0321C68.931 60.7676 68.8955 60.499 68.7942 60.2524C68.693 60.0057 68.5295 59.7896 68.3198 59.625C67.3667 58.9652 66.3472 58.4066 65.2782 57.9584C63.5698 57.125 61.8198 56.4584 60.1948 55.5C58.7276 54.7862 57.5297 53.6183 56.7791 52.1696C56.0285 50.7208 55.7651 49.0687 56.0282 47.4584C56.2401 45.9086 56.8839 44.4497 57.886 43.2487C58.8881 42.0476 60.2081 41.1528 61.6948 40.6667C64.3749 39.7622 67.2339 39.5192 70.0282 39.9584C71.3615 39.9584 72.6532 40.4584 73.9865 40.7084C74.6948 40.7084 74.9448 41.2917 74.9032 42V46.875C74.9032 47.7917 74.6948 47.875 73.8615 47.5417C71.2591 46.3369 68.3825 45.8478 65.5282 46.125C65.1238 46.1721 64.7297 46.2847 64.3615 46.4584C64.1115 46.5565 63.8915 46.7183 63.7233 46.9276C63.5551 47.1369 63.4444 47.3865 63.4023 47.6517C63.3602 47.9169 63.3882 48.1885 63.4833 48.4396C63.5785 48.6907 63.7375 48.9126 63.9448 49.0834C65.149 49.8834 66.4157 50.5834 67.7365 51.1667C69.3198 51.9584 70.9865 52.5834 72.5282 53.4584C73.9271 54.0949 75.0859 55.162 75.8355 56.5037C76.5851 57.8455 76.8862 59.3917 76.6948 60.9167C76.5631 62.438 75.9988 63.8898 75.0685 65.1006C74.1382 66.3115 72.8808 67.2308 71.4448 67.75L71.4865 67.9167Z" fill="#0D0C0C"/>
</g>
</svg>
