<svg width="150" height="100" viewBox="0 0 150 100" fill="none" xmlns="http://www.w3.org/2000/svg">
<path d="M43.504 0C47.9196 0 51.8929 0.406798 55.5363 1.23634C59.1573 2.05791 62.246 3.4139 64.8549 5.28835C67.4263 7.1628 69.4354 9.65143 70.8823 12.7782C72.2842 15.865 72.9814 19.7256 72.9814 24.2881C72.9814 29.2335 71.9318 33.3652 69.8252 36.6595C67.7036 39.9617 64.5775 42.6657 60.4092 44.7555C66.0843 46.5024 70.29 49.5573 73.0789 53.8965C75.8827 58.2755 77.2546 63.516 77.2546 69.6578C77.2546 74.6431 76.3624 78.9264 74.5707 82.5237C72.8441 86.0675 70.3393 89.1157 67.2688 91.4094C64.0884 93.7658 60.536 95.4949 56.7808 96.5143C52.8436 97.6139 48.789 98.1663 44.7184 98.1575H0V0H43.504ZM40.8726 39.6586C44.471 39.6586 47.4548 38.7493 49.8088 36.9068C52.1478 35.0881 53.2798 32.089 53.2798 27.9812C53.2798 25.6999 52.8975 23.8175 52.1478 22.3419C51.4174 20.9222 50.3364 19.7418 49.0216 18.928C47.6454 18.0596 46.1266 17.4776 44.546 17.213C42.8232 16.8712 41.0732 16.7082 39.3207 16.7265H20.3163V39.6586H40.8726ZM42.0046 81.4469C44.0062 81.4469 45.9104 81.2635 47.7022 80.8327C49.5089 80.418 51.1132 79.7479 52.4776 78.7509C53.8421 77.7937 54.9666 76.4936 55.7762 74.8345C56.5934 73.1914 56.9907 71.0457 56.9907 68.4693C56.9907 63.4123 55.6488 59.8149 52.9949 57.6374C50.3335 55.4838 46.7651 54.4149 42.3944 54.4149H20.3163V81.4549L42.0046 81.4469ZM106.215 81.1199C108.966 83.9754 112.932 85.4112 118.09 85.4112C121.786 85.4112 124.979 84.4141 127.671 82.436C130.324 80.4499 131.944 78.3281 132.566 76.1346H148.722C146.128 84.6853 142.192 90.7953 136.809 94.4724C131.494 98.1654 125.024 100 117.467 100C112.205 100 107.467 99.0987 103.224 97.312C99.1507 95.6244 95.4702 93.0174 92.4356 89.6706C89.4511 86.2457 87.1439 82.2177 85.651 77.8256C84.01 72.9689 83.1975 67.8392 83.252 62.6785C83.252 57.3662 84.0842 52.3969 85.7185 47.8105C87.2699 43.3771 89.6521 39.3254 92.7205 35.9017C95.7567 32.5517 99.3552 29.9115 103.546 27.9732C107.953 26.0012 112.695 25.0183 117.475 25.0857C123.128 25.0857 128.068 26.2503 132.311 28.5954C136.426 30.8339 139.994 34.062 142.732 38.0235C145.453 41.9558 147.395 46.4625 148.602 51.5115C149.809 56.5526 150.228 61.817 149.884 67.3287H101.672C101.679 72.9441 103.456 78.2643 106.215 81.1199ZM127.296 43.7824C125.114 41.214 121.426 39.8261 116.913 39.8261C113.981 39.8261 111.56 40.3446 109.611 41.4134C107.829 42.3712 106.247 43.7035 104.963 45.3298C103.835 46.8064 102.998 48.5102 102.504 50.339C102.071 51.864 101.792 53.4335 101.672 55.0211H131.524C131.089 50.0439 129.485 46.3668 127.296 43.7824ZM97.9233 6.5885H135.325V16.2798H97.9233V6.5885Z" fill="#0D0C0C"/>
</svg>
