<svg width="100" height="100" viewBox="0 0 100 100" fill="none" xmlns="http://www.w3.org/2000/svg">
<path id="Vector" d="M79.1667 0H20.8333C15.31 0.00721753 10.0148 2.40401 6.10925 6.66464C2.20367 10.9253 0.00661607 16.7018 0 22.7273L0 77.2727C0.00661607 83.2982 2.20367 89.0747 6.10925 93.3354C10.0148 97.596 15.31 99.9928 20.8333 100H79.1667C84.69 99.9928 89.9852 97.596 93.8908 93.3354C97.7963 89.0747 99.9934 83.2982 100 77.2727V22.7273C99.9934 16.7018 97.7963 10.9253 93.8908 6.66464C89.9852 2.40401 84.69 0.00721753 79.1667 0V0ZM20.8333 9.09091H79.1667C81.6616 9.09626 84.098 9.91598 86.1623 11.4446C88.2266 12.9732 89.8244 15.1407 90.75 17.6682L58.8417 52.4818C56.4935 55.0332 53.3142 56.4658 50 56.4658C46.6858 56.4658 43.5065 55.0332 41.1583 52.4818L9.25 17.6682C10.1756 15.1407 11.7734 12.9732 13.8377 11.4446C15.902 9.91598 18.3384 9.09626 20.8333 9.09091V9.09091ZM79.1667 90.9091H20.8333C17.5181 90.9091 14.3387 89.4724 11.9945 86.9151C9.65029 84.3578 8.33333 80.8893 8.33333 77.2727V29.5455L35.2667 58.9091C39.1776 63.1648 44.4761 65.5547 50 65.5547C55.5239 65.5547 60.8224 63.1648 64.7333 58.9091L91.6667 29.5455V77.2727C91.6667 80.8893 90.3497 84.3578 88.0055 86.9151C85.6613 89.4724 82.4819 90.9091 79.1667 90.9091Z" fill="#0D0C0C"/>
</svg>
