<svg width="101" height="101" viewBox="0 0 101 101" fill="none" xmlns="http://www.w3.org/2000/svg">
<path id="Path_2520" d="M85.9802 85.3936H71.1622V62.1878C71.1622 56.6536 71.0637 49.5327 63.4552 49.5327C55.7382 49.5327 54.5555 55.5596 54.5555 61.7886V85.3936H39.7425V37.671H53.9691V44.1907H54.1662C57.0687 39.2332 62.4597 36.2714 68.2006 36.4834C83.2206 36.4834 85.9851 46.364 85.9851 59.2112L85.9802 85.3936ZM23.0225 31.1463C18.2721 31.1463 14.4235 27.2976 14.4235 22.547C14.4235 17.7964 18.2721 13.9477 23.0225 13.9477C27.7729 13.9477 31.6215 17.7964 31.6215 22.547C31.6215 27.2976 27.7729 31.1463 23.0225 31.1463ZM30.429 85.3936H15.5963V37.671H30.429V85.3936ZM93.367 0.188707H8.15037C4.12435 0.144355 0.822716 3.37219 0.773438 7.39836V92.968C0.822716 96.9991 4.12435 100.227 8.15037 100.183H93.367C97.4028 100.232 100.719 97.004 100.773 92.968V7.39343C100.714 3.3574 97.3979 0.12957 93.367 0.183778" fill="#0D0C0C"/>
</svg>
