<svg width="150" height="100" viewBox="0 0 150 100" fill="none" xmlns="http://www.w3.org/2000/svg">
<path id="Vector" d="M116.006 8.97006C100.138 8.97006 87.8188 18.6636 82.8188 34.6274C75.1938 23.8515 69.3938 10.9111 66.025 0H48.925V41.7917C48.9125 50.0559 41.7938 56.7496 33.0063 56.7614C24.225 56.7496 17.1125 50.0441 17.1 41.7917V0.00588158H0V41.7975C0 58.9201 14.8125 72.9604 33.0063 72.9604C51.2125 72.9604 66.025 58.9201 66.025 41.7975V34.8038C69.3313 41.3093 73.4125 47.9031 78.3625 53.7321L67.9062 100H85.3875L92.9688 66.4431C99.6125 70.4312 107.25 72.9604 116.006 72.9604C134.756 72.9604 150 58.5495 150 40.9329C150 23.3045 134.756 8.97006 116.006 8.97006ZM116.006 56.8084C109.119 56.8084 102.663 54.0615 96.7938 49.5971L98.2188 43.2739L98.2687 43.0269C99.5625 36.3096 103.575 25.0456 116.013 25.0456C125.338 25.0456 132.906 32.1687 132.906 40.927C132.9 49.6794 125.331 56.8084 116.006 56.8084Z" fill="#0D0C0C"/>
</svg>
