<svg width="509" height="364" viewBox="0 0 509 364" fill="none" xmlns="http://www.w3.org/2000/svg">
<g id="undraw_stand_out_-1-oag 1" clip-path="url(#clip0_219_17)">
<path id="Vector" d="M396.205 165.068C395.253 162.621 396.613 161.397 397.157 159.221C397.7 157.045 395.933 150.246 395.933 150.246C395.933 150.246 390.222 126.721 388.454 122.098C387.706 120.141 386.082 118.795 384.456 117.891C384.346 117.291 384.187 116.904 383.967 116.794C382.392 116.006 378.469 114.295 375.854 113.822C375.365 112.982 374.785 112.197 374.125 111.484C374.584 110.602 374.797 109.613 374.741 108.621C374.574 106.056 372.632 103.757 372.884 101.198C373.076 99.2579 374.494 97.664 375.042 95.7926C375.271 94.9521 375.326 94.0734 375.201 93.2111C375.077 92.3487 374.777 91.5211 374.319 90.7797C374.722 91.2076 375.124 91.6355 375.526 92.0634C376.073 91.2434 376.337 90.2665 376.276 89.2825C376.215 88.2985 375.834 87.3615 375.19 86.615C373.916 85.208 371.786 84.6803 370.798 83.0599C369.783 81.3949 370.328 79.1325 369.368 77.435C367.016 73.2767 360.994 76.2244 357.388 74.7731C355.905 74.1766 354.779 73.5202 353.111 73.5673C351.693 73.6487 350.292 73.9105 348.94 74.3464C347.001 74.9075 345.313 76.1173 344.159 77.7734C344.273 77.6438 344.398 77.5243 344.533 77.4164C345.407 76.7315 346.939 76.7885 347.401 77.7985C347.511 78.0523 347.557 78.3293 347.535 78.6052C347.46 79.8228 346.396 80.732 345.339 81.3413C344.283 81.9506 343.094 82.4604 342.404 83.4665C341.266 85.127 341.935 87.3554 341.936 89.3686C341.926 90.648 341.63 91.9091 341.069 93.0589C340.508 94.2087 339.696 95.218 338.693 96.0125L342.53 94.4438C340.698 97.6505 339.495 101.178 338.987 104.836L344.174 100.55C342.253 103.608 341.085 107.079 340.767 110.676L344.931 106.409C345.121 106.743 345.216 107.121 345.206 107.505L344.772 109.18C344.618 109.512 344.448 109.837 344.262 110.152C343.592 111.303 342.899 112.719 343.526 113.894L343.529 113.892C342.869 116.112 341.874 118.333 339.661 119.412C342.116 119.669 344.679 118.441 345.788 116.487C345.968 116.839 346.187 117.17 346.439 117.474C346.51 117.563 346.581 117.652 346.651 117.741L346.039 118.149L344.399 119.242C344.399 119.242 333.657 121.418 334.337 125.497C334.365 125.665 334.399 125.865 334.437 126.09L331.346 131.344L326.859 146.574C326.859 146.574 324.547 151.47 324.955 153.51C325.363 155.549 324.955 156.365 324.955 160.037C324.955 163.708 323.188 165.204 324.955 168.196C326.723 171.187 332.026 179.89 332.026 179.89L333.191 180.764C333.134 181.289 333.154 181.819 333.25 182.338C334.337 187.777 344.535 239.859 344.535 239.859C344.535 239.859 339.368 281.062 349.838 283.645C351.151 283.969 352.441 284.264 353.694 284.525L355.277 294.932L354.325 308.122C354.325 308.122 347.119 324.44 360.308 325.392C373.497 326.344 367.515 311.25 367.515 311.25C368.211 309.961 368.495 308.49 368.33 307.035C368.196 305.824 367.064 299.525 365.954 293.466C370.959 292.866 370.022 287.553 369.355 285.217C369.644 285.049 369.86 284.78 369.962 284.461C370.113 283.919 369.762 281.785 369.125 278.795C368.607 275.822 367.721 271.01 367.117 267.75L370.37 268.279L384.103 187.777C384.103 187.777 384.194 186.496 384.152 184.621C386.03 183.65 387.966 182.797 389.95 182.066C394.437 180.298 396.205 173.771 397.7 171.051C399.196 168.332 397.157 167.516 396.205 165.068ZM347.444 113.812C347.889 113.506 348.41 113.329 348.949 113.302C348.832 113.935 347.745 114.12 346.833 114.451C347 114.206 347.207 113.99 347.444 113.812ZM340.592 154.326C341.694 156.136 339.699 161.04 337.902 164.932C336.872 164.045 335.797 164.325 337.057 161.805C337.916 160.208 338.426 158.446 338.552 156.637C338.552 156.326 338.712 154.042 340.052 153.093C340.193 153.52 340.374 153.933 340.592 154.326ZM336.465 169.947C337.089 169.694 338.033 169.304 339.308 168.87C338.697 169.672 338 170.627 337.298 171.67C337.033 171.469 336.82 171.208 336.675 170.909C336.53 170.609 336.458 170.28 336.465 169.947ZM380.568 171.731C379.741 170.853 379.073 170.067 378.523 169.364C379.549 169.634 380.593 169.925 381.656 170.236C382.185 170.315 382.726 170.279 383.24 170.13C383.287 171.07 383.287 172.411 383.287 172.411L381.798 173.442C381.459 172.825 381.045 172.25 380.568 171.731ZM384.788 167.015C384.772 167.029 384.755 167.045 384.738 167.06C384.665 166.522 384.544 165.992 384.375 165.476C383.484 162.666 383.008 157.679 382.755 153.423L385.327 162.077C385.327 162.077 385.463 166.428 384.788 167.015Z" fill="#D0CDE1"/>
<path id="Vector_2" d="M331.97 131.273C331.97 131.273 318.02 107.295 317.584 104.679C317.148 102.064 310.173 97.268 310.173 97.268C307.79 94.8847 303.88 94.1306 299.765 94.1698C301.315 92.8878 295.782 92.0259 295.351 91.1644C294.916 90.2925 293.608 90.2925 291.864 88.9846C290.12 87.6768 285.768 88.7665 285.767 88.7666C285.113 87.3898 284.658 85.9268 284.415 84.4217C286.273 82.2236 287.29 79.4376 287.287 76.5595C287.287 76.5282 287.285 76.4975 287.284 76.4662C287.395 76.6389 287.506 76.8127 287.617 76.9917C288.434 72.0998 289.875 68.0334 287.128 63.5708C285.18 60.4079 282.132 58.0772 278.569 57.0273L275.952 59.1209L276.97 56.6789C276.114 56.5484 275.248 56.4984 274.383 56.5294L272.029 59.5568L273.004 56.6331C270.961 56.887 268.992 57.5615 267.223 58.6141C265.454 59.6666 263.921 61.0744 262.723 62.7486C259.727 67.0698 259.927 73.0765 262.874 77.4315C262.884 77.401 262.892 77.3711 262.902 77.3407C263.032 79.378 263.671 81.3502 264.761 83.0765C265.85 84.8029 267.356 86.2282 269.139 87.2222L269.879 93.1454C269.213 93.7641 268.358 94.1412 267.452 94.2163C266.144 94.2163 264.836 97.704 264.836 97.704C264.836 97.704 264.095 98.0781 263.296 99.844C261.238 101.245 254.961 105.646 252.632 108.722C251.254 109.4 249.774 110.908 250.014 114.271C250.45 120.374 250.014 148.712 250.014 148.712C250.014 148.712 246.091 172.69 247.399 174.434C248.707 176.178 246.963 181.846 246.963 181.846L248.271 182.136V183.59C248.271 183.59 244.337 201.826 250.45 201.028C260.477 199.72 253.066 184.898 253.066 184.898V183.202L254.81 183.59C254.81 183.59 255.682 177.486 257.425 177.05C258.032 176.898 258.744 175.269 259.414 173.209C259.806 176.422 260.041 178.358 260.041 178.358L262.769 177.752L263.528 180.538C263.716 180.643 263.912 180.732 264.114 180.803L263.528 184.026C263.528 184.026 263.092 187.513 263.528 189.693C263.748 190.792 271.84 214.29 279.808 237.315L279.658 242.881C279.658 242.881 275.734 247.241 276.606 250.293C277.478 253.344 274.427 278.631 274.427 278.631L271.811 291.274L272.469 291.476L271.865 293.691C271.345 293.954 270.882 294.318 270.503 294.761C267.016 298.685 262.657 310.02 262.657 310.02C262.657 310.02 254.81 321.791 267.016 321.355C279.222 320.919 280.094 316.56 280.094 316.56C280.094 316.56 281.838 305.225 281.838 304.789C281.838 304.353 280.966 299.871 280.966 299.871L280.627 299.498L280.864 294.059L283.145 294.761C283.145 294.761 285.325 283.426 287.069 282.118C287.678 281.661 289.3 276.569 291.151 270.029C293.043 275.478 294.875 294.318 295.47 296.028C295.259 296.316 295.074 296.621 294.916 296.941C292.956 300.702 290.772 304.341 288.377 307.84C288.377 307.84 274.427 316.124 288.377 318.304C288.377 318.304 296.223 318.74 300.147 316.124C304.07 313.508 314.533 309.584 314.533 308.712C314.533 307.84 311.917 295.023 309.301 296.418L307.549 292.388L309.301 291.71L298.265 242.166C298.526 241.11 298.718 240.038 298.839 238.957C298.839 236.674 304.484 192.22 305.92 180.944C312.242 182.735 318.02 169.639 318.02 169.639L319.453 167.059L321.507 168.331C321.507 168.331 323.251 163.971 325.867 163.535C328.482 163.099 333.278 139.993 333.278 136.941C333.238 134.982 332.792 133.052 331.97 131.273ZM311.659 165.431C311.23 164.75 310.732 164.114 310.173 163.535C311.313 160.566 312.188 157.503 312.789 154.38C313.661 149.584 311.481 133.889 311.481 133.889L311.443 132.823C313.582 135.632 316.276 139.377 316.276 140.429C316.276 140.936 316.394 141.437 316.621 141.891C316.848 142.345 317.178 142.74 317.584 143.045L314.968 152.2C314.968 152.2 313.225 156.56 312.789 158.739C312.528 160.032 312.382 161.345 312.353 162.663L312.971 163.046L311.659 165.431Z" fill="#D0CDE1"/>
<path id="Vector_3" d="M122.909 136.003L125.235 135.48L115.645 108.45L94.9381 100.82C94.9381 100.82 94.8587 100.908 94.7123 101.06C92.9461 99.3505 92.1964 96.8699 91.8833 94.9173C93.5485 94.2446 95.0446 93.2126 96.2651 91.895C97.4855 90.5773 98.4 89.0065 98.9434 87.2947C99.4868 85.5828 99.6457 83.7721 99.4086 81.9917C99.1716 80.2114 98.5446 78.5053 97.5722 76.9953C99.2785 76.5857 99.8877 75.0376 100.46 73.1916C100.106 73.087 99.7442 73.0082 99.3782 72.956C99.6466 72.3542 99.9149 71.7525 100.183 71.1507C99.7116 71.1084 99.24 71.066 98.7685 71.0237C98.889 70.4612 99.0096 69.8986 99.1302 69.3361C98.5288 69.7513 97.9274 70.1665 97.326 70.5817C97.5303 69.9911 97.581 69.3583 97.4736 68.7428C97.3661 68.1272 97.1039 67.549 96.7116 67.0626C95.913 66.0975 94.8713 65.363 93.6941 64.9348C91.3919 64.0289 88.8845 63.7751 86.4474 64.201C84.0103 64.627 81.7377 65.7164 79.8791 67.3495L79.7488 66.8415C76.0684 69.6709 73.6602 73.8445 73.0522 78.447C72.4749 82.9965 74.6602 87.6289 77.5008 91.2291C77.4768 91.072 77.4512 90.9152 77.4251 90.7586C77.5479 90.9278 77.6747 91.0937 77.8055 91.2564L78.1547 104.526L77.2801 105.276C77.2787 105.276 62.6075 111.914 62.0356 119.843L62.0339 119.849C61.1533 123.709 60.7173 143.763 60.7173 143.763H61.9245L60.7173 151.611L52.8705 182.128C52.8705 182.128 42.8441 195.207 51.5627 197.823C56.9805 199.449 58.5263 193.162 58.9205 188.169C59.2344 189.407 60.1732 190.243 62.0251 190.412C62.1709 190.425 62.3265 190.436 62.477 190.448C58.3545 201.103 61.1533 235.752 61.1533 235.752C58.9736 240.112 84.6936 270.194 84.6936 270.194L86.2423 269.368L86.5775 270.038C85.7156 270.121 85.1296 270.194 85.1296 270.194V283.709C85.1296 283.709 81.2062 297.224 86.4374 299.84C87.791 300.516 89.2028 300.024 90.5523 298.925C90.2944 303.095 89.9248 309.319 89.9248 310.739C89.9248 312.919 95.592 316.842 95.592 316.842C95.592 316.842 96.8998 321.638 107.362 321.638C117.825 321.638 109.978 308.995 109.978 308.995L104.311 296.352C104.311 296.352 103.887 296.559 102.603 295.514L103.063 290.459L105.618 290.684L109.106 239.676C109.106 239.676 112.157 194.335 112.593 187.36C112.696 185.124 112.643 182.883 112.436 180.654L125.235 154.226L122.909 136.003ZM113.465 152.918L112.157 157.476V147.396L113.465 152.918ZM59.042 185.249C59.0529 183.652 58.9736 182.564 58.9736 182.564L67.4961 165.518L67.2563 170.793C67.2563 170.793 60.4309 179.428 59.042 185.249ZM79.0265 234.444L87.3093 205.235L92.1045 240.548L91.7607 253.386C91.1767 252.206 90.7079 250.973 90.3608 249.703C89.053 244.472 79.0265 234.444 79.0265 234.444Z" fill="#D0CDE1"/>
<path id="Vector_4" d="M206.484 307.171C202.4 305.489 194.471 301.884 193.51 299.962C192.549 298.04 187.744 283.142 187.744 283.142L186.506 283.232C186.347 276.464 185.665 250.235 184.62 247.099C184.62 247.099 189.666 205.53 179.575 188.95L177.756 181.604C178.353 178.659 178.276 171.84 177.893 170.689C177.412 169.247 183.419 164.682 181.737 161.798C180.055 158.915 175.49 149.063 175.49 149.063C175.49 149.063 175.971 142.816 169.483 137.049C169.483 137.049 167.588 126.315 159.045 126.155C157.89 124.14 156.274 120.935 156.749 119.508C157.258 117.98 159.206 113.217 160.305 110.551C160.89 110.287 161.451 109.974 161.983 109.617C168.777 106.573 173.566 99.2546 173.566 90.7054C173.566 81.5536 168.08 73.8085 160.519 71.2114C160.856 70.3237 160.993 69.3728 160.922 68.426C160.851 67.4792 160.573 66.5596 160.108 65.732C159.642 64.9045 159.001 64.1893 158.228 63.637C157.456 63.0846 156.572 62.7086 155.639 62.5354C154.705 62.3623 153.745 62.3963 152.826 62.635C151.907 62.8737 151.052 63.3113 150.321 63.9169C149.59 64.5224 149 65.2812 148.594 66.1396C148.189 66.9979 147.976 67.935 147.972 68.8844C147.556 67.8988 147.391 66.8255 147.491 65.7603C147.591 64.6952 147.953 63.6715 148.545 62.7804C149.137 61.8894 149.941 61.1588 150.884 60.6539C151.827 60.149 152.88 59.8855 153.95 59.8869C154.371 59.8875 154.791 59.9289 155.204 60.0106C153.78 59.3331 152.157 59.1983 150.64 59.6316C149.124 60.0648 147.817 61.0362 146.965 62.3639C146.114 63.6915 145.775 65.2842 146.013 66.8436C146.252 68.4029 147.05 69.8218 148.26 70.8344C148.335 71.0717 148.423 71.3044 148.525 71.5314C141.41 74.4026 136.335 81.9035 136.335 90.7054C136.335 98.87 140.703 105.913 147.014 109.182C146.98 111.838 146.321 116.315 142.659 119.044C140.767 118.18 138.142 117.231 136.457 117.661C135.586 116.982 134.271 116.758 132.482 118.547C128.878 122.151 125.755 131.522 125.755 137.289C125.755 143.056 126.476 176.456 126.476 176.456C126.476 176.456 122.631 177.897 125.274 180.06C125.82 180.515 126.505 180.769 127.215 180.781L129.839 200.244C129.839 200.244 128.157 218.986 134.645 219.226C135.153 219.254 135.659 219.13 136.097 218.87L131.281 240.612C131.281 240.612 120.229 247.82 111.579 261.997C107.124 269.299 104.903 273.791 103.793 276.436L102.209 275.453L96.6826 286.026C96.6826 286.026 84.429 293.475 87.0719 299.001C89.7149 304.528 92.1175 305.969 92.1175 305.969L93.7994 305.249L96.9228 311.015C96.9228 311.015 105.092 322.789 118.307 316.782C118.927 315.949 119.262 314.938 119.262 313.899C119.262 312.86 118.927 311.849 118.307 311.015C116.144 307.892 110.618 301.164 110.618 301.164L114.222 282.902L113.476 282.44L136.327 254.789C136.327 254.789 143.054 250.704 145.457 247.099C147.859 243.495 162.756 206.251 162.756 206.251L171.165 245.177C171.165 245.177 170.685 259.354 172.847 268.485C174.026 273.607 174.794 278.815 175.146 284.059L174.529 284.103L175.971 294.916C175.971 294.916 169.724 310.295 174.048 311.496C177.125 312.291 180.258 312.853 183.419 313.178L183.899 311.496C183.899 311.496 202.4 321.588 209.127 314.139C209.127 314.139 210.569 308.853 206.484 307.171ZM140.651 189.191C141.372 189.911 141.132 193.275 141.132 193.275L139.69 202.647L138.251 209.147C138.051 206.076 137.649 203.021 137.047 200.003L136.382 182.045C136.513 182.127 136.657 182.187 136.807 182.222C137.288 182.222 137.047 178.138 137.047 178.138C137.047 178.138 137.328 177.408 137.678 176.257C138.612 179.053 139.752 180.878 141.132 181.261L141.372 184.385C141.372 184.385 138.249 185.827 141.132 185.827C141.299 185.82 141.465 185.796 141.627 185.753L141.372 187.028C141.372 187.028 139.931 188.47 140.651 189.191Z" fill="#D0CDE1"/>
<path id="Vector_5" d="M202.378 318.364C309.046 318.364 395.518 316.939 395.518 315.18C395.518 313.422 309.046 311.997 202.378 311.997C95.7091 311.997 9.2373 313.422 9.2373 315.18C9.2373 316.939 95.7091 318.364 202.378 318.364Z" fill="#3F3D56"/>
<path id="Vector_6" d="M269.975 331.631C387.31 331.631 482.428 327.948 482.428 323.406C482.428 318.863 387.31 315.181 269.975 315.181C152.641 315.181 57.5224 318.863 57.5224 323.406C57.5224 327.948 152.641 331.631 269.975 331.631Z" fill="#3F3D56"/>
<path id="Vector_7" d="M230.765 343.835C288.348 343.835 335.029 340.153 335.029 335.61C335.029 331.068 288.348 327.385 230.765 327.385C173.182 327.385 126.501 331.068 126.501 335.61C126.501 340.153 173.182 343.835 230.765 343.835Z" fill="#3F3D56"/>
<path id="Vector_8" d="M247.214 293.689L249.336 308.547L259.948 307.486L258.887 292.097L247.214 293.689Z" fill="#FFB8B8"/>
<path id="Vector_9" d="M196.806 293.689L194.684 308.547L184.072 307.486L185.133 292.097L196.806 293.689Z" fill="#FFB8B8"/>
<path id="Vector_10" d="M181.419 139.802C181.419 139.802 171.868 150.945 173.99 168.457C176.113 185.968 179.827 225.766 179.827 225.766L182.48 296.342L199.459 295.281L202.112 235.318L210.602 187.029L233.418 243.278C233.418 243.278 244.561 295.812 245.091 295.812C245.622 295.812 261.009 294.22 261.009 294.22L253.581 232.134C253.581 232.134 241.908 141.924 235.01 140.332C228.112 138.74 181.419 139.802 181.419 139.802Z" fill="#2F2E41"/>
<path id="Vector_11" d="M261.009 305.364C261.009 305.364 251.458 298.996 247.744 306.425C244.03 313.854 247.214 319.161 247.214 319.161C247.214 319.161 250.397 321.283 248.805 323.406C247.214 325.528 246.683 339.325 260.479 337.203C274.274 335.08 267.377 320.753 267.377 320.753L261.009 305.364Z" fill="#2F2E41"/>
<path id="Vector_12" d="M183.01 305.364C183.01 305.364 192.561 298.996 196.276 306.425C199.99 313.854 196.806 319.161 196.806 319.161C196.806 319.161 193.623 321.283 195.214 323.406C196.806 325.528 197.337 339.325 183.541 337.203C169.745 335.08 176.643 320.753 176.643 320.753L183.01 305.364Z" fill="#2F2E41"/>
<path id="Vector_13" d="M194.418 36.5907C194.418 36.5907 199.194 49.8569 195.48 57.286C191.765 64.715 201.316 73.2054 201.316 73.2054C201.316 73.2054 226.255 60.4698 223.071 54.1021C219.887 47.7343 214.581 39.244 215.643 33.9375L194.418 36.5907Z" fill="#FFB8B8"/>
<path id="Vector_14" d="M203.704 41.6323C213.081 41.6323 220.683 34.0298 220.683 24.6516C220.683 15.2734 213.081 7.6709 203.704 7.6709C194.327 7.6709 186.725 15.2734 186.725 24.6516C186.725 34.0298 194.327 41.6323 203.704 41.6323Z" fill="#FFB8B8"/>
<path id="Vector_15" d="M191.5 56.49C191.5 56.49 208.537 70.668 221.243 50.5781L234.479 58.0819L241.377 138.74C241.377 138.74 202.643 161.027 184.072 141.924L186.725 67.1029L191.5 56.49Z" fill="#D0CDE1"/>
<path id="Vector_16" d="M196.85 48.5479L172.929 64.4497L181.419 103.718L170.276 164.742L188.316 137.679L196.85 48.5479Z" fill="#575A89"/>
<path id="Vector_17" d="M217.992 44.1216L223.867 47.9998L247.744 56.4901L244.03 122.29L254.112 164.742L239.785 172.171C239.785 172.171 237.132 152.007 220.683 141.924C204.235 131.842 214.239 47.1418 217.992 44.1216Z" fill="#575A89"/>
<path id="Vector_18" d="M178.235 147.231L185.133 152.007C185.133 152.007 176.378 161.293 174.786 159.701C174.325 159.259 173.968 158.72 173.738 158.124C173.509 157.528 173.414 156.889 173.46 156.252L171.868 152.537L178.235 147.231Z" fill="#FFB8B8"/>
<path id="Vector_19" d="M224.09 146.198L221.745 149.884C221.745 149.884 214.847 153.068 216.439 155.19C218.03 157.313 231.295 162.089 233.949 157.313L236.602 152.537L224.09 146.198Z" fill="#FFB8B8"/>
<path id="Vector_20" d="M176.113 63.9194L172.398 64.4501L166.296 103.983C166.296 103.983 163.909 111.147 166.562 128.128C169.215 145.108 171.842 156.166 171.842 156.166L183.541 147.762L178.235 133.965L185.133 83.5534L176.113 63.9194Z" fill="#575A89"/>
<path id="Vector_21" d="M239.255 55.4287L247.744 56.49C247.744 56.49 257.295 66.5723 258.887 77.1852C260.479 87.7982 259.948 118.045 259.948 118.045L235.54 156.782L222.275 147.231L240.846 114.33L231.826 75.0626L239.255 55.4287Z" fill="#575A89"/>
<path id="Vector_22" d="M219.896 9.29328C217.328 5.1235 213.309 2.05082 208.612 0.666638L205.162 3.42669L206.504 0.207398C205.376 0.0353185 204.234 -0.0306635 203.094 0.0103168L199.99 4.00145L201.275 0.147027C198.581 0.481764 195.986 1.37098 193.654 2.75861C191.321 4.14624 189.301 6.00217 187.722 8.20938C183.771 13.9062 183.104 21.8286 186.99 27.57C188.057 24.2918 189.351 21.2159 190.418 17.9377C191.256 18.052 192.106 18.0561 192.945 17.95L194.243 14.9218L194.605 17.8219C198.628 17.4715 204.593 16.7021 208.407 15.9971L208.036 13.7723L210.254 15.6211C211.423 15.3521 212.116 15.1082 212.059 14.9218C214.895 19.4941 217.705 22.4145 220.541 26.9867C221.617 20.5374 223.518 15.1765 219.896 9.29328Z" fill="#2F2E41"/>
<path id="Vector_23" d="M218.955 26.4169C219.59 26.4169 220.105 25.3876 220.105 24.1179C220.105 22.8482 219.59 21.8188 218.955 21.8188C218.321 21.8188 217.806 22.8482 217.806 24.1179C217.806 25.3876 218.321 26.4169 218.955 26.4169Z" fill="#FFB8B8"/>
<path id="Vector_24" d="M508.953 27.162C508.969 27.1137 508.985 27.0647 509 27.0161C508.993 27.0374 508.985 27.0579 508.979 27.0792L508.953 27.162Z" fill="#2F2E41"/>
</g>
<defs>
<clipPath id="clip0_219_17">
<rect width="509" height="364" fill="white"/>
</clipPath>
</defs>
</svg>
