<svg width="800" height="658" viewBox="0 0 800 658" fill="none" xmlns="http://www.w3.org/2000/svg">
<g id="devices 1" clip-path="url(#clip0_251_314)">
<path id="Vector" d="M517.523 492.556C407.886 492.556 318.69 403.445 318.69 293.913C318.69 184.381 407.886 95.2703 517.523 95.2703C529.114 95.2688 540.683 96.2704 552.101 98.2637C552.243 98.2882 552.379 98.3406 552.501 98.4178C552.623 98.495 552.729 98.5955 552.812 98.7135C552.895 98.8316 552.954 98.9648 552.986 99.1057C553.017 99.2466 553.021 99.3923 552.996 99.5345C552.971 99.6766 552.918 99.8125 552.841 99.9343C552.763 100.056 552.662 100.161 552.544 100.244C552.425 100.327 552.292 100.385 552.151 100.417C552.01 100.448 551.864 100.451 551.722 100.425C540.429 98.4544 528.986 97.464 517.523 97.4652C409.098 97.4652 320.887 185.591 320.887 293.913C320.887 402.235 409.098 490.361 517.523 490.361C625.948 490.361 714.158 402.235 714.158 293.913C714.207 244.953 695.907 197.748 662.862 161.592C662.668 161.377 662.567 161.093 662.581 160.803C662.595 160.514 662.724 160.241 662.938 160.046C663.153 159.851 663.436 159.748 663.726 159.761C664.016 159.773 664.289 159.9 664.486 160.113C697.9 196.673 716.404 244.406 716.355 293.913C716.355 403.445 627.159 492.556 517.523 492.556Z" fill="#E4E4E4"/>
<path id="Vector_2" d="M605.193 163.398C626.919 163.398 644.532 145.802 644.532 124.096C644.532 102.39 626.919 84.7944 605.193 84.7944C583.466 84.7944 565.854 102.39 565.854 124.096C565.854 145.802 583.466 163.398 605.193 163.398Z" fill="#0D0C0C"/>
<path id="Vector_3" d="M599.828 144.551C599.148 144.551 598.478 144.393 597.871 144.089C597.263 143.786 596.735 143.345 596.327 142.802L585.595 128.505C585.25 128.046 584.999 127.524 584.857 126.967C584.714 126.411 584.682 125.833 584.764 125.264C584.845 124.696 585.038 124.149 585.33 123.655C585.623 123.161 586.01 122.73 586.47 122.385C586.93 122.041 587.453 121.79 588.01 121.648C588.566 121.505 589.146 121.474 589.715 121.555C590.283 121.636 590.831 121.828 591.325 122.121C591.82 122.413 592.252 122.8 592.596 123.26L599.618 132.612L617.651 105.588C618.297 104.627 619.297 103.961 620.433 103.736C621.57 103.511 622.749 103.745 623.712 104.386C624.676 105.028 625.346 106.026 625.575 107.16C625.804 108.294 625.573 109.473 624.934 110.438L603.469 142.604C603.081 143.186 602.558 143.666 601.946 144.005C601.334 144.343 600.649 144.53 599.949 144.549C599.909 144.55 599.868 144.551 599.828 144.551Z" fill="white"/>
<path id="Vector_4" d="M512.408 263.086L451.744 94.4802L453.282 93.9277L442.125 62.9165L440.587 63.4696L421.96 11.7023C421.265 9.76881 420.195 7.99117 418.811 6.47084C417.428 4.95051 415.759 3.71727 413.898 2.84153C412.038 1.96579 410.023 1.46469 407.969 1.36687C405.915 1.26904 403.861 1.57639 401.926 2.27138L292.258 41.6546C290.323 42.3495 288.543 43.4184 287.021 44.8004C285.5 46.1823 284.265 47.8502 283.389 49.7087C282.512 51.5673 282.01 53.5802 281.912 55.6324C281.814 57.6847 282.122 59.7361 282.818 61.6696L295.805 97.7648L293.374 98.7L301.664 120.207L303.61 119.459L305.331 124.243L303.261 125.039L311.551 146.547L313.137 145.937L373.265 313.054C373.958 314.989 375.026 316.77 376.408 318.292C377.791 319.815 379.461 321.049 381.322 321.926C383.184 322.802 385.2 323.302 387.255 323.398C389.311 323.494 391.365 323.184 393.3 322.485L502.967 283.102C506.873 281.694 510.06 278.796 511.83 275.044C513.6 271.292 513.808 266.991 512.408 263.086Z" fill="#3F3D56"/>
<path id="Vector_5" d="M387.532 316.928C385.988 316.925 384.482 316.446 383.219 315.558C381.957 314.669 380.999 313.414 380.475 311.963L289.073 57.9254C288.4 56.0544 288.498 53.9929 289.347 52.1943C290.195 50.3958 291.724 49.0075 293.596 48.3349L316.93 39.9554L316.895 40.771C316.836 42.1868 317.125 43.5956 317.739 44.8733C318.352 46.151 319.271 47.2583 320.413 48.0978C321.556 48.9372 322.888 49.483 324.292 49.687C325.695 49.8911 327.128 49.7471 328.463 49.2678L380.248 30.6713C381.498 30.0992 382.595 29.2411 383.452 28.1665C384.308 27.0919 384.899 25.8309 385.177 24.4857C385.453 23.1629 385.411 21.7938 385.056 20.4902C384.701 19.1865 384.042 17.9853 383.133 16.9845L382.587 16.3773L406.689 7.72132C408.562 7.05154 410.625 7.15119 412.425 7.99843C414.224 8.84567 415.614 10.3713 416.29 12.2409L503.495 254.614C505.275 259.579 505.011 265.046 502.76 269.817C500.51 274.588 496.458 278.272 491.492 280.062L390.075 316.482C389.26 316.776 388.399 316.927 387.532 316.928Z" fill="white"/>
<path id="Vector_6" d="M378.597 136.744C394.977 136.744 408.257 123.478 408.257 107.113C408.257 90.7473 394.977 77.4807 378.597 77.4807C362.216 77.4807 348.937 90.7473 348.937 107.113C348.937 123.478 362.216 136.744 378.597 136.744Z" fill="#0D0C0C"/>
<path id="Vector_7" d="M452.094 150.204L349.38 187.09C349.059 187.206 348.719 187.258 348.378 187.243C348.037 187.227 347.702 187.144 347.394 186.999C347.085 186.854 346.808 186.65 346.578 186.398C346.348 186.146 346.171 185.851 346.055 185.53C345.94 185.209 345.889 184.869 345.905 184.528C345.922 184.188 346.005 183.854 346.151 183.546C346.297 183.238 346.502 182.961 346.755 182.732C347.008 182.504 347.303 182.327 347.625 182.212L450.339 145.326C450.986 145.096 451.698 145.131 452.319 145.424C452.94 145.717 453.419 146.245 453.652 146.891C453.884 147.537 453.851 148.248 453.559 148.869C453.267 149.49 452.74 149.971 452.094 150.204Z" fill="#E6E6E6"/>
<path id="Vector_8" d="M421.592 173.592L387.806 185.725C387.485 185.84 387.145 185.892 386.804 185.876C386.463 185.861 386.129 185.778 385.82 185.633C385.511 185.488 385.234 185.284 385.005 185.031C384.775 184.779 384.597 184.484 384.482 184.164C384.367 183.843 384.316 183.503 384.332 183.162C384.349 182.822 384.432 182.488 384.578 182.18C384.723 181.872 384.929 181.595 385.181 181.366C385.434 181.138 385.729 180.961 386.051 180.846L419.836 168.713C420.484 168.481 421.197 168.515 421.82 168.808C422.442 169.101 422.923 169.629 423.156 170.276C423.388 170.923 423.354 171.635 423.061 172.257C422.768 172.879 422.239 173.359 421.592 173.592Z" fill="#E6E6E6"/>
<path id="Vector_9" d="M429.628 195.926L395.842 208.059C395.522 208.174 395.181 208.225 394.841 208.209C394.501 208.193 394.167 208.11 393.859 207.965C393.551 207.82 393.274 207.615 393.045 207.364C392.816 207.112 392.638 206.817 392.523 206.497C392.408 206.176 392.357 205.837 392.373 205.497C392.389 205.157 392.472 204.823 392.618 204.515C392.763 204.207 392.967 203.931 393.219 203.702C393.472 203.473 393.766 203.296 394.087 203.181L427.873 191.048C428.52 190.815 429.234 190.849 429.856 191.142C430.479 191.435 430.959 191.963 431.192 192.61C431.425 193.257 431.391 193.97 431.097 194.592C430.804 195.214 430.275 195.694 429.628 195.926Z" fill="#E6E6E6"/>
<path id="Vector_10" d="M433.744 207.366L399.959 219.499C399.638 219.615 399.297 219.667 398.956 219.651C398.615 219.636 398.281 219.553 397.972 219.408C397.663 219.263 397.386 219.059 397.156 218.807C396.926 218.554 396.749 218.259 396.633 217.939C396.518 217.618 396.467 217.277 396.483 216.937C396.5 216.596 396.584 216.262 396.729 215.954C396.875 215.646 397.08 215.369 397.333 215.141C397.586 214.912 397.882 214.735 398.204 214.62L431.989 202.488C432.31 202.372 432.651 202.32 432.991 202.335C433.332 202.351 433.667 202.434 433.975 202.579C434.284 202.724 434.561 202.928 434.791 203.18C435.021 203.432 435.198 203.727 435.314 204.048C435.429 204.369 435.48 204.709 435.464 205.05C435.447 205.39 435.364 205.724 435.218 206.032C435.072 206.34 434.867 206.617 434.614 206.846C434.361 207.075 434.066 207.251 433.744 207.366Z" fill="#E6E6E6"/>
<path id="Vector_11" d="M444.501 177.798L372.819 203.54C372.499 203.656 372.158 203.707 371.817 203.692C371.476 203.676 371.142 203.593 370.833 203.448C370.524 203.303 370.247 203.099 370.017 202.847C369.788 202.595 369.61 202.3 369.495 201.979C369.379 201.658 369.328 201.318 369.345 200.978C369.361 200.637 369.445 200.303 369.591 199.995C369.736 199.687 369.942 199.41 370.194 199.182C370.447 198.953 370.743 198.776 371.064 198.661L442.746 172.919C443.067 172.803 443.407 172.752 443.748 172.767C444.089 172.783 444.423 172.866 444.732 173.011C445.041 173.156 445.318 173.36 445.548 173.612C445.777 173.864 445.955 174.159 446.07 174.48C446.186 174.801 446.237 175.141 446.22 175.481C446.204 175.822 446.12 176.156 445.975 176.464C445.829 176.772 445.624 177.049 445.371 177.278C445.118 177.506 444.822 177.683 444.501 177.798Z" fill="#E6E6E6"/>
<path id="Vector_12" d="M430.063 235.136L417.796 239.541C416.695 239.935 415.482 239.877 414.424 239.379C413.367 238.88 412.55 237.983 412.155 236.883C411.759 235.784 411.817 234.572 412.315 233.515C412.813 232.458 413.711 231.641 414.811 231.245L427.078 226.84C428.179 226.446 429.392 226.504 430.45 227.002C431.507 227.501 432.324 228.398 432.72 229.498C433.115 230.597 433.058 231.809 432.559 232.866C432.061 233.923 431.163 234.74 430.063 235.136Z" fill="#0D0C0C"/>
<path id="Vector_13" d="M333.392 40.7769C334.334 40.7769 335.098 40.0138 335.098 39.0725C335.098 38.1312 334.334 37.3682 333.392 37.3682C332.449 37.3682 331.686 38.1312 331.686 39.0725C331.686 40.0138 332.449 40.7769 333.392 40.7769Z" fill="white"/>
<path id="Vector_14" d="M695.783 514.279C697.342 508.336 701.086 503.198 706.269 499.891C706.782 499.564 706.247 498.784 705.734 499.111C700.347 502.563 696.462 507.918 694.853 514.106C694.7 514.696 695.631 514.866 695.783 514.279Z" fill="white"/>
<path id="Vector_15" d="M794.566 366.912L762.775 420.359L763.983 420.995L753.218 441.386L750.977 440.201L743.903 452.087L745.66 453.096L734.126 473.048L732.126 471.896L628.393 646.307C625.673 650.871 621.251 654.171 616.098 655.481C610.945 656.792 605.482 656.007 600.908 653.298L408.063 538.82C403.493 536.103 400.19 531.685 398.878 526.537C397.566 521.389 398.353 515.931 401.065 511.361L567.238 231.966C569.959 227.402 574.381 224.102 579.534 222.791C584.686 221.481 590.149 222.266 594.723 224.975L787.569 339.453C792.136 342.172 795.437 346.59 796.749 351.737C798.061 356.884 797.276 362.341 794.566 366.912Z" fill="#3F3D56"/>
<path id="Vector_16" d="M607.78 642.513L414.256 527.633C412.848 526.795 411.83 525.433 411.426 523.846C411.021 522.259 411.264 520.577 412.099 519.169L579.375 237.915C580.214 236.508 581.577 235.491 583.165 235.087C584.754 234.683 586.437 234.925 587.847 235.76L781.372 350.64C782.78 351.478 783.798 352.84 784.202 354.426C784.606 356.013 784.364 357.695 783.529 359.104L616.253 640.358C615.414 641.765 614.051 642.782 612.463 643.186C610.874 643.59 609.19 643.348 607.78 642.513Z" fill="white"/>
<path id="Vector_17" d="M687.275 288.755C688.218 288.755 688.981 287.992 688.981 287.05C688.981 286.109 688.218 285.346 687.275 285.346C686.333 285.346 685.569 286.109 685.569 287.05C685.569 287.992 686.333 288.755 687.275 288.755Z" fill="white"/>
<path id="Vector_18" d="M676.717 490.228L515.173 394.332C514.666 394.034 514.223 393.639 513.87 393.169C513.516 392.7 513.259 392.165 513.113 391.596C512.967 391.027 512.934 390.435 513.018 389.853C513.101 389.272 513.299 388.712 513.599 388.207C513.9 387.702 514.297 387.261 514.768 386.91C515.24 386.559 515.776 386.304 516.346 386.16C516.916 386.016 517.509 385.986 518.091 386.072C518.672 386.158 519.231 386.357 519.736 386.659L681.28 482.555C681.787 482.854 682.23 483.249 682.583 483.718C682.937 484.188 683.194 484.722 683.34 485.291C683.486 485.86 683.519 486.452 683.435 487.034C683.352 487.616 683.154 488.175 682.854 488.68C682.553 489.185 682.156 489.626 681.685 489.977C681.213 490.328 680.677 490.583 680.107 490.727C679.537 490.871 678.944 490.901 678.362 490.815C677.781 490.729 677.222 490.53 676.717 490.228Z" fill="#E6E6E6"/>
<path id="Vector_19" d="M612.214 475.369L559.077 443.826C558.573 443.526 558.133 443.131 557.781 442.661C557.43 442.192 557.175 441.658 557.03 441.09C556.885 440.522 556.854 439.931 556.937 439.351C557.021 438.771 557.219 438.213 557.518 437.709C557.818 437.206 558.214 436.766 558.684 436.415C559.154 436.064 559.688 435.809 560.257 435.664C560.825 435.52 561.417 435.488 561.998 435.572C562.578 435.656 563.137 435.853 563.641 436.153L616.777 467.696C617.282 467.995 617.722 468.391 618.073 468.86C618.424 469.33 618.68 469.863 618.824 470.431C618.969 470.999 619 471.59 618.917 472.17C618.833 472.75 618.635 473.308 618.336 473.812C618.036 474.316 617.64 474.755 617.17 475.106C616.7 475.457 616.166 475.712 615.598 475.857C615.029 476.001 614.438 476.033 613.857 475.949C613.277 475.865 612.718 475.668 612.214 475.369Z" fill="#E6E6E6"/>
<path id="Vector_20" d="M591.322 510.495L538.185 478.952C537.167 478.348 536.431 477.364 536.139 476.217C535.847 475.07 536.023 473.854 536.628 472.837C537.233 471.819 538.218 471.084 539.365 470.792C540.513 470.5 541.73 470.675 542.749 471.279L595.885 502.822C596.389 503.122 596.83 503.517 597.181 503.987C597.532 504.456 597.788 504.99 597.932 505.558C598.077 506.126 598.108 506.717 598.024 507.297C597.941 507.877 597.743 508.434 597.444 508.938C597.144 509.442 596.748 509.882 596.278 510.233C595.808 510.584 595.274 510.839 594.705 510.983C594.137 511.128 593.546 511.159 592.965 511.075C592.384 510.992 591.826 510.795 591.322 510.495Z" fill="#E6E6E6"/>
<path id="Vector_21" d="M580.622 528.487L527.485 496.944C526.979 496.646 526.538 496.25 526.185 495.781C525.832 495.311 525.576 494.777 525.43 494.208C525.285 493.64 525.253 493.048 525.337 492.467C525.42 491.886 525.618 491.328 525.918 490.823C526.218 490.318 526.615 489.878 527.085 489.527C527.556 489.176 528.091 488.921 528.661 488.777C529.23 488.633 529.823 488.602 530.404 488.687C530.985 488.772 531.544 488.971 532.048 489.272L585.185 520.815C585.692 521.113 586.135 521.508 586.488 521.977C586.842 522.447 587.099 522.981 587.245 523.55C587.391 524.12 587.424 524.712 587.34 525.293C587.257 525.875 587.059 526.434 586.759 526.939C586.458 527.444 586.061 527.885 585.59 528.237C585.118 528.588 584.582 528.843 584.012 528.987C583.442 529.13 582.849 529.16 582.267 529.075C581.685 528.989 581.126 528.789 580.622 528.487Z" fill="#E6E6E6"/>
<path id="Vector_22" d="M631.715 510.376L518.977 443.452C517.964 442.845 517.233 441.862 516.943 440.718C516.654 439.573 516.831 438.361 517.434 437.346C518.038 436.331 519.019 435.597 520.164 435.303C521.308 435.01 522.522 435.181 523.54 435.78L636.278 502.703C636.785 503.001 637.228 503.397 637.581 503.866C637.935 504.336 638.192 504.87 638.338 505.439C638.485 506.008 638.517 506.601 638.433 507.182C638.35 507.764 638.152 508.323 637.852 508.828C637.552 509.333 637.154 509.774 636.683 510.125C636.212 510.477 635.675 510.732 635.105 510.875C634.535 511.019 633.942 511.049 633.36 510.963C632.779 510.878 632.219 510.678 631.715 510.376Z" fill="#E6E6E6"/>
<path id="Vector_23" d="M610.228 595.904L590.935 584.451C589.205 583.422 587.956 581.749 587.46 579.8C586.965 577.85 587.264 575.785 588.292 574.056C589.321 572.327 590.994 571.077 592.944 570.579C594.894 570.082 596.963 570.379 598.694 571.404L617.988 582.857C619.72 583.885 620.972 585.558 621.469 587.509C621.966 589.459 621.667 591.527 620.638 593.257C619.609 594.987 617.934 596.238 615.982 596.734C614.03 597.231 611.96 596.932 610.228 595.904Z" fill="#0D0C0C"/>
<path id="Vector_24" d="M646.224 409.947C668.065 409.947 685.77 392.258 685.77 370.438C685.77 348.618 668.065 330.929 646.224 330.929C624.382 330.929 606.677 348.618 606.677 370.438C606.677 392.258 624.382 409.947 646.224 409.947Z" fill="#0D0C0C"/>
<path id="Vector_25" d="M-2.16113 530.989H533.017V221.448C533.014 219.129 532.091 216.905 530.449 215.265C528.808 213.625 526.582 212.703 524.261 212.7H6.59517C4.2737 212.703 2.04805 213.625 0.406502 215.265C-1.23505 216.905 -2.15845 219.129 -2.16113 221.448V530.989Z" fill="#CACACA"/>
<path id="Vector_26" d="M516.482 224.799H14.374V509.583H516.482V224.799Z" fill="white"/>
<path id="Vector_27" d="M-2.62598 522.613V560.81C-2.62599 562.394 -2.31381 563.962 -1.70726 565.425C-1.10071 566.888 -0.211662 568.217 0.909117 569.337C2.0299 570.457 3.36047 571.345 4.82484 571.951C6.28922 572.557 7.85873 572.869 9.44376 572.869H206.974V648.253H204.35C204.144 648.253 203.94 648.293 203.75 648.372C203.56 648.451 203.387 648.566 203.241 648.712C203.096 648.857 202.98 649.03 202.901 649.22C202.822 649.41 202.782 649.614 202.782 649.819V655.063C202.782 655.268 202.822 655.472 202.901 655.662C202.98 655.852 203.096 656.025 203.241 656.17C203.387 656.316 203.56 656.431 203.75 656.51C203.94 656.589 204.144 656.629 204.35 656.629H326.974C327.18 656.629 327.384 656.589 327.574 656.51C327.764 656.431 327.937 656.316 328.083 656.17C328.228 656.025 328.344 655.852 328.423 655.662C328.501 655.472 328.542 655.268 328.542 655.063V649.819C328.542 649.614 328.501 649.41 328.423 649.22C328.344 649.03 328.228 648.857 328.083 648.712C327.937 648.566 327.764 648.451 327.574 648.372C327.384 648.293 327.18 648.253 326.974 648.253H324.35V572.869H521.88C523.465 572.869 525.035 572.557 526.499 571.951C527.963 571.345 529.294 570.457 530.415 569.337C531.535 568.217 532.424 566.888 533.031 565.425C533.638 563.962 533.95 562.394 533.95 560.81V522.613L-2.62598 522.613Z" fill="#3F3D56"/>
<path id="Vector_28" d="M443.828 320.042H206.049C204.55 320.042 203.113 319.447 202.053 318.388C200.993 317.329 200.397 315.893 200.397 314.395C200.397 312.898 200.993 311.461 202.053 310.402C203.113 309.343 204.55 308.749 206.049 308.749H443.828C445.327 308.749 446.765 309.343 447.825 310.402C448.885 311.461 449.48 312.898 449.48 314.395C449.48 315.893 448.885 317.329 447.825 318.388C446.765 319.447 445.327 320.042 443.828 320.042Z" fill="#E6E6E6"/>
<path id="Vector_29" d="M364.043 345.531H285.831C284.332 345.531 282.894 344.936 281.834 343.877C280.774 342.818 280.179 341.382 280.179 339.884C280.179 338.387 280.774 336.95 281.834 335.891C282.894 334.832 284.332 334.238 285.831 334.238H364.043C365.542 334.238 366.98 334.832 368.04 335.891C369.1 336.95 369.695 338.387 369.695 339.884C369.695 341.382 369.1 342.818 368.04 343.877C366.98 344.936 365.542 345.531 364.043 345.531Z" fill="#E6E6E6"/>
<path id="Vector_30" d="M364.043 397.235H285.831C284.332 397.235 282.894 396.64 281.834 395.581C280.774 394.522 280.179 393.085 280.179 391.588C280.179 390.09 280.774 388.654 281.834 387.595C282.894 386.536 284.332 385.941 285.831 385.941H364.043C365.542 385.941 366.98 386.536 368.04 387.595C369.1 388.654 369.695 390.09 369.695 391.588C369.695 393.085 369.1 394.522 368.04 395.581C366.98 396.64 365.542 397.235 364.043 397.235Z" fill="#E6E6E6"/>
<path id="Vector_31" d="M364.044 423.717H285.832C285.089 423.717 284.354 423.571 283.669 423.287C282.983 423.003 282.36 422.587 281.835 422.063C281.31 421.538 280.894 420.916 280.61 420.231C280.326 419.546 280.18 418.812 280.18 418.07C280.18 417.329 280.326 416.594 280.61 415.909C280.894 415.224 281.31 414.602 281.835 414.077C282.36 413.553 282.983 413.137 283.669 412.853C284.354 412.57 285.089 412.424 285.832 412.424H364.044C364.786 412.424 365.521 412.57 366.207 412.853C366.892 413.137 367.515 413.553 368.04 414.077C368.565 414.602 368.981 415.224 369.265 415.909C369.549 416.594 369.696 417.329 369.696 418.07C369.696 418.812 369.549 419.546 369.265 420.231C368.981 420.916 368.565 421.538 368.04 422.063C367.515 422.587 366.892 423.003 366.207 423.287C365.521 423.571 364.786 423.717 364.044 423.717Z" fill="#E6E6E6"/>
<path id="Vector_32" d="M407.907 371.02H241.967C240.468 371.02 239.031 370.425 237.971 369.366C236.911 368.307 236.315 366.871 236.315 365.374C236.315 363.876 236.911 362.44 237.971 361.381C239.031 360.322 240.468 359.727 241.967 359.727H407.907C409.406 359.727 410.844 360.322 411.904 361.381C412.964 362.44 413.559 363.876 413.559 365.374C413.559 366.871 412.964 368.307 411.904 369.366C410.844 370.425 409.406 371.02 407.907 371.02Z" fill="#E6E6E6"/>
<path id="Vector_33" d="M439.868 477.937H411.469C408.92 477.937 406.476 476.925 404.673 475.125C402.871 473.324 401.858 470.882 401.858 468.335C401.858 465.789 402.871 463.346 404.673 461.546C406.476 459.745 408.92 458.733 411.469 458.733H439.868C442.417 458.733 444.861 459.745 446.664 461.546C448.466 463.346 449.479 465.789 449.479 468.335C449.479 470.882 448.466 473.324 446.664 475.125C444.861 476.925 442.417 477.937 439.868 477.937Z" fill="#0D0C0C"/>
<path id="Vector_34" d="M131.277 408.247C158.579 408.247 180.711 386.136 180.711 358.861C180.711 331.586 158.579 309.475 131.277 309.475C103.976 309.475 81.8438 331.586 81.8438 358.861C81.8438 386.136 103.976 408.247 131.277 408.247Z" fill="#0D0C0C"/>
<path id="Vector_35" d="M709.747 658.666H-1.31884C-1.66508 658.665 -1.9968 658.527 -2.24127 658.282C-2.48575 658.037 -2.62305 657.705 -2.62305 657.359C-2.62305 657.013 -2.48575 656.681 -2.24127 656.436C-1.9968 656.191 -1.66508 656.053 -1.31884 656.052H709.747C710.093 656.053 710.425 656.191 710.67 656.436C710.914 656.681 711.051 657.013 711.051 657.359C711.051 657.705 710.914 658.037 710.67 658.282C710.425 658.527 710.093 658.665 709.747 658.666Z" fill="#CACACA"/>
<path id="Vector_36" d="M265.195 218.75C266.224 218.75 267.058 217.916 267.058 216.888C267.058 215.86 266.224 215.027 265.195 215.027C264.166 215.027 263.332 215.86 263.332 216.888C263.332 217.916 264.166 218.75 265.195 218.75Z" fill="white"/>
</g>
<defs>
<clipPath id="clip0_251_314">
<rect width="800" height="657.325" fill="white"/>
</clipPath>
</defs>
</svg>
